G04*
G04 #@! TF.GenerationSoftware,Altium Limited,Altium Designer,25.8.1 (18)*
G04*
G04 Layer_Color=2752767*
%FSLAX44Y44*%
%MOMM*%
G71*
G04*
G04 #@! TF.SameCoordinates,DC2A109C-38F9-4662-A5C9-921089D2BF11*
G04*
G04*
G04 #@! TF.FilePolarity,Positive*
G04*
G01*
G75*
%ADD17C,0.1270*%
%ADD69C,0.1693*%
D17*
X-185058Y-98083D02*
Y-87923D01*
X-174898D01*
Y-98083D01*
X-185058D01*
X-159658D02*
Y-87923D01*
X-149498D01*
Y-98083D01*
X-159658D01*
X-134258D02*
Y-87923D01*
X-124098D01*
Y-98083D01*
X-134258D01*
X-128691Y44296D02*
X-133771Y54456D01*
X-123611D01*
X-128691Y44296D01*
X-156120Y38930D02*
X-153580Y41470D01*
X-151040D01*
X-153580Y44010D01*
X-151040Y46550D01*
X-153580D01*
X-156120Y49090D01*
X-158660Y46550D01*
X-161200D01*
X-158660Y44010D01*
X-161200Y41470D01*
X-158660D01*
X-156120Y38930D01*
X139343Y-45542D02*
X141883Y-40462D01*
X139343Y-35382D01*
X144423Y-37922D01*
X149503Y-35382D01*
X146963Y-40462D01*
X149503Y-45542D01*
X144423Y-43002D01*
X139343Y-45542D01*
X133730Y-6904D02*
X136270Y-1824D01*
X133730Y3256D01*
X138810Y716D01*
X143890Y3256D01*
X141350Y-1824D01*
X143890Y-6904D01*
X138810Y-4364D01*
X133730Y-6904D01*
X32790Y-63789D02*
X35330Y-61249D01*
X37870D01*
X35330Y-58709D01*
X37870Y-56169D01*
X35330D01*
X32790Y-53629D01*
X30250Y-56169D01*
X27710D01*
X30250Y-58709D01*
X27710Y-61249D01*
X30250D01*
X32790Y-63789D01*
X-148127Y99952D02*
X-145588Y102492D01*
X-143048D01*
X-145588Y105032D01*
X-143048Y107572D01*
X-145588D01*
X-148127Y110112D01*
X-150667Y107572D01*
X-153208D01*
X-150667Y105032D01*
X-153208Y102492D01*
X-150667D01*
X-148127Y99952D01*
X-138022Y60695D02*
X-135482Y63235D01*
X-132942D01*
X-135482Y65775D01*
X-132942Y68315D01*
X-135482D01*
X-138022Y70855D01*
X-140562Y68315D01*
X-143102D01*
X-140562Y65775D01*
X-143102Y63235D01*
X-140562D01*
X-138022Y60695D01*
X17316Y27930D02*
X19856Y30470D01*
X22396D01*
X19856Y33010D01*
X22396Y35550D01*
X19856D01*
X17316Y38090D01*
X14776Y35550D01*
X12236D01*
X14776Y33010D01*
X12236Y30470D01*
X14776D01*
X17316Y27930D01*
X-38882Y62196D02*
X-36342Y64736D01*
X-33802D01*
X-36342Y67276D01*
X-33802Y69816D01*
X-36342D01*
X-38882Y72356D01*
X-41422Y69816D01*
X-43962D01*
X-41422Y67276D01*
X-43962Y64736D01*
X-41422D01*
X-38882Y62196D01*
X-141077Y-136277D02*
X-138537Y-133737D01*
X-135997D01*
X-138537Y-131197D01*
X-135997Y-128657D01*
X-138537D01*
X-141077Y-126117D01*
X-143617Y-128657D01*
X-146157D01*
X-143617Y-131197D01*
X-146157Y-133737D01*
X-143617D01*
X-141077Y-136277D01*
X-157930Y111535D02*
X-155390Y116615D01*
X-157930Y121695D01*
X-152850Y119155D01*
X-147770Y121695D01*
X-150310Y116615D01*
X-147770Y111535D01*
X-152850Y114075D01*
X-157930Y111535D01*
X-183263Y139923D02*
X-180723Y145002D01*
X-183263Y150083D01*
X-178183Y147542D01*
X-173103Y150083D01*
X-175643Y145002D01*
X-173103Y139923D01*
X-178183Y142463D01*
X-183263Y139923D01*
X-150905Y-5008D02*
X-148365Y-2468D01*
X-145825D01*
X-148365Y72D01*
X-145825Y2612D01*
X-148365D01*
X-150905Y5152D01*
X-153445Y2612D01*
X-155985D01*
X-153445Y72D01*
X-155985Y-2468D01*
X-153445D01*
X-150905Y-5008D01*
X-21716Y28444D02*
X-19176Y30984D01*
X-16636D01*
X-19176Y33524D01*
X-16636Y36064D01*
X-19176D01*
X-21716Y38604D01*
X-24256Y36064D01*
X-26796D01*
X-24256Y33524D01*
X-26796Y30984D01*
X-24256D01*
X-21716Y28444D01*
X90588Y-57451D02*
X93128Y-54911D01*
X95668D01*
X93128Y-52371D01*
X95668Y-49831D01*
X93128D01*
X90588Y-47291D01*
X88048Y-49831D01*
X85508D01*
X88048Y-52371D01*
X85508Y-54911D01*
X88048D01*
X90588Y-57451D01*
X-232986Y-102844D02*
X-230446Y-100304D01*
X-227906D01*
X-230446Y-97764D01*
X-227906Y-95224D01*
X-230446D01*
X-232986Y-92684D01*
X-235526Y-95224D01*
X-238066D01*
X-235526Y-97764D01*
X-238066Y-100304D01*
X-235526D01*
X-232986Y-102844D01*
X-210887Y-20655D02*
X-208347Y-18115D01*
X-205807D01*
X-208347Y-15575D01*
X-205807Y-13035D01*
X-208347D01*
X-210887Y-10495D01*
X-213427Y-13035D01*
X-215967D01*
X-213427Y-15575D01*
X-215967Y-18115D01*
X-213427D01*
X-210887Y-20655D01*
X-107926Y-50428D02*
X-105386Y-47888D01*
X-102846D01*
X-105386Y-45348D01*
X-102846Y-42808D01*
X-105386D01*
X-107926Y-40268D01*
X-110466Y-42808D01*
X-113006D01*
X-110466Y-45348D01*
X-113006Y-47888D01*
X-110466D01*
X-107926Y-50428D01*
X-270422Y1047D02*
X-267882Y3587D01*
X-265342D01*
X-267882Y6127D01*
X-265342Y8667D01*
X-267882D01*
X-270422Y11207D01*
X-272962Y8667D01*
X-275502D01*
X-272962Y6127D01*
X-275502Y3587D01*
X-272962D01*
X-270422Y1047D01*
X-1534Y-40335D02*
X1006Y-37795D01*
X3546D01*
X1006Y-35255D01*
X3546Y-32715D01*
X1006D01*
X-1534Y-30175D01*
X-4074Y-32715D01*
X-6614D01*
X-4074Y-35255D01*
X-6614Y-37795D01*
X-4074D01*
X-1534Y-40335D01*
X-208979Y-8704D02*
X-206439Y-6164D01*
X-203899D01*
X-206439Y-3624D01*
X-203899Y-1084D01*
X-206439D01*
X-208979Y1456D01*
X-211519Y-1084D01*
X-214059D01*
X-211519Y-3624D01*
X-214059Y-6164D01*
X-211519D01*
X-208979Y-8704D01*
X-9946Y-18762D02*
X-7406Y-16222D01*
X-4866D01*
X-7406Y-13682D01*
X-4866Y-11142D01*
X-7406D01*
X-9946Y-8602D01*
X-12486Y-11142D01*
X-15026D01*
X-12486Y-13682D01*
X-15026Y-16222D01*
X-12486D01*
X-9946Y-18762D01*
X-60170Y87275D02*
X-65250Y97436D01*
X-55090D01*
X-60170Y87275D01*
X-284680Y62554D02*
X-282140Y67634D01*
X-284680Y72714D01*
X-279600Y70174D01*
X-274520Y72714D01*
X-277060Y67634D01*
X-274520Y62554D01*
X-279600Y65094D01*
X-284680Y62554D01*
X-218456Y-96733D02*
X-215916Y-91653D01*
X-218456Y-86573D01*
X-213376Y-89113D01*
X-208296Y-86573D01*
X-210836Y-91653D01*
X-208296Y-96733D01*
X-213376Y-94193D01*
X-218456Y-96733D01*
X-264072Y-88192D02*
X-261532Y-83112D01*
X-264072Y-78032D01*
X-258993Y-80572D01*
X-253913Y-78032D01*
X-256453Y-83112D01*
X-253913Y-88192D01*
X-258993Y-85652D01*
X-264072Y-88192D01*
D69*
X-8165Y20239D02*
G03*
X-8165Y20239I-5080J0D01*
G01*
X187899Y-20681D02*
G03*
X187899Y-20681I-5080J0D01*
G01*
M02*
