G04*
G04 #@! TF.GenerationSoftware,Altium Limited,Altium Designer,25.8.1 (18)*
G04*
G04 Layer_Color=16711935*
%FSLAX44Y44*%
%MOMM*%
G71*
G04*
G04 #@! TF.SameCoordinates,DC2A109C-38F9-4662-A5C9-921089D2BF11*
G04*
G04*
G04 #@! TF.FilePolarity,Positive*
G04*
G01*
G75*
%ADD13C,0.1000*%
D13*
X-249296Y66370D02*
Y75870D01*
X-232796Y66370D02*
Y75870D01*
X-249296Y66370D02*
X-232796D01*
X-249296Y75870D02*
X-232796D01*
X-185905Y-34928D02*
Y35072D01*
Y-34928D02*
X-115905D01*
Y35072D01*
X-185905D02*
X-115905D01*
X-185905Y30072D02*
X-180905Y35072D01*
X-19201Y-40942D02*
Y-31942D01*
X-36201Y-40942D02*
Y-31942D01*
Y-40942D02*
X-19201D01*
X-36201Y-31942D02*
X-19201D01*
X-18801Y-27543D02*
Y-18543D01*
X-35801Y-27543D02*
Y-18543D01*
Y-27543D02*
X-18801D01*
X-35801Y-18543D02*
X-18801D01*
X12801Y-6208D02*
Y10292D01*
X22301Y-6208D02*
Y10292D01*
X12801Y-6208D02*
X22301D01*
X12801Y10292D02*
X22301D01*
X-199766Y-55550D02*
X-183266D01*
X-199766Y-46050D02*
X-183266D01*
X-199766Y-55550D02*
Y-46050D01*
X-183266Y-55550D02*
Y-46050D01*
M02*
