G04*
G04 #@! TF.GenerationSoftware,Altium Limited,Altium Designer,25.8.1 (18)*
G04*
G04 Layer_Color=32896*
%FSLAX44Y44*%
%MOMM*%
G71*
G04*
G04 #@! TF.SameCoordinates,DC2A109C-38F9-4662-A5C9-921089D2BF11*
G04*
G04*
G04 #@! TF.FilePolarity,Positive*
G04*
G01*
G75*
%ADD10C,0.2500*%
%ADD12C,0.2000*%
%ADD13C,0.1000*%
%ADD14C,0.0800*%
%ADD15C,0.2540*%
%ADD16C,0.0762*%
%ADD62C,0.1524*%
G36*
X-128449Y100346D02*
X-128367Y100226D01*
X-128269Y100106D01*
X-128179Y100000D01*
X-128089Y99910D01*
X-128021Y99835D01*
X-127991Y99812D01*
X-127968Y99790D01*
X-127961Y99782D01*
X-127953Y99775D01*
X-127795Y99647D01*
X-127637Y99527D01*
X-127487Y99422D01*
X-127337Y99339D01*
X-127209Y99264D01*
X-127156Y99234D01*
X-127111Y99211D01*
X-127073Y99188D01*
X-127044Y99181D01*
X-127028Y99166D01*
X-127021D01*
Y98549D01*
X-127134Y98595D01*
X-127247Y98647D01*
X-127359Y98700D01*
X-127465Y98752D01*
X-127555Y98798D01*
X-127630Y98835D01*
X-127675Y98865D01*
X-127683Y98873D01*
X-127690D01*
X-127825Y98955D01*
X-127946Y99038D01*
X-128051Y99113D01*
X-128134Y99181D01*
X-128209Y99234D01*
X-128254Y99279D01*
X-128292Y99309D01*
X-128299Y99316D01*
Y95249D01*
X-128938D01*
Y100474D01*
X-128525D01*
X-128449Y100346D01*
D02*
G37*
G36*
X-123420Y97940D02*
X-121412Y95249D01*
X-122239D01*
X-123555Y97053D01*
X-123585Y97098D01*
X-123623Y97151D01*
X-123705Y97271D01*
X-123743Y97331D01*
X-123773Y97376D01*
X-123795Y97407D01*
X-123803Y97414D01*
X-123878Y97301D01*
X-123946Y97196D01*
X-123976Y97158D01*
X-123991Y97128D01*
X-124006Y97106D01*
X-124014Y97098D01*
X-125329Y95249D01*
X-126179D01*
X-124232Y97971D01*
X-126036Y100452D01*
X-125284D01*
X-124247Y99068D01*
X-124156Y98955D01*
X-124081Y98850D01*
X-124006Y98745D01*
X-123946Y98662D01*
X-123893Y98587D01*
X-123856Y98527D01*
X-123833Y98497D01*
X-123826Y98482D01*
X-123773Y98572D01*
X-123713Y98670D01*
X-123645Y98775D01*
X-123577Y98880D01*
X-123510Y98970D01*
X-123465Y99046D01*
X-123442Y99076D01*
X-123427Y99098D01*
X-123412Y99106D01*
Y99113D01*
X-122465Y100452D01*
X-121645D01*
X-123420Y97940D01*
D02*
G37*
G36*
X-195237Y8430D02*
X-195365Y8355D01*
X-195485Y8272D01*
X-195606Y8174D01*
X-195711Y8084D01*
X-195801Y7994D01*
X-195876Y7926D01*
X-195899Y7896D01*
X-195922Y7873D01*
X-195929Y7866D01*
X-195937Y7858D01*
X-196064Y7701D01*
X-196185Y7543D01*
X-196290Y7392D01*
X-196373Y7242D01*
X-196448Y7114D01*
X-196478Y7061D01*
X-196500Y7016D01*
X-196523Y6979D01*
X-196530Y6949D01*
X-196546Y6934D01*
Y6926D01*
X-197162D01*
X-197117Y7039D01*
X-197064Y7152D01*
X-197012Y7265D01*
X-196959Y7370D01*
X-196914Y7460D01*
X-196876Y7535D01*
X-196846Y7580D01*
X-196839Y7588D01*
Y7595D01*
X-196756Y7731D01*
X-196673Y7851D01*
X-196598Y7956D01*
X-196530Y8039D01*
X-196478Y8114D01*
X-196433Y8159D01*
X-196403Y8197D01*
X-196395Y8204D01*
X-200463D01*
Y8843D01*
X-195237D01*
Y8430D01*
D02*
G37*
G36*
X-195260Y4859D02*
X-198267D01*
X-198440D01*
X-198606Y4844D01*
X-198748Y4828D01*
X-198884Y4806D01*
X-199004Y4783D01*
X-199117Y4753D01*
X-199215Y4731D01*
X-199297Y4701D01*
X-199365Y4671D01*
X-199433Y4641D01*
X-199478Y4611D01*
X-199523Y4588D01*
X-199553Y4565D01*
X-199576Y4550D01*
X-199583Y4543D01*
X-199590Y4535D01*
X-199651Y4468D01*
X-199703Y4392D01*
X-199786Y4227D01*
X-199846Y4054D01*
X-199884Y3874D01*
X-199914Y3708D01*
X-199921Y3641D01*
Y3573D01*
X-199929Y3528D01*
Y3453D01*
X-199921Y3295D01*
X-199899Y3152D01*
X-199876Y3017D01*
X-199839Y2911D01*
X-199809Y2821D01*
X-199786Y2754D01*
X-199764Y2716D01*
X-199756Y2701D01*
X-199688Y2596D01*
X-199606Y2505D01*
X-199523Y2430D01*
X-199448Y2377D01*
X-199373Y2332D01*
X-199320Y2295D01*
X-199282Y2280D01*
X-199267Y2272D01*
X-199200Y2250D01*
X-199132Y2235D01*
X-198974Y2205D01*
X-198809Y2182D01*
X-198643Y2167D01*
X-198500Y2159D01*
X-198433D01*
X-198380Y2152D01*
X-198335D01*
X-198297D01*
X-198275D01*
X-198267D01*
X-195260D01*
Y1460D01*
X-198267D01*
X-198418D01*
X-198561Y1468D01*
X-198696Y1475D01*
X-198824Y1490D01*
X-198936Y1505D01*
X-199042Y1520D01*
X-199139Y1543D01*
X-199230Y1558D01*
X-199312Y1573D01*
X-199380Y1596D01*
X-199440Y1611D01*
X-199485Y1626D01*
X-199523Y1641D01*
X-199553Y1648D01*
X-199568Y1656D01*
X-199576D01*
X-199741Y1738D01*
X-199891Y1844D01*
X-200012Y1949D01*
X-200117Y2062D01*
X-200200Y2159D01*
X-200260Y2242D01*
X-200275Y2272D01*
X-200290Y2295D01*
X-200305Y2310D01*
Y2317D01*
X-200387Y2505D01*
X-200448Y2701D01*
X-200493Y2904D01*
X-200523Y3092D01*
X-200530Y3174D01*
X-200538Y3257D01*
X-200545Y3332D01*
Y3392D01*
X-200553Y3445D01*
Y3513D01*
X-200538Y3783D01*
X-200523Y3904D01*
X-200508Y4017D01*
X-200485Y4129D01*
X-200463Y4227D01*
X-200440Y4317D01*
X-200410Y4400D01*
X-200380Y4475D01*
X-200357Y4535D01*
X-200335Y4595D01*
X-200312Y4641D01*
X-200290Y4678D01*
X-200282Y4701D01*
X-200267Y4716D01*
Y4723D01*
X-200154Y4889D01*
X-200027Y5024D01*
X-199906Y5129D01*
X-199786Y5220D01*
X-199681Y5287D01*
X-199598Y5332D01*
X-199568Y5347D01*
X-199545Y5362D01*
X-199530Y5370D01*
X-199523D01*
X-199433Y5400D01*
X-199335Y5430D01*
X-199132Y5475D01*
X-198921Y5505D01*
X-198718Y5528D01*
X-198628Y5535D01*
X-198538Y5543D01*
X-198463D01*
X-198395Y5550D01*
X-198342D01*
X-198305D01*
X-198275D01*
X-198267D01*
X-195260D01*
Y4859D01*
D02*
G37*
G36*
X-240219Y82942D02*
X-240091Y82935D01*
X-239971Y82912D01*
X-239858Y82890D01*
X-239753Y82860D01*
X-239655Y82830D01*
X-239565Y82792D01*
X-239482Y82754D01*
X-239407Y82717D01*
X-239347Y82679D01*
X-239294Y82649D01*
X-239249Y82619D01*
X-239211Y82597D01*
X-239189Y82574D01*
X-239174Y82567D01*
X-239166Y82559D01*
X-239091Y82484D01*
X-239023Y82401D01*
X-238956Y82311D01*
X-238903Y82221D01*
X-238813Y82040D01*
X-238753Y81860D01*
X-238730Y81777D01*
X-238708Y81694D01*
X-238693Y81627D01*
X-238678Y81567D01*
X-238670Y81514D01*
Y81476D01*
X-238663Y81454D01*
Y81446D01*
X-239317Y81379D01*
X-239332Y81552D01*
X-239362Y81702D01*
X-239407Y81837D01*
X-239459Y81943D01*
X-239505Y82033D01*
X-239550Y82093D01*
X-239580Y82130D01*
X-239595Y82146D01*
X-239708Y82236D01*
X-239828Y82303D01*
X-239956Y82356D01*
X-240068Y82386D01*
X-240174Y82409D01*
X-240264Y82416D01*
X-240294Y82424D01*
X-240339D01*
X-240497Y82416D01*
X-240640Y82386D01*
X-240760Y82341D01*
X-240865Y82296D01*
X-240948Y82243D01*
X-241001Y82206D01*
X-241038Y82176D01*
X-241053Y82161D01*
X-241144Y82055D01*
X-241211Y81950D01*
X-241264Y81845D01*
X-241294Y81740D01*
X-241317Y81657D01*
X-241324Y81582D01*
X-241332Y81537D01*
Y81529D01*
Y81522D01*
X-241317Y81386D01*
X-241287Y81243D01*
X-241234Y81116D01*
X-241181Y80995D01*
X-241121Y80898D01*
X-241068Y80815D01*
X-241053Y80785D01*
X-241038Y80762D01*
X-241023Y80755D01*
Y80747D01*
X-240963Y80664D01*
X-240888Y80582D01*
X-240805Y80492D01*
X-240715Y80401D01*
X-240527Y80221D01*
X-240339Y80040D01*
X-240242Y79958D01*
X-240159Y79882D01*
X-240076Y79815D01*
X-240008Y79755D01*
X-239956Y79710D01*
X-239911Y79672D01*
X-239881Y79649D01*
X-239873Y79642D01*
X-239685Y79484D01*
X-239512Y79334D01*
X-239369Y79198D01*
X-239256Y79085D01*
X-239159Y78988D01*
X-239091Y78920D01*
X-239053Y78875D01*
X-239039Y78868D01*
Y78860D01*
X-238933Y78732D01*
X-238851Y78612D01*
X-238775Y78492D01*
X-238715Y78386D01*
X-238670Y78296D01*
X-238640Y78228D01*
X-238625Y78183D01*
X-238617Y78176D01*
Y78168D01*
X-238587Y78086D01*
X-238572Y78010D01*
X-238557Y77935D01*
X-238550Y77868D01*
X-238542Y77807D01*
Y77762D01*
Y77732D01*
Y77725D01*
X-241993D01*
Y78341D01*
X-239429D01*
X-239520Y78469D01*
X-239565Y78522D01*
X-239602Y78574D01*
X-239640Y78619D01*
X-239670Y78650D01*
X-239693Y78672D01*
X-239700Y78679D01*
X-239738Y78717D01*
X-239783Y78755D01*
X-239888Y78853D01*
X-240008Y78965D01*
X-240136Y79078D01*
X-240257Y79176D01*
X-240309Y79221D01*
X-240354Y79266D01*
X-240392Y79296D01*
X-240422Y79319D01*
X-240437Y79334D01*
X-240445Y79341D01*
X-240565Y79446D01*
X-240685Y79544D01*
X-240790Y79642D01*
X-240888Y79725D01*
X-240978Y79807D01*
X-241053Y79882D01*
X-241129Y79950D01*
X-241189Y80010D01*
X-241249Y80070D01*
X-241294Y80116D01*
X-241332Y80153D01*
X-241369Y80191D01*
X-241407Y80236D01*
X-241422Y80251D01*
X-241527Y80379D01*
X-241617Y80492D01*
X-241693Y80604D01*
X-241753Y80695D01*
X-241798Y80777D01*
X-241828Y80837D01*
X-241843Y80875D01*
X-241850Y80890D01*
X-241896Y81003D01*
X-241926Y81116D01*
X-241956Y81221D01*
X-241971Y81311D01*
X-241978Y81394D01*
X-241986Y81454D01*
Y81491D01*
Y81507D01*
X-241978Y81619D01*
X-241963Y81725D01*
X-241948Y81830D01*
X-241918Y81920D01*
X-241843Y82100D01*
X-241768Y82243D01*
X-241723Y82311D01*
X-241685Y82364D01*
X-241647Y82416D01*
X-241610Y82454D01*
X-241580Y82484D01*
X-241565Y82514D01*
X-241550Y82521D01*
X-241542Y82529D01*
X-241459Y82604D01*
X-241369Y82672D01*
X-241271Y82724D01*
X-241174Y82770D01*
X-240978Y82845D01*
X-240783Y82897D01*
X-240700Y82912D01*
X-240617Y82927D01*
X-240542Y82935D01*
X-240482Y82942D01*
X-240429Y82950D01*
X-240354D01*
X-240219Y82942D01*
D02*
G37*
G36*
X-233655Y77725D02*
X-234347D01*
Y80033D01*
X-235234D01*
X-235317Y80025D01*
X-235377D01*
X-235430Y80018D01*
X-235467Y80010D01*
X-235497D01*
X-235512Y80003D01*
X-235520D01*
X-235640Y79965D01*
X-235693Y79943D01*
X-235738Y79920D01*
X-235783Y79897D01*
X-235813Y79882D01*
X-235828Y79875D01*
X-235836Y79868D01*
X-235896Y79822D01*
X-235956Y79770D01*
X-236069Y79657D01*
X-236121Y79604D01*
X-236159Y79559D01*
X-236182Y79529D01*
X-236189Y79522D01*
X-236264Y79416D01*
X-236347Y79304D01*
X-236430Y79183D01*
X-236512Y79071D01*
X-236580Y78965D01*
X-236633Y78882D01*
X-236655Y78853D01*
X-236670Y78830D01*
X-236685Y78815D01*
Y78807D01*
X-237369Y77725D01*
X-238227D01*
X-237332Y79138D01*
X-237227Y79289D01*
X-237129Y79424D01*
X-237031Y79537D01*
X-236948Y79642D01*
X-236873Y79717D01*
X-236813Y79777D01*
X-236775Y79815D01*
X-236760Y79830D01*
X-236700Y79875D01*
X-236633Y79928D01*
X-236497Y80010D01*
X-236437Y80040D01*
X-236392Y80070D01*
X-236362Y80085D01*
X-236347Y80093D01*
X-236482Y80116D01*
X-236610Y80138D01*
X-236723Y80176D01*
X-236836Y80206D01*
X-236933Y80243D01*
X-237024Y80288D01*
X-237106Y80326D01*
X-237181Y80364D01*
X-237242Y80409D01*
X-237302Y80446D01*
X-237347Y80476D01*
X-237384Y80506D01*
X-237414Y80529D01*
X-237437Y80552D01*
X-237445Y80559D01*
X-237452Y80567D01*
X-237512Y80642D01*
X-237572Y80717D01*
X-237663Y80875D01*
X-237723Y81033D01*
X-237768Y81183D01*
X-237798Y81311D01*
X-237806Y81364D01*
Y81416D01*
X-237813Y81454D01*
Y81484D01*
Y81499D01*
Y81507D01*
X-237806Y81664D01*
X-237783Y81807D01*
X-237745Y81943D01*
X-237708Y82055D01*
X-237663Y82153D01*
X-237633Y82228D01*
X-237603Y82273D01*
X-237595Y82281D01*
Y82288D01*
X-237505Y82409D01*
X-237414Y82514D01*
X-237317Y82604D01*
X-237227Y82672D01*
X-237144Y82724D01*
X-237076Y82754D01*
X-237031Y82777D01*
X-237024Y82785D01*
X-237016D01*
X-236948Y82807D01*
X-236866Y82830D01*
X-236700Y82867D01*
X-236520Y82890D01*
X-236354Y82912D01*
X-236197Y82920D01*
X-236129D01*
X-236069Y82927D01*
X-233655D01*
Y77725D01*
D02*
G37*
G36*
X-176795Y-49646D02*
X-176900Y-49796D01*
X-176998Y-49932D01*
X-177096Y-50044D01*
X-177178Y-50150D01*
X-177253Y-50225D01*
X-177314Y-50285D01*
X-177351Y-50323D01*
X-177366Y-50338D01*
X-177426Y-50383D01*
X-177494Y-50435D01*
X-177629Y-50518D01*
X-177689Y-50548D01*
X-177735Y-50578D01*
X-177765Y-50593D01*
X-177780Y-50601D01*
X-177644Y-50623D01*
X-177517Y-50646D01*
X-177404Y-50683D01*
X-177291Y-50714D01*
X-177193Y-50751D01*
X-177103Y-50796D01*
X-177020Y-50834D01*
X-176945Y-50871D01*
X-176885Y-50917D01*
X-176825Y-50954D01*
X-176780Y-50984D01*
X-176742Y-51014D01*
X-176712Y-51037D01*
X-176690Y-51059D01*
X-176682Y-51067D01*
X-176674Y-51074D01*
X-176614Y-51150D01*
X-176554Y-51225D01*
X-176464Y-51383D01*
X-176404Y-51541D01*
X-176359Y-51691D01*
X-176329Y-51819D01*
X-176321Y-51871D01*
Y-51924D01*
X-176314Y-51962D01*
Y-51992D01*
Y-52007D01*
Y-52014D01*
X-176321Y-52172D01*
X-176344Y-52315D01*
X-176381Y-52450D01*
X-176419Y-52563D01*
X-176464Y-52661D01*
X-176494Y-52736D01*
X-176524Y-52781D01*
X-176532Y-52789D01*
Y-52796D01*
X-176622Y-52916D01*
X-176712Y-53022D01*
X-176810Y-53112D01*
X-176900Y-53180D01*
X-176983Y-53232D01*
X-177050Y-53262D01*
X-177096Y-53285D01*
X-177103Y-53292D01*
X-177111D01*
X-177178Y-53315D01*
X-177261Y-53337D01*
X-177426Y-53375D01*
X-177607Y-53398D01*
X-177772Y-53420D01*
X-177930Y-53428D01*
X-177998D01*
X-178058Y-53435D01*
X-180471D01*
Y-48232D01*
X-179780D01*
Y-50541D01*
X-178892D01*
X-178810Y-50533D01*
X-178750D01*
X-178697Y-50526D01*
X-178659Y-50518D01*
X-178629D01*
X-178614Y-50511D01*
X-178607D01*
X-178486Y-50473D01*
X-178434Y-50450D01*
X-178389Y-50428D01*
X-178344Y-50405D01*
X-178314Y-50390D01*
X-178298Y-50383D01*
X-178291Y-50375D01*
X-178231Y-50330D01*
X-178171Y-50278D01*
X-178058Y-50165D01*
X-178005Y-50112D01*
X-177968Y-50067D01*
X-177945Y-50037D01*
X-177938Y-50029D01*
X-177862Y-49924D01*
X-177780Y-49811D01*
X-177697Y-49691D01*
X-177614Y-49578D01*
X-177547Y-49473D01*
X-177494Y-49390D01*
X-177472Y-49360D01*
X-177456Y-49338D01*
X-177441Y-49323D01*
Y-49315D01*
X-176757Y-48232D01*
X-175900D01*
X-176795Y-49646D01*
D02*
G37*
G36*
X-173697Y-48150D02*
X-173569Y-48165D01*
X-173442Y-48187D01*
X-173321Y-48217D01*
X-173209Y-48255D01*
X-173111Y-48293D01*
X-173013Y-48338D01*
X-172930Y-48383D01*
X-172848Y-48420D01*
X-172780Y-48465D01*
X-172720Y-48503D01*
X-172675Y-48541D01*
X-172637Y-48571D01*
X-172607Y-48593D01*
X-172592Y-48608D01*
X-172584Y-48616D01*
X-172494Y-48706D01*
X-172419Y-48804D01*
X-172351Y-48902D01*
X-172291Y-48999D01*
X-172246Y-49090D01*
X-172201Y-49187D01*
X-172141Y-49368D01*
X-172126Y-49450D01*
X-172111Y-49526D01*
X-172096Y-49593D01*
X-172088Y-49653D01*
X-172081Y-49699D01*
Y-49736D01*
Y-49759D01*
Y-49766D01*
X-172088Y-49947D01*
X-172118Y-50112D01*
X-172164Y-50255D01*
X-172209Y-50375D01*
X-172254Y-50473D01*
X-172299Y-50548D01*
X-172329Y-50593D01*
X-172336Y-50608D01*
X-172442Y-50721D01*
X-172554Y-50819D01*
X-172675Y-50894D01*
X-172795Y-50954D01*
X-172900Y-50999D01*
X-172983Y-51029D01*
X-173013Y-51037D01*
X-173036Y-51044D01*
X-173051Y-51052D01*
X-173058D01*
X-172930Y-51119D01*
X-172825Y-51187D01*
X-172735Y-51262D01*
X-172660Y-51330D01*
X-172600Y-51390D01*
X-172554Y-51443D01*
X-172532Y-51473D01*
X-172524Y-51488D01*
X-172464Y-51593D01*
X-172419Y-51698D01*
X-172381Y-51804D01*
X-172359Y-51901D01*
X-172344Y-51984D01*
X-172336Y-52044D01*
Y-52089D01*
Y-52104D01*
X-172344Y-52232D01*
X-172367Y-52360D01*
X-172397Y-52473D01*
X-172434Y-52571D01*
X-172472Y-52653D01*
X-172502Y-52721D01*
X-172524Y-52758D01*
X-172532Y-52774D01*
X-172607Y-52886D01*
X-172697Y-52984D01*
X-172787Y-53067D01*
X-172878Y-53142D01*
X-172953Y-53195D01*
X-173021Y-53240D01*
X-173066Y-53262D01*
X-173073Y-53270D01*
X-173081D01*
X-173216Y-53330D01*
X-173351Y-53375D01*
X-173487Y-53413D01*
X-173607Y-53435D01*
X-173705Y-53450D01*
X-173787Y-53458D01*
X-173975D01*
X-174081Y-53443D01*
X-174284Y-53405D01*
X-174457Y-53345D01*
X-174607Y-53285D01*
X-174675Y-53247D01*
X-174727Y-53217D01*
X-174780Y-53187D01*
X-174818Y-53157D01*
X-174848Y-53134D01*
X-174870Y-53119D01*
X-174885Y-53112D01*
X-174893Y-53104D01*
X-175035Y-52962D01*
X-175148Y-52804D01*
X-175238Y-52638D01*
X-175314Y-52473D01*
X-175359Y-52330D01*
X-175381Y-52270D01*
X-175396Y-52217D01*
X-175404Y-52172D01*
X-175411Y-52142D01*
X-175419Y-52119D01*
Y-52112D01*
X-174780Y-51999D01*
X-174750Y-52165D01*
X-174705Y-52307D01*
X-174652Y-52428D01*
X-174599Y-52526D01*
X-174547Y-52601D01*
X-174502Y-52653D01*
X-174472Y-52691D01*
X-174464Y-52698D01*
X-174366Y-52774D01*
X-174261Y-52834D01*
X-174163Y-52871D01*
X-174066Y-52901D01*
X-173975Y-52916D01*
X-173908Y-52931D01*
X-173848D01*
X-173712Y-52924D01*
X-173592Y-52894D01*
X-173487Y-52856D01*
X-173396Y-52819D01*
X-173329Y-52774D01*
X-173276Y-52736D01*
X-173239Y-52706D01*
X-173231Y-52698D01*
X-173148Y-52608D01*
X-173088Y-52510D01*
X-173051Y-52413D01*
X-173021Y-52323D01*
X-173006Y-52240D01*
X-172990Y-52180D01*
Y-52134D01*
Y-52127D01*
Y-52119D01*
Y-52037D01*
X-173006Y-51962D01*
X-173043Y-51834D01*
X-173096Y-51721D01*
X-173156Y-51623D01*
X-173216Y-51556D01*
X-173269Y-51503D01*
X-173306Y-51473D01*
X-173314Y-51465D01*
X-173321D01*
X-173449Y-51398D01*
X-173569Y-51345D01*
X-173697Y-51308D01*
X-173810Y-51285D01*
X-173908Y-51270D01*
X-173990Y-51255D01*
X-174088D01*
X-174118Y-51262D01*
X-174156D01*
X-174231Y-50698D01*
X-174133Y-50721D01*
X-174043Y-50736D01*
X-173968Y-50751D01*
X-173900Y-50759D01*
X-173848Y-50766D01*
X-173780D01*
X-173622Y-50751D01*
X-173479Y-50721D01*
X-173351Y-50676D01*
X-173246Y-50623D01*
X-173163Y-50571D01*
X-173103Y-50526D01*
X-173066Y-50496D01*
X-173051Y-50480D01*
X-172953Y-50368D01*
X-172878Y-50247D01*
X-172825Y-50127D01*
X-172795Y-50007D01*
X-172773Y-49909D01*
X-172765Y-49826D01*
X-172757Y-49796D01*
Y-49774D01*
Y-49759D01*
Y-49751D01*
X-172773Y-49586D01*
X-172810Y-49435D01*
X-172855Y-49308D01*
X-172915Y-49195D01*
X-172976Y-49105D01*
X-173021Y-49037D01*
X-173058Y-48992D01*
X-173073Y-48977D01*
X-173193Y-48871D01*
X-173321Y-48796D01*
X-173449Y-48744D01*
X-173569Y-48706D01*
X-173675Y-48684D01*
X-173757Y-48676D01*
X-173787Y-48668D01*
X-173833D01*
X-173968Y-48676D01*
X-174096Y-48706D01*
X-174209Y-48744D01*
X-174299Y-48789D01*
X-174374Y-48826D01*
X-174434Y-48864D01*
X-174464Y-48894D01*
X-174479Y-48902D01*
X-174569Y-49007D01*
X-174645Y-49127D01*
X-174712Y-49255D01*
X-174765Y-49390D01*
X-174802Y-49503D01*
X-174818Y-49556D01*
X-174825Y-49601D01*
X-174832Y-49638D01*
X-174840Y-49668D01*
X-174848Y-49683D01*
Y-49691D01*
X-175487Y-49608D01*
X-175472Y-49488D01*
X-175449Y-49375D01*
X-175381Y-49165D01*
X-175299Y-48984D01*
X-175254Y-48909D01*
X-175208Y-48834D01*
X-175163Y-48766D01*
X-175118Y-48714D01*
X-175081Y-48661D01*
X-175043Y-48623D01*
X-175021Y-48593D01*
X-174998Y-48571D01*
X-174983Y-48556D01*
X-174975Y-48548D01*
X-174885Y-48481D01*
X-174795Y-48413D01*
X-174705Y-48360D01*
X-174607Y-48315D01*
X-174419Y-48240D01*
X-174239Y-48195D01*
X-174156Y-48180D01*
X-174081Y-48165D01*
X-174013Y-48157D01*
X-173953Y-48150D01*
X-173908Y-48142D01*
X-173840D01*
X-173697Y-48150D01*
D02*
G37*
G36*
X-246260Y39315D02*
X-246177Y39195D01*
X-246080Y39074D01*
X-245989Y38969D01*
X-245899Y38879D01*
X-245832Y38804D01*
X-245801Y38781D01*
X-245779Y38758D01*
X-245771Y38751D01*
X-245764Y38743D01*
X-245606Y38616D01*
X-245448Y38495D01*
X-245298Y38390D01*
X-245147Y38307D01*
X-245019Y38232D01*
X-244967Y38202D01*
X-244922Y38180D01*
X-244884Y38157D01*
X-244854Y38149D01*
X-244839Y38134D01*
X-244832D01*
Y37518D01*
X-244944Y37563D01*
X-245057Y37616D01*
X-245170Y37668D01*
X-245275Y37721D01*
X-245365Y37766D01*
X-245441Y37804D01*
X-245486Y37834D01*
X-245493Y37841D01*
X-245501D01*
X-245636Y37924D01*
X-245756Y38007D01*
X-245861Y38082D01*
X-245944Y38149D01*
X-246019Y38202D01*
X-246064Y38247D01*
X-246102Y38277D01*
X-246110Y38285D01*
Y34217D01*
X-246749D01*
Y39443D01*
X-246335D01*
X-246260Y39315D01*
D02*
G37*
G36*
X-235343Y34217D02*
X-236035D01*
Y36578D01*
X-238479D01*
Y37195D01*
X-236035D01*
Y38804D01*
X-238862D01*
Y39420D01*
X-235343D01*
Y34217D01*
D02*
G37*
G36*
X-239727D02*
X-241711D01*
X-241892Y34225D01*
X-242050Y34232D01*
X-242193Y34247D01*
X-242313Y34262D01*
X-242411Y34278D01*
X-242486Y34285D01*
X-242531Y34300D01*
X-242546D01*
X-242674Y34338D01*
X-242779Y34375D01*
X-242877Y34420D01*
X-242959Y34465D01*
X-243027Y34495D01*
X-243080Y34526D01*
X-243110Y34548D01*
X-243117Y34556D01*
X-243200Y34623D01*
X-243275Y34706D01*
X-243335Y34789D01*
X-243396Y34864D01*
X-243441Y34939D01*
X-243471Y34992D01*
X-243493Y35029D01*
X-243501Y35044D01*
X-243553Y35165D01*
X-243591Y35285D01*
X-243621Y35398D01*
X-243636Y35503D01*
X-243651Y35593D01*
X-243659Y35668D01*
Y35714D01*
Y35721D01*
Y35729D01*
X-243651Y35894D01*
X-243621Y36044D01*
X-243576Y36172D01*
X-243531Y36292D01*
X-243486Y36383D01*
X-243441Y36450D01*
X-243410Y36495D01*
X-243403Y36511D01*
X-243298Y36631D01*
X-243185Y36728D01*
X-243057Y36811D01*
X-242944Y36879D01*
X-242839Y36932D01*
X-242749Y36962D01*
X-242719Y36977D01*
X-242696Y36984D01*
X-242681Y36992D01*
X-242674D01*
X-242801Y37067D01*
X-242914Y37142D01*
X-243004Y37225D01*
X-243080Y37300D01*
X-243140Y37360D01*
X-243185Y37420D01*
X-243207Y37450D01*
X-243215Y37465D01*
X-243275Y37578D01*
X-243320Y37683D01*
X-243358Y37789D01*
X-243381Y37886D01*
X-243396Y37969D01*
X-243403Y38037D01*
Y38074D01*
Y38089D01*
X-243396Y38217D01*
X-243373Y38345D01*
X-243335Y38458D01*
X-243298Y38563D01*
X-243260Y38653D01*
X-243223Y38713D01*
X-243200Y38758D01*
X-243193Y38774D01*
X-243110Y38886D01*
X-243020Y38991D01*
X-242922Y39074D01*
X-242832Y39142D01*
X-242756Y39195D01*
X-242689Y39232D01*
X-242644Y39255D01*
X-242636Y39262D01*
X-242629D01*
X-242486Y39315D01*
X-242328Y39352D01*
X-242170Y39383D01*
X-242020Y39397D01*
X-241884Y39413D01*
X-241824D01*
X-241772Y39420D01*
X-239727D01*
Y34217D01*
D02*
G37*
G36*
X-259316Y38335D02*
X-259444Y38260D01*
X-259564Y38177D01*
X-259684Y38080D01*
X-259789Y37989D01*
X-259880Y37899D01*
X-259955Y37831D01*
X-259977Y37801D01*
X-260000Y37779D01*
X-260007Y37771D01*
X-260015Y37764D01*
X-260143Y37606D01*
X-260263Y37448D01*
X-260368Y37298D01*
X-260451Y37147D01*
X-260526Y37020D01*
X-260556Y36967D01*
X-260579Y36922D01*
X-260601Y36884D01*
X-260609Y36854D01*
X-260624Y36839D01*
Y36832D01*
X-261241D01*
X-261195Y36944D01*
X-261143Y37057D01*
X-261090Y37170D01*
X-261038Y37275D01*
X-260992Y37365D01*
X-260955Y37441D01*
X-260925Y37486D01*
X-260917Y37493D01*
Y37501D01*
X-260835Y37636D01*
X-260752Y37756D01*
X-260677Y37861D01*
X-260609Y37944D01*
X-260556Y38019D01*
X-260511Y38064D01*
X-260481Y38102D01*
X-260474Y38110D01*
X-264541D01*
Y38749D01*
X-259316D01*
Y38335D01*
D02*
G37*
G36*
X-261661Y35651D02*
X-261429Y35629D01*
X-261218Y35591D01*
X-261120Y35576D01*
X-261038Y35553D01*
X-260955Y35531D01*
X-260887Y35516D01*
X-260827Y35501D01*
X-260774Y35478D01*
X-260729Y35471D01*
X-260699Y35456D01*
X-260684Y35448D01*
X-260677D01*
X-260481Y35365D01*
X-260308Y35268D01*
X-260158Y35162D01*
X-260030Y35065D01*
X-259925Y34975D01*
X-259850Y34899D01*
X-259827Y34869D01*
X-259804Y34847D01*
X-259797Y34839D01*
X-259789Y34832D01*
X-259692Y34711D01*
X-259617Y34583D01*
X-259549Y34456D01*
X-259496Y34335D01*
X-259459Y34230D01*
X-259436Y34148D01*
X-259421Y34117D01*
Y34095D01*
X-259414Y34080D01*
Y34072D01*
X-259391Y33944D01*
X-259368Y33794D01*
X-259353Y33644D01*
X-259346Y33493D01*
X-259338Y33358D01*
Y31358D01*
X-264541D01*
Y33230D01*
X-264534Y33403D01*
X-264526Y33561D01*
X-264511Y33704D01*
X-264496Y33824D01*
X-264481Y33929D01*
X-264473Y34005D01*
X-264466Y34027D01*
X-264458Y34050D01*
Y34065D01*
X-264421Y34200D01*
X-264376Y34320D01*
X-264338Y34426D01*
X-264293Y34516D01*
X-264255Y34591D01*
X-264225Y34644D01*
X-264203Y34674D01*
X-264195Y34689D01*
X-264128Y34787D01*
X-264045Y34869D01*
X-263970Y34952D01*
X-263895Y35020D01*
X-263827Y35080D01*
X-263774Y35125D01*
X-263737Y35155D01*
X-263722Y35162D01*
X-263601Y35238D01*
X-263473Y35313D01*
X-263353Y35373D01*
X-263233Y35418D01*
X-263128Y35463D01*
X-263045Y35493D01*
X-263015Y35501D01*
X-262992Y35508D01*
X-262977Y35516D01*
X-262970D01*
X-262789Y35561D01*
X-262609Y35598D01*
X-262436Y35621D01*
X-262271Y35644D01*
X-262128Y35651D01*
X-262068D01*
X-262015Y35659D01*
X-261977D01*
X-261940D01*
X-261925D01*
X-261917D01*
X-261661Y35651D01*
D02*
G37*
G36*
X-218953Y89943D02*
X-215585D01*
Y89424D01*
X-218953Y87040D01*
X-219539D01*
Y89303D01*
X-220787D01*
Y89943D01*
X-219539D01*
Y90649D01*
X-218953D01*
Y89943D01*
D02*
G37*
G36*
X-218968Y85980D02*
X-219088Y85950D01*
X-219201Y85913D01*
X-219306Y85875D01*
X-219404Y85837D01*
X-219494Y85792D01*
X-219569Y85747D01*
X-219645Y85695D01*
X-219712Y85649D01*
X-219772Y85612D01*
X-219818Y85567D01*
X-219863Y85529D01*
X-219900Y85499D01*
X-219923Y85469D01*
X-219945Y85447D01*
X-219953Y85439D01*
X-219960Y85431D01*
X-220021Y85356D01*
X-220066Y85274D01*
X-220148Y85108D01*
X-220208Y84950D01*
X-220246Y84792D01*
X-220276Y84657D01*
X-220284Y84604D01*
Y84552D01*
X-220291Y84507D01*
Y84454D01*
X-220284Y84281D01*
X-220254Y84116D01*
X-220216Y83965D01*
X-220171Y83830D01*
X-220126Y83725D01*
X-220103Y83680D01*
X-220088Y83642D01*
X-220073Y83612D01*
X-220058Y83589D01*
X-220051Y83574D01*
Y83567D01*
X-219945Y83424D01*
X-219832Y83304D01*
X-219705Y83198D01*
X-219584Y83116D01*
X-219479Y83048D01*
X-219389Y83003D01*
X-219351Y82988D01*
X-219329Y82973D01*
X-219314Y82965D01*
X-219306D01*
X-219111Y82905D01*
X-218915Y82860D01*
X-218720Y82823D01*
X-218539Y82800D01*
X-218457Y82793D01*
X-218382Y82785D01*
X-218314D01*
X-218261Y82778D01*
X-218216D01*
X-218179D01*
X-218156D01*
X-218148D01*
X-217953Y82785D01*
X-217773Y82800D01*
X-217607Y82830D01*
X-217457Y82860D01*
X-217329Y82883D01*
X-217276Y82898D01*
X-217231Y82913D01*
X-217194Y82920D01*
X-217171Y82928D01*
X-217156Y82935D01*
X-217148D01*
X-216975Y83011D01*
X-216818Y83093D01*
X-216690Y83183D01*
X-216577Y83281D01*
X-216487Y83364D01*
X-216427Y83432D01*
X-216389Y83484D01*
X-216374Y83492D01*
Y83499D01*
X-216276Y83657D01*
X-216201Y83830D01*
X-216148Y83995D01*
X-216118Y84153D01*
X-216096Y84296D01*
X-216088Y84356D01*
Y84409D01*
X-216081Y84446D01*
Y84507D01*
X-216088Y84695D01*
X-216118Y84868D01*
X-216164Y85010D01*
X-216209Y85138D01*
X-216261Y85236D01*
X-216299Y85311D01*
X-216329Y85356D01*
X-216344Y85371D01*
X-216457Y85492D01*
X-216585Y85604D01*
X-216720Y85695D01*
X-216855Y85770D01*
X-216975Y85830D01*
X-217036Y85852D01*
X-217081Y85868D01*
X-217118Y85883D01*
X-217148Y85898D01*
X-217164Y85905D01*
X-217171D01*
X-217013Y86582D01*
X-216878Y86537D01*
X-216758Y86491D01*
X-216645Y86431D01*
X-216532Y86379D01*
X-216434Y86319D01*
X-216344Y86251D01*
X-216254Y86191D01*
X-216179Y86131D01*
X-216118Y86070D01*
X-216058Y86018D01*
X-216006Y85965D01*
X-215968Y85928D01*
X-215931Y85890D01*
X-215908Y85860D01*
X-215900Y85845D01*
X-215893Y85837D01*
X-215825Y85732D01*
X-215758Y85627D01*
X-215705Y85522D01*
X-215660Y85409D01*
X-215592Y85183D01*
X-215547Y84980D01*
X-215525Y84883D01*
X-215517Y84800D01*
X-215509Y84717D01*
X-215502Y84649D01*
X-215494Y84597D01*
Y84522D01*
X-215509Y84274D01*
X-215547Y84033D01*
X-215592Y83822D01*
X-215622Y83725D01*
X-215652Y83635D01*
X-215682Y83552D01*
X-215712Y83477D01*
X-215735Y83417D01*
X-215758Y83356D01*
X-215780Y83319D01*
X-215795Y83289D01*
X-215803Y83266D01*
X-215810Y83259D01*
X-215938Y83056D01*
X-216088Y82883D01*
X-216239Y82732D01*
X-216389Y82605D01*
X-216524Y82507D01*
X-216585Y82469D01*
X-216637Y82439D01*
X-216675Y82409D01*
X-216705Y82394D01*
X-216727Y82387D01*
X-216735Y82379D01*
X-216968Y82274D01*
X-217209Y82198D01*
X-217449Y82146D01*
X-217667Y82108D01*
X-217765Y82093D01*
X-217863Y82086D01*
X-217938Y82078D01*
X-218013D01*
X-218066Y82071D01*
X-218111D01*
X-218141D01*
X-218148D01*
X-218419Y82086D01*
X-218682Y82116D01*
X-218915Y82153D01*
X-219028Y82184D01*
X-219126Y82206D01*
X-219216Y82229D01*
X-219299Y82259D01*
X-219374Y82281D01*
X-219434Y82296D01*
X-219479Y82319D01*
X-219517Y82326D01*
X-219539Y82341D01*
X-219547D01*
X-219772Y82454D01*
X-219975Y82582D01*
X-220148Y82717D01*
X-220216Y82785D01*
X-220284Y82845D01*
X-220344Y82905D01*
X-220396Y82965D01*
X-220441Y83018D01*
X-220472Y83063D01*
X-220502Y83093D01*
X-220524Y83123D01*
X-220532Y83138D01*
X-220539Y83146D01*
X-220599Y83251D01*
X-220652Y83356D01*
X-220735Y83582D01*
X-220795Y83807D01*
X-220833Y84025D01*
X-220847Y84131D01*
X-220863Y84221D01*
X-220870Y84304D01*
Y84371D01*
X-220878Y84431D01*
Y84514D01*
X-220870Y84665D01*
X-220855Y84807D01*
X-220840Y84943D01*
X-220810Y85071D01*
X-220772Y85191D01*
X-220735Y85304D01*
X-220697Y85409D01*
X-220652Y85507D01*
X-220614Y85589D01*
X-220577Y85672D01*
X-220539Y85732D01*
X-220502Y85792D01*
X-220472Y85830D01*
X-220457Y85868D01*
X-220441Y85883D01*
X-220434Y85890D01*
X-220344Y85995D01*
X-220254Y86086D01*
X-220148Y86168D01*
X-220043Y86251D01*
X-219832Y86386D01*
X-219622Y86491D01*
X-219524Y86537D01*
X-219434Y86574D01*
X-219351Y86604D01*
X-219284Y86627D01*
X-219223Y86649D01*
X-219178Y86664D01*
X-219148Y86672D01*
X-219141D01*
X-218968Y85980D01*
D02*
G37*
G36*
X-180973Y79223D02*
X-180808Y79193D01*
X-180665Y79148D01*
X-180545Y79103D01*
X-180447Y79058D01*
X-180372Y79012D01*
X-180327Y78982D01*
X-180312Y78975D01*
X-180199Y78870D01*
X-180101Y78757D01*
X-180026Y78636D01*
X-179966Y78516D01*
X-179921Y78411D01*
X-179890Y78328D01*
X-179883Y78298D01*
X-179876Y78276D01*
X-179868Y78261D01*
Y78253D01*
X-179800Y78381D01*
X-179733Y78486D01*
X-179657Y78576D01*
X-179590Y78652D01*
X-179530Y78712D01*
X-179477Y78757D01*
X-179447Y78779D01*
X-179432Y78787D01*
X-179327Y78847D01*
X-179221Y78892D01*
X-179116Y78930D01*
X-179018Y78952D01*
X-178936Y78967D01*
X-178876Y78975D01*
X-178830D01*
X-178815D01*
X-178688Y78967D01*
X-178560Y78945D01*
X-178447Y78915D01*
X-178349Y78877D01*
X-178267Y78840D01*
X-178199Y78809D01*
X-178161Y78787D01*
X-178146Y78779D01*
X-178034Y78704D01*
X-177936Y78614D01*
X-177853Y78524D01*
X-177778Y78433D01*
X-177725Y78358D01*
X-177680Y78291D01*
X-177658Y78246D01*
X-177650Y78238D01*
Y78231D01*
X-177590Y78095D01*
X-177545Y77960D01*
X-177507Y77825D01*
X-177485Y77704D01*
X-177470Y77607D01*
X-177462Y77524D01*
Y77336D01*
X-177477Y77231D01*
X-177515Y77028D01*
X-177575Y76855D01*
X-177635Y76704D01*
X-177673Y76637D01*
X-177703Y76584D01*
X-177733Y76531D01*
X-177763Y76494D01*
X-177785Y76464D01*
X-177800Y76441D01*
X-177808Y76426D01*
X-177815Y76419D01*
X-177958Y76276D01*
X-178116Y76163D01*
X-178282Y76073D01*
X-178447Y75998D01*
X-178590Y75953D01*
X-178650Y75930D01*
X-178703Y75915D01*
X-178748Y75907D01*
X-178778Y75900D01*
X-178800Y75892D01*
X-178808D01*
X-178921Y76531D01*
X-178755Y76561D01*
X-178612Y76607D01*
X-178492Y76659D01*
X-178394Y76712D01*
X-178319Y76764D01*
X-178267Y76810D01*
X-178229Y76840D01*
X-178221Y76847D01*
X-178146Y76945D01*
X-178086Y77050D01*
X-178048Y77148D01*
X-178018Y77246D01*
X-178003Y77336D01*
X-177988Y77403D01*
Y77464D01*
X-177996Y77599D01*
X-178026Y77719D01*
X-178064Y77825D01*
X-178101Y77915D01*
X-178146Y77982D01*
X-178184Y78035D01*
X-178214Y78073D01*
X-178221Y78080D01*
X-178312Y78163D01*
X-178409Y78223D01*
X-178507Y78261D01*
X-178597Y78291D01*
X-178680Y78306D01*
X-178740Y78321D01*
X-178785D01*
X-178793D01*
X-178800D01*
X-178883D01*
X-178958Y78306D01*
X-179086Y78268D01*
X-179199Y78215D01*
X-179296Y78155D01*
X-179364Y78095D01*
X-179417Y78043D01*
X-179447Y78005D01*
X-179454Y77997D01*
Y77990D01*
X-179522Y77862D01*
X-179575Y77742D01*
X-179612Y77614D01*
X-179635Y77501D01*
X-179650Y77403D01*
X-179665Y77321D01*
Y77223D01*
X-179657Y77193D01*
Y77155D01*
X-180221Y77080D01*
X-180199Y77178D01*
X-180184Y77268D01*
X-180169Y77343D01*
X-180161Y77411D01*
X-180154Y77464D01*
Y77531D01*
X-180169Y77689D01*
X-180199Y77832D01*
X-180244Y77960D01*
X-180296Y78065D01*
X-180349Y78148D01*
X-180394Y78208D01*
X-180424Y78246D01*
X-180439Y78261D01*
X-180552Y78358D01*
X-180672Y78433D01*
X-180793Y78486D01*
X-180913Y78516D01*
X-181011Y78539D01*
X-181093Y78546D01*
X-181124Y78554D01*
X-181146D01*
X-181161D01*
X-181169D01*
X-181334Y78539D01*
X-181484Y78501D01*
X-181612Y78456D01*
X-181725Y78396D01*
X-181815Y78336D01*
X-181883Y78291D01*
X-181928Y78253D01*
X-181943Y78238D01*
X-182048Y78118D01*
X-182124Y77990D01*
X-182176Y77862D01*
X-182214Y77742D01*
X-182236Y77637D01*
X-182244Y77554D01*
X-182251Y77524D01*
Y77479D01*
X-182244Y77343D01*
X-182214Y77216D01*
X-182176Y77103D01*
X-182131Y77013D01*
X-182093Y76937D01*
X-182056Y76877D01*
X-182026Y76847D01*
X-182018Y76832D01*
X-181913Y76742D01*
X-181793Y76667D01*
X-181665Y76599D01*
X-181530Y76546D01*
X-181417Y76509D01*
X-181364Y76494D01*
X-181319Y76486D01*
X-181281Y76479D01*
X-181251Y76471D01*
X-181236Y76464D01*
X-181229D01*
X-181311Y75825D01*
X-181432Y75840D01*
X-181544Y75862D01*
X-181755Y75930D01*
X-181936Y76013D01*
X-182011Y76058D01*
X-182086Y76103D01*
X-182153Y76148D01*
X-182206Y76193D01*
X-182259Y76231D01*
X-182296Y76268D01*
X-182327Y76291D01*
X-182349Y76313D01*
X-182364Y76328D01*
X-182372Y76336D01*
X-182439Y76426D01*
X-182507Y76516D01*
X-182560Y76607D01*
X-182605Y76704D01*
X-182680Y76892D01*
X-182725Y77073D01*
X-182740Y77155D01*
X-182755Y77231D01*
X-182763Y77298D01*
X-182770Y77358D01*
X-182778Y77403D01*
Y77471D01*
X-182770Y77614D01*
X-182755Y77742D01*
X-182733Y77870D01*
X-182702Y77990D01*
X-182665Y78103D01*
X-182627Y78200D01*
X-182582Y78298D01*
X-182537Y78381D01*
X-182499Y78464D01*
X-182454Y78531D01*
X-182417Y78591D01*
X-182379Y78636D01*
X-182349Y78674D01*
X-182327Y78704D01*
X-182311Y78719D01*
X-182304Y78727D01*
X-182214Y78817D01*
X-182116Y78892D01*
X-182018Y78960D01*
X-181921Y79020D01*
X-181830Y79065D01*
X-181733Y79110D01*
X-181552Y79170D01*
X-181469Y79185D01*
X-181394Y79200D01*
X-181327Y79215D01*
X-181266Y79223D01*
X-181221Y79230D01*
X-181184D01*
X-181161D01*
X-181154D01*
X-180973Y79223D01*
D02*
G37*
G36*
X-180868Y74539D02*
X-180988Y74509D01*
X-181101Y74471D01*
X-181206Y74434D01*
X-181304Y74396D01*
X-181394Y74351D01*
X-181469Y74306D01*
X-181544Y74253D01*
X-181612Y74208D01*
X-181672Y74171D01*
X-181717Y74125D01*
X-181763Y74088D01*
X-181800Y74058D01*
X-181823Y74028D01*
X-181845Y74005D01*
X-181853Y73998D01*
X-181860Y73990D01*
X-181921Y73915D01*
X-181966Y73832D01*
X-182048Y73667D01*
X-182108Y73509D01*
X-182146Y73351D01*
X-182176Y73216D01*
X-182184Y73163D01*
Y73110D01*
X-182191Y73065D01*
Y73013D01*
X-182184Y72840D01*
X-182153Y72674D01*
X-182116Y72524D01*
X-182071Y72389D01*
X-182026Y72284D01*
X-182003Y72238D01*
X-181988Y72201D01*
X-181973Y72171D01*
X-181958Y72148D01*
X-181950Y72133D01*
Y72126D01*
X-181845Y71983D01*
X-181733Y71863D01*
X-181605Y71757D01*
X-181484Y71674D01*
X-181379Y71607D01*
X-181289Y71562D01*
X-181251Y71547D01*
X-181229Y71532D01*
X-181214Y71524D01*
X-181206D01*
X-181011Y71464D01*
X-180815Y71419D01*
X-180620Y71381D01*
X-180439Y71359D01*
X-180357Y71351D01*
X-180282Y71344D01*
X-180214D01*
X-180161Y71336D01*
X-180116D01*
X-180079D01*
X-180056D01*
X-180048D01*
X-179853Y71344D01*
X-179673Y71359D01*
X-179507Y71389D01*
X-179357Y71419D01*
X-179229Y71441D01*
X-179176Y71456D01*
X-179131Y71472D01*
X-179093Y71479D01*
X-179071Y71487D01*
X-179056Y71494D01*
X-179048D01*
X-178876Y71569D01*
X-178718Y71652D01*
X-178590Y71742D01*
X-178477Y71840D01*
X-178387Y71923D01*
X-178327Y71990D01*
X-178289Y72043D01*
X-178274Y72050D01*
Y72058D01*
X-178176Y72216D01*
X-178101Y72389D01*
X-178048Y72554D01*
X-178018Y72712D01*
X-177996Y72855D01*
X-177988Y72915D01*
Y72968D01*
X-177981Y73005D01*
Y73065D01*
X-177988Y73253D01*
X-178018Y73426D01*
X-178064Y73569D01*
X-178109Y73697D01*
X-178161Y73795D01*
X-178199Y73870D01*
X-178229Y73915D01*
X-178244Y73930D01*
X-178357Y74050D01*
X-178485Y74163D01*
X-178620Y74253D01*
X-178755Y74328D01*
X-178876Y74389D01*
X-178936Y74411D01*
X-178981Y74426D01*
X-179018Y74441D01*
X-179048Y74456D01*
X-179063Y74464D01*
X-179071D01*
X-178913Y75141D01*
X-178778Y75095D01*
X-178657Y75050D01*
X-178545Y74990D01*
X-178432Y74938D01*
X-178334Y74877D01*
X-178244Y74810D01*
X-178154Y74749D01*
X-178079Y74689D01*
X-178018Y74629D01*
X-177958Y74577D01*
X-177906Y74524D01*
X-177868Y74486D01*
X-177831Y74449D01*
X-177808Y74419D01*
X-177800Y74404D01*
X-177793Y74396D01*
X-177725Y74291D01*
X-177658Y74186D01*
X-177605Y74080D01*
X-177560Y73968D01*
X-177492Y73742D01*
X-177447Y73539D01*
X-177425Y73441D01*
X-177417Y73359D01*
X-177409Y73276D01*
X-177402Y73208D01*
X-177394Y73156D01*
Y73080D01*
X-177409Y72832D01*
X-177447Y72592D01*
X-177492Y72381D01*
X-177522Y72284D01*
X-177552Y72193D01*
X-177582Y72111D01*
X-177612Y72035D01*
X-177635Y71975D01*
X-177658Y71915D01*
X-177680Y71877D01*
X-177695Y71847D01*
X-177703Y71825D01*
X-177710Y71817D01*
X-177838Y71614D01*
X-177988Y71441D01*
X-178139Y71291D01*
X-178289Y71163D01*
X-178424Y71066D01*
X-178485Y71028D01*
X-178537Y70998D01*
X-178575Y70968D01*
X-178605Y70953D01*
X-178627Y70945D01*
X-178635Y70938D01*
X-178868Y70832D01*
X-179109Y70757D01*
X-179349Y70705D01*
X-179567Y70667D01*
X-179665Y70652D01*
X-179763Y70644D01*
X-179838Y70637D01*
X-179913D01*
X-179966Y70629D01*
X-180011D01*
X-180041D01*
X-180048D01*
X-180319Y70644D01*
X-180582Y70675D01*
X-180815Y70712D01*
X-180928Y70742D01*
X-181026Y70765D01*
X-181116Y70787D01*
X-181199Y70817D01*
X-181274Y70840D01*
X-181334Y70855D01*
X-181379Y70878D01*
X-181417Y70885D01*
X-181439Y70900D01*
X-181447D01*
X-181672Y71013D01*
X-181875Y71141D01*
X-182048Y71276D01*
X-182116Y71344D01*
X-182184Y71404D01*
X-182244Y71464D01*
X-182296Y71524D01*
X-182341Y71577D01*
X-182372Y71622D01*
X-182402Y71652D01*
X-182424Y71682D01*
X-182432Y71697D01*
X-182439Y71705D01*
X-182499Y71810D01*
X-182552Y71915D01*
X-182635Y72141D01*
X-182695Y72366D01*
X-182733Y72584D01*
X-182747Y72689D01*
X-182763Y72780D01*
X-182770Y72862D01*
Y72930D01*
X-182778Y72990D01*
Y73073D01*
X-182770Y73223D01*
X-182755Y73366D01*
X-182740Y73502D01*
X-182710Y73629D01*
X-182672Y73750D01*
X-182635Y73862D01*
X-182597Y73968D01*
X-182552Y74065D01*
X-182514Y74148D01*
X-182477Y74231D01*
X-182439Y74291D01*
X-182402Y74351D01*
X-182372Y74389D01*
X-182356Y74426D01*
X-182341Y74441D01*
X-182334Y74449D01*
X-182244Y74554D01*
X-182153Y74644D01*
X-182048Y74727D01*
X-181943Y74810D01*
X-181733Y74945D01*
X-181522Y75050D01*
X-181424Y75095D01*
X-181334Y75133D01*
X-181251Y75163D01*
X-181184Y75186D01*
X-181124Y75208D01*
X-181078Y75223D01*
X-181048Y75231D01*
X-181041D01*
X-180868Y74539D01*
D02*
G37*
G36*
X-199851Y88070D02*
X-199723Y88161D01*
X-199670Y88206D01*
X-199618Y88243D01*
X-199573Y88281D01*
X-199543Y88311D01*
X-199520Y88334D01*
X-199513Y88341D01*
X-199475Y88379D01*
X-199437Y88424D01*
X-199340Y88529D01*
X-199227Y88649D01*
X-199114Y88777D01*
X-199016Y88897D01*
X-198971Y88950D01*
X-198926Y88995D01*
X-198896Y89033D01*
X-198873Y89063D01*
X-198858Y89078D01*
X-198851Y89085D01*
X-198746Y89206D01*
X-198648Y89326D01*
X-198550Y89431D01*
X-198467Y89529D01*
X-198385Y89619D01*
X-198310Y89694D01*
X-198242Y89770D01*
X-198182Y89830D01*
X-198122Y89890D01*
X-198076Y89935D01*
X-198039Y89973D01*
X-198001Y90010D01*
X-197956Y90048D01*
X-197941Y90063D01*
X-197813Y90168D01*
X-197701Y90258D01*
X-197588Y90333D01*
X-197498Y90394D01*
X-197415Y90439D01*
X-197355Y90469D01*
X-197317Y90484D01*
X-197302Y90491D01*
X-197189Y90536D01*
X-197076Y90567D01*
X-196971Y90597D01*
X-196881Y90612D01*
X-196798Y90619D01*
X-196738Y90627D01*
X-196701D01*
X-196686D01*
X-196573Y90619D01*
X-196468Y90604D01*
X-196362Y90589D01*
X-196272Y90559D01*
X-196092Y90484D01*
X-195949Y90409D01*
X-195881Y90364D01*
X-195828Y90326D01*
X-195776Y90288D01*
X-195738Y90251D01*
X-195708Y90221D01*
X-195678Y90206D01*
X-195671Y90191D01*
X-195663Y90183D01*
X-195588Y90100D01*
X-195520Y90010D01*
X-195468Y89912D01*
X-195422Y89815D01*
X-195347Y89619D01*
X-195295Y89424D01*
X-195280Y89341D01*
X-195265Y89258D01*
X-195257Y89183D01*
X-195250Y89123D01*
X-195242Y89070D01*
Y88995D01*
X-195250Y88860D01*
X-195257Y88732D01*
X-195280Y88612D01*
X-195302Y88499D01*
X-195332Y88394D01*
X-195362Y88296D01*
X-195400Y88206D01*
X-195438Y88123D01*
X-195475Y88048D01*
X-195513Y87988D01*
X-195543Y87935D01*
X-195573Y87890D01*
X-195595Y87852D01*
X-195618Y87830D01*
X-195625Y87815D01*
X-195633Y87807D01*
X-195708Y87732D01*
X-195791Y87664D01*
X-195881Y87597D01*
X-195971Y87544D01*
X-196152Y87454D01*
X-196332Y87394D01*
X-196415Y87371D01*
X-196498Y87349D01*
X-196565Y87334D01*
X-196625Y87319D01*
X-196678Y87311D01*
X-196716D01*
X-196738Y87303D01*
X-196746D01*
X-196813Y87958D01*
X-196640Y87973D01*
X-196490Y88003D01*
X-196355Y88048D01*
X-196250Y88101D01*
X-196159Y88146D01*
X-196099Y88191D01*
X-196062Y88221D01*
X-196047Y88236D01*
X-195956Y88349D01*
X-195889Y88469D01*
X-195836Y88597D01*
X-195806Y88709D01*
X-195783Y88815D01*
X-195776Y88905D01*
X-195768Y88935D01*
Y88980D01*
X-195776Y89138D01*
X-195806Y89281D01*
X-195851Y89401D01*
X-195896Y89506D01*
X-195949Y89589D01*
X-195986Y89642D01*
X-196016Y89679D01*
X-196031Y89694D01*
X-196137Y89785D01*
X-196242Y89852D01*
X-196347Y89905D01*
X-196453Y89935D01*
X-196535Y89958D01*
X-196610Y89965D01*
X-196656Y89973D01*
X-196663D01*
X-196670D01*
X-196806Y89958D01*
X-196949Y89928D01*
X-197076Y89875D01*
X-197197Y89822D01*
X-197295Y89762D01*
X-197377Y89709D01*
X-197407Y89694D01*
X-197430Y89679D01*
X-197437Y89664D01*
X-197445D01*
X-197528Y89604D01*
X-197610Y89529D01*
X-197701Y89446D01*
X-197791Y89356D01*
X-197971Y89168D01*
X-198152Y88980D01*
X-198234Y88882D01*
X-198310Y88800D01*
X-198377Y88717D01*
X-198437Y88649D01*
X-198482Y88597D01*
X-198520Y88552D01*
X-198543Y88521D01*
X-198550Y88514D01*
X-198708Y88326D01*
X-198858Y88153D01*
X-198994Y88010D01*
X-199107Y87898D01*
X-199204Y87800D01*
X-199272Y87732D01*
X-199317Y87695D01*
X-199324Y87680D01*
X-199332D01*
X-199460Y87574D01*
X-199580Y87492D01*
X-199701Y87416D01*
X-199806Y87356D01*
X-199896Y87311D01*
X-199964Y87281D01*
X-200009Y87266D01*
X-200016Y87258D01*
X-200024D01*
X-200107Y87228D01*
X-200182Y87213D01*
X-200257Y87198D01*
X-200324Y87191D01*
X-200385Y87183D01*
X-200430D01*
X-200460D01*
X-200467D01*
Y90634D01*
X-199851D01*
Y88070D01*
D02*
G37*
G36*
X-198648Y85995D02*
X-198768Y85965D01*
X-198881Y85928D01*
X-198986Y85890D01*
X-199084Y85852D01*
X-199174Y85807D01*
X-199249Y85762D01*
X-199324Y85710D01*
X-199392Y85665D01*
X-199452Y85627D01*
X-199498Y85582D01*
X-199543Y85544D01*
X-199580Y85514D01*
X-199603Y85484D01*
X-199625Y85462D01*
X-199633Y85454D01*
X-199640Y85447D01*
X-199701Y85371D01*
X-199746Y85289D01*
X-199828Y85123D01*
X-199888Y84965D01*
X-199926Y84807D01*
X-199956Y84672D01*
X-199964Y84620D01*
Y84567D01*
X-199971Y84522D01*
Y84469D01*
X-199964Y84296D01*
X-199933Y84131D01*
X-199896Y83980D01*
X-199851Y83845D01*
X-199806Y83740D01*
X-199783Y83695D01*
X-199768Y83657D01*
X-199753Y83627D01*
X-199738Y83604D01*
X-199730Y83589D01*
Y83582D01*
X-199625Y83439D01*
X-199513Y83319D01*
X-199385Y83214D01*
X-199264Y83131D01*
X-199159Y83063D01*
X-199069Y83018D01*
X-199031Y83003D01*
X-199009Y82988D01*
X-198994Y82980D01*
X-198986D01*
X-198791Y82920D01*
X-198595Y82875D01*
X-198400Y82838D01*
X-198219Y82815D01*
X-198137Y82808D01*
X-198062Y82800D01*
X-197994D01*
X-197941Y82793D01*
X-197896D01*
X-197859D01*
X-197836D01*
X-197828D01*
X-197633Y82800D01*
X-197453Y82815D01*
X-197287Y82845D01*
X-197137Y82875D01*
X-197009Y82898D01*
X-196956Y82913D01*
X-196911Y82928D01*
X-196873Y82935D01*
X-196851Y82943D01*
X-196836Y82950D01*
X-196828D01*
X-196656Y83026D01*
X-196498Y83108D01*
X-196370Y83198D01*
X-196257Y83296D01*
X-196167Y83379D01*
X-196107Y83447D01*
X-196069Y83499D01*
X-196054Y83507D01*
Y83514D01*
X-195956Y83672D01*
X-195881Y83845D01*
X-195828Y84010D01*
X-195798Y84168D01*
X-195776Y84311D01*
X-195768Y84371D01*
Y84424D01*
X-195761Y84462D01*
Y84522D01*
X-195768Y84710D01*
X-195798Y84883D01*
X-195844Y85026D01*
X-195889Y85153D01*
X-195941Y85251D01*
X-195979Y85326D01*
X-196009Y85371D01*
X-196024Y85386D01*
X-196137Y85507D01*
X-196265Y85619D01*
X-196400Y85710D01*
X-196535Y85785D01*
X-196656Y85845D01*
X-196716Y85868D01*
X-196761Y85883D01*
X-196798Y85898D01*
X-196828Y85913D01*
X-196843Y85920D01*
X-196851D01*
X-196693Y86597D01*
X-196558Y86552D01*
X-196437Y86507D01*
X-196325Y86446D01*
X-196212Y86394D01*
X-196114Y86334D01*
X-196024Y86266D01*
X-195934Y86206D01*
X-195859Y86146D01*
X-195798Y86086D01*
X-195738Y86033D01*
X-195686Y85980D01*
X-195648Y85943D01*
X-195611Y85905D01*
X-195588Y85875D01*
X-195580Y85860D01*
X-195573Y85852D01*
X-195505Y85747D01*
X-195438Y85642D01*
X-195385Y85537D01*
X-195340Y85424D01*
X-195272Y85198D01*
X-195227Y84995D01*
X-195205Y84898D01*
X-195197Y84815D01*
X-195189Y84732D01*
X-195182Y84665D01*
X-195174Y84612D01*
Y84537D01*
X-195189Y84289D01*
X-195227Y84048D01*
X-195272Y83838D01*
X-195302Y83740D01*
X-195332Y83650D01*
X-195362Y83567D01*
X-195392Y83492D01*
X-195415Y83432D01*
X-195438Y83371D01*
X-195460Y83334D01*
X-195475Y83304D01*
X-195483Y83281D01*
X-195490Y83274D01*
X-195618Y83071D01*
X-195768Y82898D01*
X-195919Y82747D01*
X-196069Y82620D01*
X-196204Y82522D01*
X-196265Y82484D01*
X-196317Y82454D01*
X-196355Y82424D01*
X-196385Y82409D01*
X-196407Y82402D01*
X-196415Y82394D01*
X-196648Y82289D01*
X-196889Y82214D01*
X-197129Y82161D01*
X-197347Y82123D01*
X-197445Y82108D01*
X-197543Y82101D01*
X-197618Y82093D01*
X-197693D01*
X-197746Y82086D01*
X-197791D01*
X-197821D01*
X-197828D01*
X-198099Y82101D01*
X-198362Y82131D01*
X-198595Y82169D01*
X-198708Y82198D01*
X-198806Y82221D01*
X-198896Y82244D01*
X-198979Y82274D01*
X-199054Y82296D01*
X-199114Y82311D01*
X-199159Y82334D01*
X-199197Y82341D01*
X-199219Y82356D01*
X-199227D01*
X-199452Y82469D01*
X-199655Y82597D01*
X-199828Y82732D01*
X-199896Y82800D01*
X-199964Y82860D01*
X-200024Y82920D01*
X-200076Y82980D01*
X-200121Y83033D01*
X-200152Y83078D01*
X-200182Y83108D01*
X-200204Y83138D01*
X-200212Y83153D01*
X-200219Y83161D01*
X-200279Y83266D01*
X-200332Y83371D01*
X-200415Y83597D01*
X-200475Y83822D01*
X-200513Y84040D01*
X-200527Y84146D01*
X-200543Y84236D01*
X-200550Y84319D01*
Y84386D01*
X-200558Y84446D01*
Y84529D01*
X-200550Y84680D01*
X-200535Y84823D01*
X-200520Y84958D01*
X-200490Y85086D01*
X-200452Y85206D01*
X-200415Y85319D01*
X-200377Y85424D01*
X-200332Y85522D01*
X-200294Y85604D01*
X-200257Y85687D01*
X-200219Y85747D01*
X-200182Y85807D01*
X-200152Y85845D01*
X-200137Y85883D01*
X-200121Y85898D01*
X-200114Y85905D01*
X-200024Y86010D01*
X-199933Y86101D01*
X-199828Y86183D01*
X-199723Y86266D01*
X-199513Y86401D01*
X-199302Y86507D01*
X-199204Y86552D01*
X-199114Y86589D01*
X-199031Y86619D01*
X-198964Y86642D01*
X-198904Y86664D01*
X-198858Y86679D01*
X-198828Y86687D01*
X-198821D01*
X-198648Y85995D01*
D02*
G37*
G36*
X-166032Y78313D02*
X-166160Y78238D01*
X-166280Y78155D01*
X-166401Y78058D01*
X-166506Y77967D01*
X-166596Y77877D01*
X-166671Y77810D01*
X-166694Y77779D01*
X-166716Y77757D01*
X-166724Y77749D01*
X-166731Y77742D01*
X-166859Y77584D01*
X-166979Y77426D01*
X-167085Y77276D01*
X-167167Y77125D01*
X-167243Y76997D01*
X-167273Y76945D01*
X-167295Y76900D01*
X-167318Y76862D01*
X-167325Y76832D01*
X-167340Y76817D01*
Y76810D01*
X-167957D01*
X-167912Y76922D01*
X-167859Y77035D01*
X-167806Y77148D01*
X-167754Y77253D01*
X-167709Y77343D01*
X-167671Y77419D01*
X-167641Y77464D01*
X-167633Y77471D01*
Y77479D01*
X-167551Y77614D01*
X-167468Y77734D01*
X-167393Y77840D01*
X-167325Y77922D01*
X-167273Y77997D01*
X-167227Y78043D01*
X-167197Y78080D01*
X-167190Y78088D01*
X-171257D01*
Y78727D01*
X-166032D01*
Y78313D01*
D02*
G37*
G36*
X-169438Y75043D02*
X-169558Y75013D01*
X-169671Y74975D01*
X-169776Y74938D01*
X-169874Y74900D01*
X-169964Y74855D01*
X-170039Y74810D01*
X-170114Y74757D01*
X-170182Y74712D01*
X-170242Y74674D01*
X-170287Y74629D01*
X-170333Y74592D01*
X-170370Y74562D01*
X-170393Y74531D01*
X-170415Y74509D01*
X-170423Y74501D01*
X-170430Y74494D01*
X-170490Y74419D01*
X-170536Y74336D01*
X-170618Y74171D01*
X-170678Y74013D01*
X-170716Y73855D01*
X-170746Y73720D01*
X-170754Y73667D01*
Y73614D01*
X-170761Y73569D01*
Y73517D01*
X-170754Y73344D01*
X-170723Y73178D01*
X-170686Y73028D01*
X-170641Y72892D01*
X-170596Y72787D01*
X-170573Y72742D01*
X-170558Y72705D01*
X-170543Y72674D01*
X-170528Y72652D01*
X-170520Y72637D01*
Y72629D01*
X-170415Y72487D01*
X-170303Y72366D01*
X-170175Y72261D01*
X-170054Y72178D01*
X-169949Y72111D01*
X-169859Y72066D01*
X-169821Y72050D01*
X-169799Y72035D01*
X-169784Y72028D01*
X-169776D01*
X-169581Y71968D01*
X-169385Y71923D01*
X-169190Y71885D01*
X-169009Y71863D01*
X-168927Y71855D01*
X-168852Y71847D01*
X-168784D01*
X-168731Y71840D01*
X-168686D01*
X-168648D01*
X-168626D01*
X-168618D01*
X-168423Y71847D01*
X-168242Y71863D01*
X-168077Y71892D01*
X-167927Y71923D01*
X-167799Y71945D01*
X-167746Y71960D01*
X-167701Y71975D01*
X-167663Y71983D01*
X-167641Y71990D01*
X-167626Y71998D01*
X-167618D01*
X-167446Y72073D01*
X-167288Y72156D01*
X-167160Y72246D01*
X-167047Y72344D01*
X-166957Y72426D01*
X-166897Y72494D01*
X-166859Y72547D01*
X-166844Y72554D01*
Y72562D01*
X-166746Y72720D01*
X-166671Y72892D01*
X-166618Y73058D01*
X-166588Y73216D01*
X-166566Y73359D01*
X-166558Y73419D01*
Y73471D01*
X-166551Y73509D01*
Y73569D01*
X-166558Y73757D01*
X-166588Y73930D01*
X-166633Y74073D01*
X-166679Y74201D01*
X-166731Y74298D01*
X-166769Y74374D01*
X-166799Y74419D01*
X-166814Y74434D01*
X-166927Y74554D01*
X-167055Y74667D01*
X-167190Y74757D01*
X-167325Y74832D01*
X-167446Y74892D01*
X-167506Y74915D01*
X-167551Y74930D01*
X-167588Y74945D01*
X-167618Y74960D01*
X-167633Y74968D01*
X-167641D01*
X-167483Y75644D01*
X-167348Y75599D01*
X-167227Y75554D01*
X-167115Y75494D01*
X-167002Y75441D01*
X-166904Y75381D01*
X-166814Y75313D01*
X-166724Y75253D01*
X-166649Y75193D01*
X-166588Y75133D01*
X-166528Y75080D01*
X-166476Y75028D01*
X-166438Y74990D01*
X-166401Y74953D01*
X-166378Y74922D01*
X-166370Y74907D01*
X-166363Y74900D01*
X-166295Y74795D01*
X-166227Y74689D01*
X-166175Y74584D01*
X-166130Y74471D01*
X-166062Y74246D01*
X-166017Y74043D01*
X-165994Y73945D01*
X-165987Y73862D01*
X-165979Y73780D01*
X-165972Y73712D01*
X-165964Y73659D01*
Y73584D01*
X-165979Y73336D01*
X-166017Y73095D01*
X-166062Y72885D01*
X-166092Y72787D01*
X-166122Y72697D01*
X-166152Y72614D01*
X-166182Y72539D01*
X-166205Y72479D01*
X-166227Y72419D01*
X-166250Y72381D01*
X-166265Y72351D01*
X-166273Y72329D01*
X-166280Y72321D01*
X-166408Y72118D01*
X-166558Y71945D01*
X-166709Y71795D01*
X-166859Y71667D01*
X-166994Y71569D01*
X-167055Y71532D01*
X-167107Y71502D01*
X-167145Y71472D01*
X-167175Y71456D01*
X-167197Y71449D01*
X-167205Y71441D01*
X-167438Y71336D01*
X-167679Y71261D01*
X-167919Y71208D01*
X-168137Y71171D01*
X-168235Y71156D01*
X-168333Y71148D01*
X-168408Y71141D01*
X-168483D01*
X-168536Y71133D01*
X-168581D01*
X-168611D01*
X-168618D01*
X-168889Y71148D01*
X-169152Y71178D01*
X-169385Y71216D01*
X-169498Y71246D01*
X-169596Y71269D01*
X-169686Y71291D01*
X-169769Y71321D01*
X-169844Y71344D01*
X-169904Y71359D01*
X-169949Y71381D01*
X-169987Y71389D01*
X-170009Y71404D01*
X-170017D01*
X-170242Y71517D01*
X-170445Y71644D01*
X-170618Y71780D01*
X-170686Y71847D01*
X-170754Y71908D01*
X-170814Y71968D01*
X-170866Y72028D01*
X-170912Y72080D01*
X-170942Y72126D01*
X-170972Y72156D01*
X-170994Y72186D01*
X-171002Y72201D01*
X-171009Y72208D01*
X-171069Y72314D01*
X-171122Y72419D01*
X-171205Y72644D01*
X-171265Y72870D01*
X-171303Y73088D01*
X-171318Y73193D01*
X-171332Y73283D01*
X-171340Y73366D01*
Y73434D01*
X-171348Y73494D01*
Y73577D01*
X-171340Y73727D01*
X-171325Y73870D01*
X-171310Y74005D01*
X-171280Y74133D01*
X-171242Y74253D01*
X-171205Y74366D01*
X-171167Y74471D01*
X-171122Y74569D01*
X-171084Y74652D01*
X-171047Y74735D01*
X-171009Y74795D01*
X-170972Y74855D01*
X-170942Y74892D01*
X-170926Y74930D01*
X-170912Y74945D01*
X-170904Y74953D01*
X-170814Y75058D01*
X-170723Y75148D01*
X-170618Y75231D01*
X-170513Y75313D01*
X-170303Y75449D01*
X-170092Y75554D01*
X-169994Y75599D01*
X-169904Y75637D01*
X-169821Y75667D01*
X-169754Y75689D01*
X-169694Y75712D01*
X-169648Y75727D01*
X-169618Y75734D01*
X-169611D01*
X-169438Y75043D01*
D02*
G37*
%LPC*%
G36*
X-234347Y82348D02*
X-235986D01*
X-236189Y82341D01*
X-236362Y82311D01*
X-236512Y82273D01*
X-236625Y82228D01*
X-236723Y82183D01*
X-236783Y82146D01*
X-236821Y82115D01*
X-236836Y82108D01*
X-236926Y82010D01*
X-236994Y81912D01*
X-237039Y81807D01*
X-237076Y81717D01*
X-237091Y81627D01*
X-237099Y81559D01*
X-237106Y81514D01*
Y81507D01*
Y81499D01*
X-237099Y81409D01*
X-237084Y81319D01*
X-237061Y81243D01*
X-237039Y81176D01*
X-237008Y81116D01*
X-236986Y81070D01*
X-236971Y81040D01*
X-236963Y81033D01*
X-236911Y80958D01*
X-236843Y80890D01*
X-236775Y80837D01*
X-236708Y80792D01*
X-236648Y80762D01*
X-236602Y80740D01*
X-236572Y80725D01*
X-236557Y80717D01*
X-236452Y80687D01*
X-236332Y80664D01*
X-236212Y80649D01*
X-236091Y80642D01*
X-235986Y80634D01*
X-235896Y80627D01*
X-234347D01*
Y82348D01*
D02*
G37*
G36*
X-178231Y-51135D02*
X-179780D01*
Y-52856D01*
X-178141D01*
X-177938Y-52849D01*
X-177765Y-52819D01*
X-177614Y-52781D01*
X-177502Y-52736D01*
X-177404Y-52691D01*
X-177344Y-52653D01*
X-177306Y-52623D01*
X-177291Y-52616D01*
X-177201Y-52518D01*
X-177133Y-52420D01*
X-177088Y-52315D01*
X-177050Y-52225D01*
X-177035Y-52134D01*
X-177028Y-52067D01*
X-177020Y-52022D01*
Y-52014D01*
Y-52007D01*
X-177028Y-51916D01*
X-177043Y-51826D01*
X-177066Y-51751D01*
X-177088Y-51683D01*
X-177118Y-51623D01*
X-177141Y-51578D01*
X-177156Y-51548D01*
X-177163Y-51541D01*
X-177216Y-51465D01*
X-177283Y-51398D01*
X-177351Y-51345D01*
X-177419Y-51300D01*
X-177479Y-51270D01*
X-177524Y-51247D01*
X-177554Y-51232D01*
X-177569Y-51225D01*
X-177675Y-51195D01*
X-177795Y-51172D01*
X-177915Y-51157D01*
X-178035Y-51150D01*
X-178141Y-51142D01*
X-178231Y-51135D01*
D02*
G37*
G36*
X-240418Y38804D02*
X-241651D01*
X-241817Y38788D01*
X-241944Y38781D01*
X-242057Y38766D01*
X-242140Y38751D01*
X-242193Y38743D01*
X-242230Y38728D01*
X-242238D01*
X-242320Y38698D01*
X-242396Y38653D01*
X-242456Y38608D01*
X-242508Y38563D01*
X-242546Y38525D01*
X-242576Y38488D01*
X-242591Y38465D01*
X-242598Y38458D01*
X-242644Y38382D01*
X-242674Y38307D01*
X-242696Y38232D01*
X-242711Y38157D01*
X-242719Y38097D01*
X-242726Y38052D01*
Y38022D01*
Y38007D01*
X-242719Y37909D01*
X-242704Y37819D01*
X-242681Y37743D01*
X-242659Y37683D01*
X-242636Y37631D01*
X-242614Y37586D01*
X-242598Y37563D01*
X-242591Y37555D01*
X-242538Y37495D01*
X-242471Y37435D01*
X-242403Y37390D01*
X-242343Y37360D01*
X-242283Y37330D01*
X-242238Y37307D01*
X-242208Y37300D01*
X-242193Y37292D01*
X-242110Y37277D01*
X-242005Y37262D01*
X-241899Y37255D01*
X-241794Y37247D01*
X-241696Y37240D01*
X-240418D01*
Y38804D01*
D02*
G37*
G36*
Y36623D02*
X-241787D01*
X-241944Y36608D01*
X-242072Y36593D01*
X-242178Y36578D01*
X-242260Y36563D01*
X-242328Y36548D01*
X-242358Y36541D01*
X-242373Y36533D01*
X-242471Y36495D01*
X-242553Y36450D01*
X-242629Y36398D01*
X-242689Y36345D01*
X-242734Y36300D01*
X-242764Y36262D01*
X-242787Y36232D01*
X-242794Y36225D01*
X-242847Y36142D01*
X-242884Y36059D01*
X-242914Y35977D01*
X-242929Y35902D01*
X-242944Y35834D01*
X-242952Y35774D01*
Y35744D01*
Y35729D01*
X-242944Y35638D01*
X-242937Y35548D01*
X-242922Y35473D01*
X-242899Y35413D01*
X-242877Y35360D01*
X-242862Y35315D01*
X-242854Y35292D01*
X-242847Y35285D01*
X-242801Y35217D01*
X-242764Y35157D01*
X-242711Y35112D01*
X-242674Y35067D01*
X-242636Y35037D01*
X-242606Y35014D01*
X-242584Y34999D01*
X-242576Y34992D01*
X-242448Y34932D01*
X-242320Y34887D01*
X-242268Y34871D01*
X-242223Y34864D01*
X-242193Y34856D01*
X-242185D01*
X-242125Y34849D01*
X-242057Y34841D01*
X-241899Y34834D01*
X-240418D01*
Y36623D01*
D02*
G37*
G36*
X-261827Y34952D02*
X-261864D01*
X-261895D01*
X-261902D01*
X-262113Y34944D01*
X-262308Y34929D01*
X-262481Y34907D01*
X-262631Y34884D01*
X-262691Y34869D01*
X-262744Y34854D01*
X-262797Y34839D01*
X-262834Y34832D01*
X-262864Y34824D01*
X-262887Y34817D01*
X-262902Y34809D01*
X-262910D01*
X-263052Y34756D01*
X-263180Y34696D01*
X-263293Y34629D01*
X-263391Y34569D01*
X-263466Y34516D01*
X-263519Y34471D01*
X-263549Y34441D01*
X-263564Y34433D01*
X-263624Y34358D01*
X-263676Y34283D01*
X-263722Y34208D01*
X-263767Y34132D01*
X-263797Y34065D01*
X-263819Y34012D01*
X-263827Y33974D01*
X-263834Y33960D01*
X-263864Y33847D01*
X-263887Y33711D01*
X-263902Y33576D01*
X-263909Y33448D01*
X-263917Y33335D01*
X-263925Y33283D01*
Y32050D01*
X-259955D01*
Y33253D01*
X-259962Y33351D01*
Y33448D01*
X-259970Y33538D01*
X-259992Y33689D01*
X-260007Y33809D01*
X-260030Y33907D01*
X-260053Y33974D01*
X-260060Y34012D01*
X-260068Y34027D01*
X-260135Y34162D01*
X-260218Y34290D01*
X-260316Y34403D01*
X-260413Y34501D01*
X-260504Y34576D01*
X-260579Y34636D01*
X-260609Y34651D01*
X-260632Y34666D01*
X-260646Y34681D01*
X-260654D01*
X-260737Y34726D01*
X-260835Y34771D01*
X-261030Y34839D01*
X-261241Y34884D01*
X-261444Y34922D01*
X-261534Y34929D01*
X-261624Y34937D01*
X-261699Y34944D01*
X-261767D01*
X-261827Y34952D01*
D02*
G37*
G36*
X-216622Y89303D02*
X-218953D01*
Y87664D01*
X-216622Y89303D01*
D02*
G37*
%LPD*%
D10*
X-184655Y38822D02*
G03*
X-184655Y38822I-1250J0D01*
G01*
D12*
X-268428Y51703D02*
Y77333D01*
X-255428Y51703D02*
Y69203D01*
X-249523Y59940D02*
X-232023D01*
X-249296Y44320D02*
X-231796D01*
D13*
X-185737Y46806D02*
Y67306D01*
X-174737Y46806D02*
Y67556D01*
X-162037Y46806D02*
Y67556D01*
X-173037Y46806D02*
Y67306D01*
D14*
X-182237Y58056D02*
X-178237D01*
X-182237Y56056D02*
X-178237D01*
X-180237Y55056D02*
Y56056D01*
Y58056D02*
Y59056D01*
X-167537Y58056D02*
Y59056D01*
Y55056D02*
Y56056D01*
X-169537D02*
X-165537D01*
X-169537Y58056D02*
X-165537D01*
D15*
X207194Y82697D02*
Y70002D01*
X204655Y67462D01*
X199576D01*
X197037Y70002D01*
Y82697D01*
X181802D02*
X186880Y80158D01*
X191959Y75080D01*
Y70002D01*
X189420Y67462D01*
X184341D01*
X181802Y70002D01*
Y72541D01*
X184341Y75080D01*
X191959D01*
X-242997Y-16147D02*
X-251269D01*
X-254026Y-15228D01*
X-254945Y-14309D01*
X-255864Y-12471D01*
Y-9714D01*
X-254945Y-7876D01*
X-254026Y-6957D01*
X-251269Y-6038D01*
X-242997D01*
Y-25338D01*
X-271212Y-6038D02*
X-262022D01*
X-261103Y-14309D01*
X-262022Y-13390D01*
X-264779Y-12471D01*
X-267536D01*
X-270293Y-13390D01*
X-272131Y-15228D01*
X-273050Y-17985D01*
Y-19823D01*
X-272131Y-22580D01*
X-270293Y-24418D01*
X-267536Y-25338D01*
X-264779D01*
X-262022Y-24418D01*
X-261103Y-23500D01*
X-260184Y-21661D01*
X107374Y117386D02*
Y99610D01*
X119225Y117386D02*
Y99610D01*
X107374Y108921D02*
X119225D01*
X124135Y114000D02*
X125828Y114846D01*
X128367Y117386D01*
Y99610D01*
X142249Y117386D02*
X139710Y116539D01*
X138017Y114000D01*
X137170Y109768D01*
Y107228D01*
X138017Y102996D01*
X139710Y100456D01*
X142249Y99610D01*
X143942D01*
X146482Y100456D01*
X148175Y102996D01*
X149021Y107228D01*
Y109768D01*
X148175Y114000D01*
X146482Y116539D01*
X143942Y117386D01*
X142249D01*
X153000D02*
Y99610D01*
Y117386D02*
X160618D01*
X163158Y116539D01*
X164004Y115693D01*
X164851Y114000D01*
Y112307D01*
X164004Y110614D01*
X163158Y109768D01*
X160618Y108921D01*
X153000D01*
X158925D02*
X164851Y99610D01*
X180680Y117386D02*
X172215Y99610D01*
X168829Y117386D02*
X180680D01*
X-59344Y-90404D02*
X-67615D01*
X-70373Y-89485D01*
X-71292Y-88566D01*
X-72211Y-86728D01*
Y-83971D01*
X-71292Y-82133D01*
X-70373Y-81214D01*
X-67615Y-80295D01*
X-59344D01*
Y-99595D01*
X-78368Y-80295D02*
X-88478D01*
X-82963Y-87647D01*
X-85721D01*
X-87559Y-88566D01*
X-88478Y-89485D01*
X-89397Y-92242D01*
Y-94080D01*
X-88478Y-96838D01*
X-86640Y-98676D01*
X-83883Y-99595D01*
X-81125D01*
X-78368Y-98676D01*
X-77449Y-97757D01*
X-76530Y-95919D01*
X-59553Y87724D02*
X-67825D01*
X-70582Y88643D01*
X-71501Y89562D01*
X-72420Y91400D01*
Y94157D01*
X-71501Y95996D01*
X-70582Y96915D01*
X-67825Y97833D01*
X-59553D01*
Y78534D01*
X-77658Y93238D02*
Y94157D01*
X-78577Y95996D01*
X-79496Y96915D01*
X-81335Y97833D01*
X-85011D01*
X-86849Y96915D01*
X-87768Y95996D01*
X-88687Y94157D01*
Y92319D01*
X-87768Y90481D01*
X-85930Y87724D01*
X-76739Y78534D01*
X-89606D01*
X-98521Y97833D02*
Y86805D01*
X-93926Y95076D02*
X-103116Y89562D01*
Y95076D02*
X-93926Y89562D01*
X-174508Y114850D02*
X-182779D01*
X-185536Y115770D01*
X-186455Y116688D01*
X-187374Y118527D01*
Y121284D01*
X-186455Y123122D01*
X-185536Y124041D01*
X-182779Y124960D01*
X-174508D01*
Y105660D01*
X-191694Y121284D02*
X-193532Y122203D01*
X-196289Y124960D01*
Y105660D01*
X-222122Y-85068D02*
X-230393D01*
X-233150Y-84149D01*
X-234069Y-83230D01*
X-234988Y-81392D01*
Y-78635D01*
X-234069Y-76797D01*
X-233150Y-75878D01*
X-230393Y-74959D01*
X-222122D01*
Y-94259D01*
X-248498Y-74959D02*
X-239308Y-87825D01*
X-253094D01*
X-248498Y-74959D02*
Y-94259D01*
D16*
X269664Y-83203D02*
X269277Y-84364D01*
Y-82042D01*
X269664Y-83203D01*
X270438Y-82429D01*
X271599Y-82042D01*
X272373D01*
X273534Y-82429D01*
X274308Y-83203D01*
X274695Y-83977D01*
X275082Y-85138D01*
Y-87072D01*
X274695Y-88233D01*
X274308Y-89007D01*
X273534Y-89781D01*
X272373Y-90168D01*
X271599D01*
X270438Y-89781D01*
X269664Y-89007D01*
X272373Y-82042D02*
X273147Y-82429D01*
X273921Y-83203D01*
X274308Y-83977D01*
X274695Y-85138D01*
Y-87072D01*
X274308Y-88233D01*
X273921Y-89007D01*
X273147Y-89781D01*
X272373Y-90168D01*
X269664Y-87072D02*
Y-90168D01*
X269277Y-87072D02*
Y-90168D01*
X270825Y-87072D02*
X268117D01*
X265911Y-82042D02*
Y-90168D01*
X265524Y-82042D02*
X260880Y-89394D01*
X265524Y-82816D02*
X260880Y-90168D01*
Y-82042D02*
Y-90168D01*
X267072Y-82042D02*
X265524D01*
X262041D02*
X259720D01*
X267072Y-90168D02*
X264750D01*
X257553Y-82042D02*
Y-90168D01*
X257166Y-82042D02*
Y-90168D01*
X258713Y-82042D02*
X254844D01*
X253683Y-82429D01*
X252909Y-83203D01*
X252522Y-83977D01*
X252135Y-85138D01*
Y-87072D01*
X252522Y-88233D01*
X252909Y-89007D01*
X253683Y-89781D01*
X254844Y-90168D01*
X258713D01*
X254844Y-82042D02*
X254070Y-82429D01*
X253296Y-83203D01*
X252909Y-83977D01*
X252522Y-85138D01*
Y-87072D01*
X252909Y-88233D01*
X253296Y-89007D01*
X254070Y-89781D01*
X254844Y-90168D01*
X269664Y89517D02*
X269277Y88356D01*
Y90678D01*
X269664Y89517D01*
X270438Y90291D01*
X271599Y90678D01*
X272373D01*
X273534Y90291D01*
X274308Y89517D01*
X274695Y88743D01*
X275082Y87582D01*
Y85647D01*
X274695Y84487D01*
X274308Y83713D01*
X273534Y82939D01*
X272373Y82552D01*
X271599D01*
X270438Y82939D01*
X269664Y83713D01*
X272373Y90678D02*
X273147Y90291D01*
X273921Y89517D01*
X274308Y88743D01*
X274695Y87582D01*
Y85647D01*
X274308Y84487D01*
X273921Y83713D01*
X273147Y82939D01*
X272373Y82552D01*
X269664Y85647D02*
Y82552D01*
X269277Y85647D02*
Y82552D01*
X270825Y85647D02*
X268117D01*
X265911Y90678D02*
Y82552D01*
X265524Y90678D02*
X260880Y83326D01*
X265524Y89904D02*
X260880Y82552D01*
Y90678D02*
Y82552D01*
X267072Y90678D02*
X265524D01*
X262041D02*
X259720D01*
X267072Y82552D02*
X264750D01*
X257553Y90678D02*
Y82552D01*
X257166Y90678D02*
Y82552D01*
X258713Y90678D02*
X254844D01*
X253683Y90291D01*
X252909Y89517D01*
X252522Y88743D01*
X252135Y87582D01*
Y85647D01*
X252522Y84487D01*
X252909Y83713D01*
X253683Y82939D01*
X254844Y82552D01*
X258713D01*
X254844Y90678D02*
X254070Y90291D01*
X253296Y89517D01*
X252909Y88743D01*
X252522Y87582D01*
Y85647D01*
X252909Y84487D01*
X253296Y83713D01*
X254070Y82939D01*
X254844Y82552D01*
X144864Y-145397D02*
X145251Y-144236D01*
Y-146558D01*
X144864Y-145397D01*
X144090Y-146171D01*
X142929Y-146558D01*
X142155D01*
X140994Y-146171D01*
X140220Y-145397D01*
X139833Y-144623D01*
X139446Y-143462D01*
Y-141528D01*
X139833Y-140367D01*
X140220Y-139593D01*
X140994Y-138819D01*
X142155Y-138432D01*
X142929D01*
X144090Y-138819D01*
X144864Y-139593D01*
X142155Y-146558D02*
X141381Y-146171D01*
X140607Y-145397D01*
X140220Y-144623D01*
X139833Y-143462D01*
Y-141528D01*
X140220Y-140367D01*
X140607Y-139593D01*
X141381Y-138819D01*
X142155Y-138432D01*
X144864Y-141528D02*
Y-138432D01*
X145251Y-141528D02*
Y-138432D01*
X143703Y-141528D02*
X146411D01*
X148617Y-146558D02*
Y-138432D01*
X149004Y-146558D02*
X153648Y-139206D01*
X149004Y-145784D02*
X153648Y-138432D01*
Y-146558D02*
Y-138432D01*
X147456Y-146558D02*
X149004D01*
X152487D02*
X154809D01*
X147456Y-138432D02*
X149778D01*
X156975Y-146558D02*
Y-138432D01*
X157362Y-146558D02*
Y-138432D01*
X155815Y-146558D02*
X159684D01*
X160845Y-146171D01*
X161619Y-145397D01*
X162006Y-144623D01*
X162393Y-143462D01*
Y-141528D01*
X162006Y-140367D01*
X161619Y-139593D01*
X160845Y-138819D01*
X159684Y-138432D01*
X155815D01*
X159684Y-146558D02*
X160458Y-146171D01*
X161232Y-145397D01*
X161619Y-144623D01*
X162006Y-143462D01*
Y-141528D01*
X161619Y-140367D01*
X161232Y-139593D01*
X160458Y-138819D01*
X159684Y-138432D01*
X144864Y144163D02*
X145251Y145324D01*
Y143002D01*
X144864Y144163D01*
X144090Y143389D01*
X142929Y143002D01*
X142155D01*
X140994Y143389D01*
X140220Y144163D01*
X139833Y144937D01*
X139446Y146098D01*
Y148033D01*
X139833Y149193D01*
X140220Y149967D01*
X140994Y150741D01*
X142155Y151128D01*
X142929D01*
X144090Y150741D01*
X144864Y149967D01*
X142155Y143002D02*
X141381Y143389D01*
X140607Y144163D01*
X140220Y144937D01*
X139833Y146098D01*
Y148033D01*
X140220Y149193D01*
X140607Y149967D01*
X141381Y150741D01*
X142155Y151128D01*
X144864Y148033D02*
Y151128D01*
X145251Y148033D02*
Y151128D01*
X143703Y148033D02*
X146411D01*
X148617Y143002D02*
Y151128D01*
X149004Y143002D02*
X153648Y150354D01*
X149004Y143776D02*
X153648Y151128D01*
Y143002D02*
Y151128D01*
X147456Y143002D02*
X149004D01*
X152487D02*
X154809D01*
X147456Y151128D02*
X149778D01*
X156975Y143002D02*
Y151128D01*
X157362Y143002D02*
Y151128D01*
X155815Y143002D02*
X159684D01*
X160845Y143389D01*
X161619Y144163D01*
X162006Y144937D01*
X162393Y146098D01*
Y148033D01*
X162006Y149193D01*
X161619Y149967D01*
X160845Y150741D01*
X159684Y151128D01*
X155815D01*
X159684Y143002D02*
X160458Y143389D01*
X161232Y144163D01*
X161619Y144937D01*
X162006Y146098D01*
Y148033D01*
X161619Y149193D01*
X161232Y149967D01*
X160458Y150741D01*
X159684Y151128D01*
X-7537Y-64117D02*
X-7150Y-62956D01*
Y-65278D01*
X-7537Y-64117D01*
X-8310Y-64891D01*
X-9471Y-65278D01*
X-10245D01*
X-11406Y-64891D01*
X-12180Y-64117D01*
X-12567Y-63343D01*
X-12954Y-62182D01*
Y-60248D01*
X-12567Y-59087D01*
X-12180Y-58313D01*
X-11406Y-57539D01*
X-10245Y-57152D01*
X-9471D01*
X-8310Y-57539D01*
X-7537Y-58313D01*
X-10245Y-65278D02*
X-11019Y-64891D01*
X-11793Y-64117D01*
X-12180Y-63343D01*
X-12567Y-62182D01*
Y-60248D01*
X-12180Y-59087D01*
X-11793Y-58313D01*
X-11019Y-57539D01*
X-10245Y-57152D01*
X-7537Y-60248D02*
Y-57152D01*
X-7150Y-60248D02*
Y-57152D01*
X-8697Y-60248D02*
X-5989D01*
X-3783Y-65278D02*
Y-57152D01*
X-3396Y-65278D02*
X1248Y-57926D01*
X-3396Y-64504D02*
X1248Y-57152D01*
Y-65278D02*
Y-57152D01*
X-4944Y-65278D02*
X-3396D01*
X87D02*
X2409D01*
X-4944Y-57152D02*
X-2622D01*
X4575Y-65278D02*
Y-57152D01*
X4962Y-65278D02*
Y-57152D01*
X3415Y-65278D02*
X7284D01*
X8445Y-64891D01*
X9219Y-64117D01*
X9606Y-63343D01*
X9993Y-62182D01*
Y-60248D01*
X9606Y-59087D01*
X9219Y-58313D01*
X8445Y-57539D01*
X7284Y-57152D01*
X3415D01*
X7284Y-65278D02*
X8058Y-64891D01*
X8832Y-64117D01*
X9219Y-63343D01*
X9606Y-62182D01*
Y-60248D01*
X9219Y-59087D01*
X8832Y-58313D01*
X8058Y-57539D01*
X7284Y-57152D01*
X24480Y76065D02*
X24867Y77226D01*
Y74904D01*
X24480Y76065D01*
X23706Y75291D01*
X22545Y74904D01*
X21772D01*
X20611Y75291D01*
X19837Y76065D01*
X19450Y76839D01*
X19063Y78000D01*
Y79935D01*
X19450Y81096D01*
X19837Y81870D01*
X20611Y82644D01*
X21772Y83031D01*
X22545D01*
X23706Y82644D01*
X24480Y81870D01*
X21772Y74904D02*
X20998Y75291D01*
X20224Y76065D01*
X19837Y76839D01*
X19450Y78000D01*
Y79935D01*
X19837Y81096D01*
X20224Y81870D01*
X20998Y82644D01*
X21772Y83031D01*
X24480Y79935D02*
Y83031D01*
X24867Y79935D02*
Y83031D01*
X23319Y79935D02*
X26028D01*
X28234Y74904D02*
Y83031D01*
X28621Y74904D02*
X33264Y82257D01*
X28621Y75678D02*
X33264Y83031D01*
Y74904D02*
Y83031D01*
X27073Y74904D02*
X28621D01*
X32104D02*
X34425D01*
X27073Y83031D02*
X29395D01*
X36592Y74904D02*
Y83031D01*
X36979Y74904D02*
Y83031D01*
X35431Y74904D02*
X39301D01*
X40462Y75291D01*
X41236Y76065D01*
X41623Y76839D01*
X42010Y78000D01*
Y79935D01*
X41623Y81096D01*
X41236Y81870D01*
X40462Y82644D01*
X39301Y83031D01*
X35431D01*
X39301Y74904D02*
X40075Y75291D01*
X40849Y76065D01*
X41236Y76839D01*
X41623Y78000D01*
Y79935D01*
X41236Y81096D01*
X40849Y81870D01*
X40075Y82644D01*
X39301Y83031D01*
X-154857Y144163D02*
X-154469Y145324D01*
Y143002D01*
X-154857Y144163D01*
X-155630Y143389D01*
X-156791Y143002D01*
X-157565D01*
X-158726Y143389D01*
X-159500Y144163D01*
X-159887Y144937D01*
X-160274Y146098D01*
Y148033D01*
X-159887Y149193D01*
X-159500Y149967D01*
X-158726Y150741D01*
X-157565Y151128D01*
X-156791D01*
X-155630Y150741D01*
X-154857Y149967D01*
X-157565Y143002D02*
X-158339Y143389D01*
X-159113Y144163D01*
X-159500Y144937D01*
X-159887Y146098D01*
Y148033D01*
X-159500Y149193D01*
X-159113Y149967D01*
X-158339Y150741D01*
X-157565Y151128D01*
X-154857Y148033D02*
Y151128D01*
X-154469Y148033D02*
Y151128D01*
X-156017Y148033D02*
X-153309D01*
X-151103Y143002D02*
Y151128D01*
X-150716Y143002D02*
X-146072Y150354D01*
X-150716Y143776D02*
X-146072Y151128D01*
Y143002D02*
Y151128D01*
X-152264Y143002D02*
X-150716D01*
X-147233D02*
X-144911D01*
X-152264Y151128D02*
X-149942D01*
X-142745Y143002D02*
Y151128D01*
X-142358Y143002D02*
Y151128D01*
X-143905Y143002D02*
X-140036D01*
X-138875Y143389D01*
X-138101Y144163D01*
X-137714Y144937D01*
X-137327Y146098D01*
Y148033D01*
X-137714Y149193D01*
X-138101Y149967D01*
X-138875Y150741D01*
X-140036Y151128D01*
X-143905D01*
X-140036Y143002D02*
X-139262Y143389D01*
X-138488Y144163D01*
X-138101Y144937D01*
X-137714Y146098D01*
Y148033D01*
X-138101Y149193D01*
X-138488Y149967D01*
X-139262Y150741D01*
X-140036Y151128D01*
X-297849Y59451D02*
X-296688Y59064D01*
X-299010D01*
X-297849Y59451D01*
X-298623Y60225D01*
X-299010Y61386D01*
Y62160D01*
X-298623Y63321D01*
X-297849Y64095D01*
X-297075Y64482D01*
X-295914Y64869D01*
X-293979D01*
X-292818Y64482D01*
X-292045Y64095D01*
X-291271Y63321D01*
X-290884Y62160D01*
Y61386D01*
X-291271Y60225D01*
X-292045Y59451D01*
X-299010Y62160D02*
X-298623Y62934D01*
X-297849Y63708D01*
X-297075Y64095D01*
X-295914Y64482D01*
X-293979D01*
X-292818Y64095D01*
X-292045Y63708D01*
X-291271Y62934D01*
X-290884Y62160D01*
X-293979Y59451D02*
X-290884D01*
X-293979Y59064D02*
X-290884D01*
X-293979Y60612D02*
Y57904D01*
X-299010Y55698D02*
X-290884D01*
X-299010Y55311D02*
X-291658Y50667D01*
X-298236Y55311D02*
X-290884Y50667D01*
X-299010D02*
X-290884D01*
X-299010Y56859D02*
Y55311D01*
Y51828D02*
Y49507D01*
X-290884Y56859D02*
Y54537D01*
X-299010Y47340D02*
X-290884D01*
X-299010Y46953D02*
X-290884D01*
X-299010Y48500D02*
Y44631D01*
X-298623Y43470D01*
X-297849Y42696D01*
X-297075Y42309D01*
X-295914Y41922D01*
X-293979D01*
X-292818Y42309D01*
X-292045Y42696D01*
X-291271Y43470D01*
X-290884Y44631D01*
Y48500D01*
X-299010Y44631D02*
X-298623Y43857D01*
X-297849Y43083D01*
X-297075Y42696D01*
X-295914Y42309D01*
X-293979D01*
X-292818Y42696D01*
X-292045Y43083D01*
X-291271Y43857D01*
X-290884Y44631D01*
X-263388Y-72463D02*
X-263775Y-73623D01*
Y-71302D01*
X-263388Y-72463D01*
X-262614Y-71689D01*
X-261453Y-71302D01*
X-260679D01*
X-259519Y-71689D01*
X-258745Y-72463D01*
X-258358Y-73236D01*
X-257971Y-74397D01*
Y-76332D01*
X-258358Y-77493D01*
X-258745Y-78267D01*
X-259519Y-79041D01*
X-260679Y-79428D01*
X-261453D01*
X-262614Y-79041D01*
X-263388Y-78267D01*
X-260679Y-71302D02*
X-259905Y-71689D01*
X-259132Y-72463D01*
X-258745Y-73236D01*
X-258358Y-74397D01*
Y-76332D01*
X-258745Y-77493D01*
X-259132Y-78267D01*
X-259905Y-79041D01*
X-260679Y-79428D01*
X-263388Y-76332D02*
Y-79428D01*
X-263775Y-76332D02*
Y-79428D01*
X-262227Y-76332D02*
X-264936D01*
X-267142Y-71302D02*
Y-79428D01*
X-267529Y-71302D02*
X-272172Y-78654D01*
X-267529Y-72076D02*
X-272172Y-79428D01*
Y-71302D02*
Y-79428D01*
X-265981Y-71302D02*
X-267529D01*
X-271011D02*
X-273333D01*
X-265981Y-79428D02*
X-268303D01*
X-275500Y-71302D02*
Y-79428D01*
X-275887Y-71302D02*
Y-79428D01*
X-274339Y-71302D02*
X-278209D01*
X-279370Y-71689D01*
X-280144Y-72463D01*
X-280531Y-73236D01*
X-280918Y-74397D01*
Y-76332D01*
X-280531Y-77493D01*
X-280144Y-78267D01*
X-279370Y-79041D01*
X-278209Y-79428D01*
X-274339D01*
X-278209Y-71302D02*
X-278983Y-71689D01*
X-279757Y-72463D01*
X-280144Y-73236D01*
X-280531Y-74397D01*
Y-76332D01*
X-280144Y-77493D01*
X-279757Y-78267D01*
X-278983Y-79041D01*
X-278209Y-79428D01*
X-159937Y-150477D02*
X-159550Y-149316D01*
Y-151638D01*
X-159937Y-150477D01*
X-160710Y-151251D01*
X-161871Y-151638D01*
X-162645D01*
X-163806Y-151251D01*
X-164580Y-150477D01*
X-164967Y-149703D01*
X-165354Y-148542D01*
Y-146608D01*
X-164967Y-145447D01*
X-164580Y-144673D01*
X-163806Y-143899D01*
X-162645Y-143512D01*
X-161871D01*
X-160710Y-143899D01*
X-159937Y-144673D01*
X-162645Y-151638D02*
X-163419Y-151251D01*
X-164193Y-150477D01*
X-164580Y-149703D01*
X-164967Y-148542D01*
Y-146608D01*
X-164580Y-145447D01*
X-164193Y-144673D01*
X-163419Y-143899D01*
X-162645Y-143512D01*
X-159937Y-146608D02*
Y-143512D01*
X-159550Y-146608D02*
Y-143512D01*
X-161097Y-146608D02*
X-158389D01*
X-156183Y-151638D02*
Y-143512D01*
X-155796Y-151638D02*
X-151152Y-144286D01*
X-155796Y-150864D02*
X-151152Y-143512D01*
Y-151638D02*
Y-143512D01*
X-157344Y-151638D02*
X-155796D01*
X-152313D02*
X-149992D01*
X-157344Y-143512D02*
X-155022D01*
X-147824Y-151638D02*
Y-143512D01*
X-147438Y-151638D02*
Y-143512D01*
X-148985Y-151638D02*
X-145116D01*
X-143955Y-151251D01*
X-143181Y-150477D01*
X-142794Y-149703D01*
X-142407Y-148542D01*
Y-146608D01*
X-142794Y-145447D01*
X-143181Y-144673D01*
X-143955Y-143899D01*
X-145116Y-143512D01*
X-148985D01*
X-145116Y-151638D02*
X-144342Y-151251D01*
X-143568Y-150477D01*
X-143181Y-149703D01*
X-142794Y-148542D01*
Y-146608D01*
X-143181Y-145447D01*
X-143568Y-144673D01*
X-144342Y-143899D01*
X-145116Y-143512D01*
D62*
X-227686Y43960D02*
Y63960D01*
Y43960D02*
X-208686D01*
Y77960D01*
X-227686D02*
X-208686D01*
X-227686Y63960D02*
Y77960D01*
X-187096Y43960D02*
Y57960D01*
X-206096Y43960D02*
X-187096D01*
X-206096D02*
Y77960D01*
X-187096D01*
Y57960D02*
Y77960D01*
M02*
