G04*
G04 #@! TF.GenerationSoftware,Altium Limited,Altium Designer,25.8.1 (18)*
G04*
G04 Layer_Color=65535*
%FSLAX44Y44*%
%MOMM*%
G71*
G04*
G04 #@! TF.SameCoordinates,DC2A109C-38F9-4662-A5C9-921089D2BF11*
G04*
G04*
G04 #@! TF.FilePolarity,Positive*
G04*
G01*
G75*
%ADD10C,0.2500*%
%ADD11C,0.5000*%
%ADD12C,0.2000*%
%ADD13C,0.1000*%
%ADD14C,0.0800*%
%ADD15C,0.2540*%
%ADD16C,0.0762*%
%ADD17C,0.1270*%
G36*
X155852Y126433D02*
Y126281D01*
Y126128D01*
Y125976D01*
Y125823D01*
Y125671D01*
Y125519D01*
Y125366D01*
Y125214D01*
Y125062D01*
Y124909D01*
Y124757D01*
Y124604D01*
Y124452D01*
Y124299D01*
Y124147D01*
Y123995D01*
Y123842D01*
Y123690D01*
Y123538D01*
Y123385D01*
Y123233D01*
Y123080D01*
Y122928D01*
Y122775D01*
Y122623D01*
Y122471D01*
Y122318D01*
Y122166D01*
Y122014D01*
Y121861D01*
Y121709D01*
Y121556D01*
Y121404D01*
Y121251D01*
Y121099D01*
Y120947D01*
Y120794D01*
Y120642D01*
Y120490D01*
Y120337D01*
Y120185D01*
Y120032D01*
Y119880D01*
Y119727D01*
Y119575D01*
Y119423D01*
Y119270D01*
Y119118D01*
Y118966D01*
Y118813D01*
Y118661D01*
Y118508D01*
Y118356D01*
Y118203D01*
Y118051D01*
Y117899D01*
Y117746D01*
Y117594D01*
Y117442D01*
Y117289D01*
Y117137D01*
Y116984D01*
Y116832D01*
Y116679D01*
Y116527D01*
Y116375D01*
Y116222D01*
Y116070D01*
Y115918D01*
Y115765D01*
Y115613D01*
Y115460D01*
Y115308D01*
Y115155D01*
Y115003D01*
Y114851D01*
Y114698D01*
Y114546D01*
Y114394D01*
Y114241D01*
Y114089D01*
Y113936D01*
Y113784D01*
Y113631D01*
Y113479D01*
Y113327D01*
Y113174D01*
Y113022D01*
Y112870D01*
Y112717D01*
Y112565D01*
Y112412D01*
Y112260D01*
Y112107D01*
Y111955D01*
Y111803D01*
Y111650D01*
Y111498D01*
Y111346D01*
Y111193D01*
Y111041D01*
Y110888D01*
Y110736D01*
Y110583D01*
Y110431D01*
Y110279D01*
Y110126D01*
Y109974D01*
X148842D01*
Y110126D01*
X148690D01*
Y110279D01*
Y110431D01*
Y110583D01*
Y110736D01*
Y110888D01*
Y111041D01*
Y111193D01*
Y111346D01*
Y111498D01*
Y111650D01*
Y111803D01*
Y111955D01*
Y112107D01*
Y112260D01*
Y112412D01*
Y112565D01*
Y112717D01*
Y112870D01*
Y113022D01*
Y113174D01*
Y113327D01*
Y113479D01*
Y113631D01*
Y113784D01*
Y113936D01*
Y114089D01*
Y114241D01*
Y114394D01*
Y114546D01*
Y114698D01*
Y114851D01*
Y115003D01*
Y115155D01*
Y115308D01*
Y115460D01*
Y115613D01*
Y115765D01*
Y115918D01*
Y116070D01*
Y116222D01*
Y116375D01*
Y116527D01*
Y116679D01*
Y116832D01*
Y116984D01*
Y117137D01*
Y117289D01*
Y117442D01*
Y117594D01*
Y117746D01*
Y117899D01*
Y118051D01*
Y118203D01*
Y118356D01*
Y118508D01*
Y118661D01*
Y118813D01*
X148537D01*
Y118966D01*
Y119118D01*
X148385D01*
Y119270D01*
X148232D01*
Y119423D01*
X148080D01*
Y119575D01*
X147775D01*
Y119727D01*
X147166D01*
Y119880D01*
X147013D01*
Y119727D01*
X146404D01*
Y119575D01*
X146099D01*
Y119423D01*
X145947D01*
Y119270D01*
X145794D01*
Y119118D01*
X145642D01*
Y118966D01*
Y118813D01*
X145489D01*
Y118661D01*
Y118508D01*
Y118356D01*
Y118203D01*
Y118051D01*
Y117899D01*
Y117746D01*
Y117594D01*
Y117442D01*
Y117289D01*
Y117137D01*
Y116984D01*
Y116832D01*
Y116679D01*
Y116527D01*
Y116375D01*
Y116222D01*
Y116070D01*
Y115918D01*
Y115765D01*
Y115613D01*
Y115460D01*
Y115308D01*
Y115155D01*
Y115003D01*
X145337D01*
Y114851D01*
Y114698D01*
Y114546D01*
Y114394D01*
Y114241D01*
Y114089D01*
Y113936D01*
Y113784D01*
Y113631D01*
Y113479D01*
Y113327D01*
Y113174D01*
Y113022D01*
Y112870D01*
Y112717D01*
Y112565D01*
Y112412D01*
Y112260D01*
Y112107D01*
Y111955D01*
Y111803D01*
Y111650D01*
Y111498D01*
Y111346D01*
Y111193D01*
Y111041D01*
Y110888D01*
Y110736D01*
Y110583D01*
Y110431D01*
Y110279D01*
Y110126D01*
Y109974D01*
Y109822D01*
Y109669D01*
Y109517D01*
Y109364D01*
Y109212D01*
Y109059D01*
Y108907D01*
Y108755D01*
Y108602D01*
Y108450D01*
Y108298D01*
Y108145D01*
Y107993D01*
Y107840D01*
Y107688D01*
Y107535D01*
Y107383D01*
Y107231D01*
Y107078D01*
Y106926D01*
Y106774D01*
Y106621D01*
Y106469D01*
Y106316D01*
Y106164D01*
Y106011D01*
Y105859D01*
Y105707D01*
Y105554D01*
X145489D01*
Y105402D01*
Y105250D01*
Y105097D01*
Y104945D01*
Y104792D01*
Y104640D01*
Y104487D01*
Y104335D01*
Y104183D01*
Y104030D01*
Y103878D01*
Y103726D01*
Y103573D01*
Y103421D01*
Y103268D01*
Y103116D01*
Y102963D01*
Y102811D01*
Y102659D01*
Y102506D01*
Y102354D01*
Y102201D01*
Y102049D01*
Y101897D01*
Y101744D01*
Y101592D01*
Y101440D01*
Y101287D01*
Y101135D01*
Y100982D01*
Y100830D01*
Y100677D01*
Y100525D01*
Y100373D01*
Y100220D01*
Y100068D01*
Y99916D01*
Y99763D01*
Y99611D01*
Y99458D01*
Y99306D01*
Y99153D01*
Y99001D01*
Y98849D01*
Y98696D01*
Y98544D01*
Y98392D01*
Y98239D01*
Y98087D01*
Y97934D01*
Y97782D01*
Y97629D01*
Y97477D01*
Y97325D01*
Y97172D01*
Y97020D01*
Y96868D01*
Y96715D01*
Y96563D01*
Y96410D01*
Y96258D01*
Y96105D01*
Y95953D01*
Y95801D01*
Y95648D01*
Y95496D01*
Y95344D01*
Y95191D01*
Y95039D01*
Y94886D01*
Y94734D01*
Y94581D01*
Y94429D01*
Y94277D01*
Y94124D01*
Y93972D01*
Y93820D01*
Y93667D01*
Y93515D01*
Y93362D01*
Y93210D01*
Y93057D01*
Y92905D01*
Y92753D01*
Y92600D01*
Y92448D01*
Y92296D01*
Y92143D01*
Y91991D01*
Y91838D01*
Y91686D01*
Y91533D01*
Y91381D01*
Y91229D01*
Y91076D01*
Y90924D01*
Y90772D01*
Y90619D01*
Y90467D01*
Y90314D01*
Y90162D01*
Y90009D01*
Y89857D01*
X145337D01*
Y89705D01*
X142746D01*
Y89857D01*
X142136D01*
Y90009D01*
X141832D01*
Y90162D01*
X141679D01*
Y90314D01*
X141527D01*
Y90467D01*
X141222D01*
Y90619D01*
Y90772D01*
X141070D01*
Y90924D01*
X140917D01*
Y91076D01*
Y91229D01*
X140765D01*
Y91381D01*
X140612D01*
Y91533D01*
Y91686D01*
X140460D01*
Y91838D01*
Y91991D01*
X140308D01*
Y92143D01*
Y92296D01*
X140155D01*
Y92448D01*
X140003D01*
Y92600D01*
Y92753D01*
X139851D01*
Y92905D01*
Y93057D01*
X139698D01*
Y93210D01*
X139546D01*
Y93362D01*
Y93515D01*
X139393D01*
Y93667D01*
Y93820D01*
X139241D01*
Y93972D01*
Y94124D01*
X139088D01*
Y94277D01*
X138936D01*
Y94429D01*
Y94581D01*
X138784D01*
Y94734D01*
Y94886D01*
X138631D01*
Y95039D01*
Y95191D01*
X138479D01*
Y95344D01*
X138327D01*
Y95496D01*
Y95648D01*
X138174D01*
Y95801D01*
Y95953D01*
X138022D01*
Y96105D01*
Y96258D01*
X137869D01*
Y96410D01*
X137717D01*
Y96563D01*
Y96715D01*
X137564D01*
Y96868D01*
Y97020D01*
X137412D01*
Y97172D01*
X137260D01*
Y97325D01*
Y97477D01*
X137107D01*
Y97629D01*
Y97782D01*
X136955D01*
Y97934D01*
Y98087D01*
X136803D01*
Y98239D01*
X136650D01*
Y98392D01*
Y98544D01*
X136498D01*
Y98696D01*
Y98849D01*
X136345D01*
Y99001D01*
Y99153D01*
X136193D01*
Y99306D01*
X136040D01*
Y99458D01*
Y99611D01*
X135888D01*
Y99763D01*
Y99916D01*
X135736D01*
Y100068D01*
Y100220D01*
X135583D01*
Y100373D01*
X135431D01*
Y100525D01*
Y100677D01*
X135279D01*
Y100830D01*
Y100982D01*
X135126D01*
Y101135D01*
Y101287D01*
X134974D01*
Y101440D01*
X134821D01*
Y101592D01*
Y101744D01*
X134669D01*
Y101897D01*
Y102049D01*
X134516D01*
Y102201D01*
Y102354D01*
X134364D01*
Y102506D01*
X134212D01*
Y102659D01*
Y102811D01*
X134059D01*
Y102963D01*
Y103116D01*
X133907D01*
Y103268D01*
X133755D01*
Y103421D01*
Y103573D01*
X133602D01*
Y103726D01*
Y103878D01*
X133450D01*
Y104030D01*
Y104183D01*
X133297D01*
Y104335D01*
X133145D01*
Y104487D01*
Y104640D01*
X132992D01*
Y104792D01*
Y104945D01*
X132840D01*
Y105097D01*
Y105250D01*
X132688D01*
Y105402D01*
X132535D01*
Y105554D01*
Y105707D01*
X132383D01*
Y105859D01*
Y106011D01*
X132231D01*
Y106164D01*
Y106316D01*
X132078D01*
Y106469D01*
X131926D01*
Y106621D01*
Y106774D01*
X131773D01*
Y106926D01*
Y107078D01*
X131621D01*
Y107231D01*
Y107383D01*
X131468D01*
Y107535D01*
Y107688D01*
Y107840D01*
Y107993D01*
Y108145D01*
Y108298D01*
Y108450D01*
Y108602D01*
Y108755D01*
Y108907D01*
X131621D01*
Y109059D01*
Y109212D01*
Y109364D01*
X131773D01*
Y109517D01*
Y109669D01*
X131926D01*
Y109822D01*
X132078D01*
Y109974D01*
Y110126D01*
X132231D01*
Y110279D01*
Y110431D01*
X132383D01*
Y110583D01*
Y110736D01*
X132535D01*
Y110888D01*
X132688D01*
Y111041D01*
Y111193D01*
X132840D01*
Y111346D01*
Y111498D01*
X132992D01*
Y111650D01*
X133145D01*
Y111803D01*
Y111955D01*
X133297D01*
Y112107D01*
Y112260D01*
X133450D01*
Y112412D01*
Y112565D01*
X133602D01*
Y112717D01*
X133755D01*
Y112870D01*
Y113022D01*
X133907D01*
Y113174D01*
Y113327D01*
X134059D01*
Y113479D01*
Y113631D01*
X134212D01*
Y113784D01*
X134364D01*
Y113936D01*
Y114089D01*
X134516D01*
Y114241D01*
X134669D01*
Y114394D01*
Y114546D01*
X134821D01*
Y114698D01*
Y114851D01*
X134974D01*
Y115003D01*
Y115155D01*
X135126D01*
Y115308D01*
X135279D01*
Y115460D01*
Y115613D01*
X135431D01*
Y115765D01*
Y115918D01*
X135583D01*
Y116070D01*
Y116222D01*
X135736D01*
Y116375D01*
X135888D01*
Y116527D01*
Y116679D01*
X136040D01*
Y116832D01*
Y116984D01*
X136193D01*
Y117137D01*
Y117289D01*
X136345D01*
Y117442D01*
X136498D01*
Y117594D01*
Y117746D01*
X136650D01*
Y117899D01*
Y118051D01*
X136803D01*
Y118203D01*
X136955D01*
Y118356D01*
Y118508D01*
X137107D01*
Y118661D01*
Y118813D01*
X137260D01*
Y118966D01*
Y119118D01*
X137412D01*
Y119270D01*
X137564D01*
Y119423D01*
Y119575D01*
X137717D01*
Y119727D01*
Y119880D01*
X137869D01*
Y120032D01*
Y120185D01*
X138022D01*
Y120337D01*
X138174D01*
Y120490D01*
Y120642D01*
X138327D01*
Y120794D01*
Y120947D01*
X138479D01*
Y121099D01*
Y121251D01*
X138631D01*
Y121404D01*
X138784D01*
Y121556D01*
Y121709D01*
X138936D01*
Y121861D01*
Y122014D01*
X139088D01*
Y122166D01*
X139241D01*
Y122318D01*
Y122471D01*
X139393D01*
Y122623D01*
Y122775D01*
X139546D01*
Y122928D01*
Y123080D01*
X139698D01*
Y123233D01*
X139851D01*
Y123385D01*
Y123538D01*
X140003D01*
Y123690D01*
Y123842D01*
X140155D01*
Y123995D01*
Y124147D01*
X140308D01*
Y124299D01*
X140460D01*
Y124452D01*
Y124604D01*
X140612D01*
Y124757D01*
Y124909D01*
X140765D01*
Y125062D01*
Y125214D01*
X140917D01*
Y125366D01*
X141070D01*
Y125519D01*
Y125671D01*
X141222D01*
Y125823D01*
X141375D01*
Y125976D01*
X141527D01*
Y126128D01*
X141832D01*
Y126281D01*
X142136D01*
Y126433D01*
X142441D01*
Y126586D01*
X155852D01*
Y126433D01*
D02*
G37*
G36*
X162101D02*
X162558D01*
Y126281D01*
X162863D01*
Y126128D01*
X163015D01*
Y125976D01*
X163168D01*
Y125823D01*
X163320D01*
Y125671D01*
X163472D01*
Y125519D01*
X163625D01*
Y125366D01*
X163777D01*
Y125214D01*
Y125062D01*
X163930D01*
Y124909D01*
Y124757D01*
X164082D01*
Y124604D01*
Y124452D01*
X164235D01*
Y124299D01*
X164387D01*
Y124147D01*
Y123995D01*
X164539D01*
Y123842D01*
Y123690D01*
X164692D01*
Y123538D01*
X164844D01*
Y123385D01*
Y123233D01*
X164996D01*
Y123080D01*
Y122928D01*
X165149D01*
Y122775D01*
Y122623D01*
X165301D01*
Y122471D01*
X165454D01*
Y122318D01*
Y122166D01*
X165606D01*
Y122014D01*
Y121861D01*
X165758D01*
Y121709D01*
Y121556D01*
X165911D01*
Y121404D01*
X166063D01*
Y121251D01*
Y121099D01*
X166216D01*
Y120947D01*
Y120794D01*
X166368D01*
Y120642D01*
Y120490D01*
X166521D01*
Y120337D01*
X166673D01*
Y120185D01*
Y120032D01*
X166825D01*
Y119880D01*
Y119727D01*
X166978D01*
Y119575D01*
X167130D01*
Y119423D01*
Y119270D01*
X167283D01*
Y119118D01*
Y118966D01*
X167435D01*
Y118813D01*
Y118661D01*
X167587D01*
Y118508D01*
X167740D01*
Y118356D01*
Y118203D01*
X167892D01*
Y118051D01*
Y117899D01*
X168044D01*
Y117746D01*
Y117594D01*
X168197D01*
Y117442D01*
X168349D01*
Y117289D01*
Y117137D01*
X168502D01*
Y116984D01*
Y116832D01*
X168654D01*
Y116679D01*
Y116527D01*
X168806D01*
Y116375D01*
X168959D01*
Y116222D01*
Y116070D01*
X169111D01*
Y115918D01*
Y115765D01*
X169264D01*
Y115613D01*
X169416D01*
Y115460D01*
Y115308D01*
X169569D01*
Y115155D01*
Y115003D01*
X169721D01*
Y114851D01*
Y114698D01*
X169873D01*
Y114546D01*
X170026D01*
Y114394D01*
Y114241D01*
X170178D01*
Y114089D01*
Y113936D01*
X170331D01*
Y113784D01*
Y113631D01*
X170483D01*
Y113479D01*
X170635D01*
Y113327D01*
Y113174D01*
X170788D01*
Y113022D01*
Y112870D01*
X170940D01*
Y112717D01*
Y112565D01*
X171092D01*
Y112412D01*
X171245D01*
Y112260D01*
Y112107D01*
X171397D01*
Y111955D01*
Y111803D01*
X171550D01*
Y111650D01*
X171702D01*
Y111498D01*
Y111346D01*
X171854D01*
Y111193D01*
Y111041D01*
X172007D01*
Y110888D01*
Y110736D01*
X172159D01*
Y110583D01*
X172312D01*
Y110431D01*
Y110279D01*
X172464D01*
Y110126D01*
Y109974D01*
X172617D01*
Y109822D01*
Y109669D01*
X172769D01*
Y109517D01*
X172921D01*
Y109364D01*
Y109212D01*
X173074D01*
Y109059D01*
Y108907D01*
Y108755D01*
Y108602D01*
X173226D01*
Y108450D01*
Y108298D01*
Y108145D01*
Y107993D01*
Y107840D01*
X173074D01*
Y107688D01*
Y107535D01*
Y107383D01*
Y107231D01*
X172921D01*
Y107078D01*
Y106926D01*
X172769D01*
Y106774D01*
Y106621D01*
X172617D01*
Y106469D01*
Y106316D01*
X172464D01*
Y106164D01*
X172312D01*
Y106011D01*
Y105859D01*
X172159D01*
Y105707D01*
Y105554D01*
X172007D01*
Y105402D01*
X171854D01*
Y105250D01*
Y105097D01*
X171702D01*
Y104945D01*
Y104792D01*
X171550D01*
Y104640D01*
Y104487D01*
X171397D01*
Y104335D01*
X171245D01*
Y104183D01*
Y104030D01*
X171092D01*
Y103878D01*
Y103726D01*
X170940D01*
Y103573D01*
Y103421D01*
X170788D01*
Y103268D01*
X170635D01*
Y103116D01*
Y102963D01*
X170483D01*
Y102811D01*
Y102659D01*
X170331D01*
Y102506D01*
X170178D01*
Y102354D01*
Y102201D01*
X170026D01*
Y102049D01*
Y101897D01*
X169873D01*
Y101744D01*
Y101592D01*
X169721D01*
Y101440D01*
X169569D01*
Y101287D01*
Y101135D01*
X169416D01*
Y100982D01*
Y100830D01*
X169264D01*
Y100677D01*
Y100525D01*
X169111D01*
Y100373D01*
X168959D01*
Y100220D01*
Y100068D01*
X168806D01*
Y99916D01*
Y99763D01*
X168654D01*
Y99611D01*
X168502D01*
Y99458D01*
Y99306D01*
X168349D01*
Y99153D01*
Y99001D01*
X168197D01*
Y98849D01*
Y98696D01*
X168044D01*
Y98544D01*
X167892D01*
Y98392D01*
Y98239D01*
X167740D01*
Y98087D01*
Y97934D01*
X167587D01*
Y97782D01*
Y97629D01*
X167435D01*
Y97477D01*
Y97325D01*
X167283D01*
Y97172D01*
Y97020D01*
X167130D01*
Y96868D01*
X166978D01*
Y96715D01*
Y96563D01*
X166825D01*
Y96410D01*
Y96258D01*
X166673D01*
Y96105D01*
X166521D01*
Y95953D01*
Y95801D01*
X166368D01*
Y95648D01*
Y95496D01*
X166216D01*
Y95344D01*
Y95191D01*
X166063D01*
Y95039D01*
X165911D01*
Y94886D01*
Y94734D01*
X165758D01*
Y94581D01*
Y94429D01*
X165606D01*
Y94277D01*
Y94124D01*
X165454D01*
Y93972D01*
X165301D01*
Y93820D01*
Y93667D01*
X165149D01*
Y93515D01*
Y93362D01*
X164996D01*
Y93210D01*
Y93057D01*
X164844D01*
Y92905D01*
X164692D01*
Y92753D01*
Y92600D01*
X164539D01*
Y92448D01*
Y92296D01*
X164387D01*
Y92143D01*
Y91991D01*
X164235D01*
Y91838D01*
X164082D01*
Y91686D01*
Y91533D01*
X163930D01*
Y91381D01*
Y91229D01*
X163777D01*
Y91076D01*
X163625D01*
Y90924D01*
Y90772D01*
X163472D01*
Y90619D01*
X163320D01*
Y90467D01*
X163168D01*
Y90314D01*
X163015D01*
Y90162D01*
X162710D01*
Y90009D01*
X162406D01*
Y89857D01*
X161949D01*
Y89705D01*
X148842D01*
Y89857D01*
X148690D01*
Y90009D01*
Y90162D01*
Y90314D01*
Y90467D01*
Y90619D01*
Y90772D01*
Y90924D01*
Y91076D01*
Y91229D01*
Y91381D01*
Y91533D01*
Y91686D01*
Y91838D01*
Y91991D01*
Y92143D01*
Y92296D01*
Y92448D01*
Y92600D01*
Y92753D01*
Y92905D01*
Y93057D01*
Y93210D01*
Y93362D01*
Y93515D01*
Y93667D01*
Y93820D01*
Y93972D01*
Y94124D01*
Y94277D01*
Y94429D01*
Y94581D01*
Y94734D01*
Y94886D01*
Y95039D01*
Y95191D01*
Y95344D01*
Y95496D01*
Y95648D01*
Y95801D01*
Y95953D01*
Y96105D01*
Y96258D01*
Y96410D01*
Y96563D01*
Y96715D01*
Y96868D01*
Y97020D01*
Y97172D01*
Y97325D01*
Y97477D01*
Y97629D01*
Y97782D01*
Y97934D01*
Y98087D01*
Y98239D01*
Y98392D01*
Y98544D01*
Y98696D01*
Y98849D01*
Y99001D01*
Y99153D01*
Y99306D01*
Y99458D01*
Y99611D01*
Y99763D01*
Y99916D01*
Y100068D01*
Y100220D01*
Y100373D01*
Y100525D01*
Y100677D01*
Y100830D01*
Y100982D01*
Y101135D01*
Y101287D01*
Y101440D01*
Y101592D01*
Y101744D01*
Y101897D01*
Y102049D01*
Y102201D01*
Y102354D01*
Y102506D01*
Y102659D01*
Y102811D01*
Y102963D01*
Y103116D01*
Y103268D01*
Y103421D01*
Y103573D01*
Y103726D01*
Y103878D01*
Y104030D01*
Y104183D01*
Y104335D01*
Y104487D01*
Y104640D01*
Y104792D01*
Y104945D01*
Y105097D01*
Y105250D01*
Y105402D01*
Y105554D01*
Y105707D01*
Y105859D01*
Y106011D01*
Y106164D01*
Y106316D01*
X148842D01*
Y106469D01*
X155852D01*
Y106316D01*
Y106164D01*
Y106011D01*
Y105859D01*
Y105707D01*
Y105554D01*
Y105402D01*
Y105250D01*
Y105097D01*
Y104945D01*
Y104792D01*
Y104640D01*
Y104487D01*
Y104335D01*
Y104183D01*
Y104030D01*
Y103878D01*
Y103726D01*
Y103573D01*
Y103421D01*
Y103268D01*
Y103116D01*
Y102963D01*
Y102811D01*
Y102659D01*
Y102506D01*
Y102354D01*
Y102201D01*
Y102049D01*
Y101897D01*
Y101744D01*
Y101592D01*
Y101440D01*
Y101287D01*
Y101135D01*
Y100982D01*
Y100830D01*
Y100677D01*
Y100525D01*
Y100373D01*
X156005D01*
Y100220D01*
Y100068D01*
Y99916D01*
Y99763D01*
Y99611D01*
Y99458D01*
Y99306D01*
Y99153D01*
Y99001D01*
Y98849D01*
Y98696D01*
Y98544D01*
Y98392D01*
Y98239D01*
Y98087D01*
Y97934D01*
Y97782D01*
Y97629D01*
Y97477D01*
X156157D01*
Y97325D01*
X156310D01*
Y97172D01*
Y97020D01*
X156615D01*
Y96868D01*
X156767D01*
Y96715D01*
X157224D01*
Y96563D01*
X157986D01*
Y96715D01*
X158291D01*
Y96868D01*
X158596D01*
Y97020D01*
X158748D01*
Y97172D01*
X158900D01*
Y97325D01*
X159053D01*
Y97477D01*
Y97629D01*
Y97782D01*
X159205D01*
Y97934D01*
Y98087D01*
Y98239D01*
Y98392D01*
Y98544D01*
Y98696D01*
Y98849D01*
Y99001D01*
Y99153D01*
Y99306D01*
Y99458D01*
Y99611D01*
Y99763D01*
Y99916D01*
Y100068D01*
Y100220D01*
Y100373D01*
Y100525D01*
Y100677D01*
Y100830D01*
Y100982D01*
Y101135D01*
Y101287D01*
Y101440D01*
Y101592D01*
Y101744D01*
Y101897D01*
Y102049D01*
Y102201D01*
Y102354D01*
Y102506D01*
Y102659D01*
Y102811D01*
Y102963D01*
Y103116D01*
Y103268D01*
Y103421D01*
Y103573D01*
Y103726D01*
Y103878D01*
Y104030D01*
Y104183D01*
Y104335D01*
Y104487D01*
Y104640D01*
Y104792D01*
Y104945D01*
Y105097D01*
Y105250D01*
Y105402D01*
Y105554D01*
Y105707D01*
Y105859D01*
Y106011D01*
Y106164D01*
Y106316D01*
Y106469D01*
Y106621D01*
Y106774D01*
Y106926D01*
Y107078D01*
Y107231D01*
Y107383D01*
Y107535D01*
Y107688D01*
Y107840D01*
Y107993D01*
Y108145D01*
Y108298D01*
Y108450D01*
Y108602D01*
Y108755D01*
Y108907D01*
Y109059D01*
Y109212D01*
Y109364D01*
Y109517D01*
Y109669D01*
Y109822D01*
Y109974D01*
Y110126D01*
Y110279D01*
Y110431D01*
Y110583D01*
Y110736D01*
Y110888D01*
Y111041D01*
Y111193D01*
Y111346D01*
Y111498D01*
Y111650D01*
Y111803D01*
Y111955D01*
Y112107D01*
Y112260D01*
Y112412D01*
Y112565D01*
Y112717D01*
Y112870D01*
Y113022D01*
Y113174D01*
Y113327D01*
Y113479D01*
Y113631D01*
Y113784D01*
Y113936D01*
Y114089D01*
Y114241D01*
Y114394D01*
Y114546D01*
Y114698D01*
Y114851D01*
Y115003D01*
Y115155D01*
Y115308D01*
Y115460D01*
Y115613D01*
Y115765D01*
Y115918D01*
Y116070D01*
Y116222D01*
Y116375D01*
Y116527D01*
Y116679D01*
Y116832D01*
Y116984D01*
Y117137D01*
Y117289D01*
Y117442D01*
Y117594D01*
Y117746D01*
Y117899D01*
Y118051D01*
Y118203D01*
Y118356D01*
Y118508D01*
Y118661D01*
Y118813D01*
Y118966D01*
Y119118D01*
Y119270D01*
Y119423D01*
Y119575D01*
Y119727D01*
Y119880D01*
Y120032D01*
Y120185D01*
Y120337D01*
Y120490D01*
Y120642D01*
Y120794D01*
Y120947D01*
Y121099D01*
Y121251D01*
Y121404D01*
Y121556D01*
Y121709D01*
Y121861D01*
Y122014D01*
Y122166D01*
Y122318D01*
Y122471D01*
Y122623D01*
Y122775D01*
Y122928D01*
Y123080D01*
Y123233D01*
Y123385D01*
Y123538D01*
Y123690D01*
Y123842D01*
Y123995D01*
Y124147D01*
Y124299D01*
Y124452D01*
Y124604D01*
Y124757D01*
Y124909D01*
Y125062D01*
Y125214D01*
Y125366D01*
Y125519D01*
Y125671D01*
Y125823D01*
Y125976D01*
Y126128D01*
Y126281D01*
Y126433D01*
Y126586D01*
X162101D01*
Y126433D01*
D02*
G37*
G36*
X29276Y2631D02*
X29268Y2570D01*
Y2503D01*
X29261Y2345D01*
X29238Y2180D01*
X29216Y1999D01*
X29178Y1834D01*
X29155Y1751D01*
X29133Y1683D01*
Y1676D01*
X29125Y1668D01*
X29103Y1623D01*
X29073Y1555D01*
X29020Y1473D01*
X28953Y1382D01*
X28862Y1285D01*
X28757Y1195D01*
X28637Y1104D01*
X28629D01*
X28622Y1097D01*
X28577Y1067D01*
X28501Y1037D01*
X28404Y992D01*
X28291Y954D01*
X28156Y916D01*
X28013Y894D01*
X27855Y886D01*
X27847D01*
X27832D01*
X27802D01*
X27765Y894D01*
X27712D01*
X27659Y901D01*
X27531Y931D01*
X27381Y976D01*
X27223Y1037D01*
X27065Y1127D01*
X26990Y1187D01*
X26915Y1247D01*
X26907Y1255D01*
X26900Y1262D01*
X26877Y1285D01*
X26855Y1315D01*
X26825Y1352D01*
X26795Y1398D01*
X26757Y1458D01*
X26712Y1518D01*
X26674Y1593D01*
X26637Y1676D01*
X26592Y1766D01*
X26554Y1864D01*
X26524Y1977D01*
X26486Y2089D01*
X26464Y2217D01*
X26441Y2352D01*
X26434Y2337D01*
X26419Y2307D01*
X26389Y2262D01*
X26359Y2202D01*
X26276Y2067D01*
X26223Y1999D01*
X26178Y1939D01*
X26163Y1924D01*
X26126Y1886D01*
X26065Y1826D01*
X25990Y1751D01*
X25885Y1668D01*
X25772Y1570D01*
X25637Y1473D01*
X25487Y1367D01*
X24073Y473D01*
Y1330D01*
X25156Y2014D01*
X25163D01*
X25178Y2029D01*
X25201Y2044D01*
X25231Y2067D01*
X25314Y2119D01*
X25419Y2187D01*
X25532Y2270D01*
X25652Y2352D01*
X25765Y2435D01*
X25870Y2510D01*
X25877Y2518D01*
X25908Y2540D01*
X25953Y2578D01*
X26005Y2631D01*
X26118Y2743D01*
X26171Y2803D01*
X26216Y2864D01*
X26223Y2871D01*
X26231Y2886D01*
X26246Y2916D01*
X26268Y2961D01*
X26291Y3007D01*
X26314Y3059D01*
X26351Y3179D01*
Y3187D01*
X26359Y3202D01*
Y3232D01*
X26366Y3270D01*
X26374Y3322D01*
Y3382D01*
X26381Y3465D01*
Y4352D01*
X24073D01*
Y5044D01*
X29276D01*
Y2631D01*
D02*
G37*
G36*
X27990Y-429D02*
X28005Y-444D01*
X28013Y-474D01*
X28035Y-512D01*
X28058Y-557D01*
X28088Y-610D01*
X28163Y-738D01*
X28246Y-888D01*
X28351Y-1038D01*
X28471Y-1196D01*
X28599Y-1354D01*
X28607Y-1362D01*
X28614Y-1369D01*
X28637Y-1392D01*
X28659Y-1422D01*
X28735Y-1489D01*
X28825Y-1580D01*
X28930Y-1670D01*
X29050Y-1768D01*
X29171Y-1850D01*
X29298Y-1926D01*
Y-2339D01*
X24073D01*
Y-1700D01*
X28140D01*
X28133Y-1692D01*
X28103Y-1655D01*
X28058Y-1610D01*
X28005Y-1535D01*
X27938Y-1452D01*
X27862Y-1347D01*
X27780Y-1226D01*
X27697Y-1091D01*
Y-1084D01*
X27689Y-1076D01*
X27659Y-1031D01*
X27622Y-956D01*
X27577Y-865D01*
X27524Y-760D01*
X27471Y-647D01*
X27419Y-535D01*
X27374Y-422D01*
X27990D01*
Y-429D01*
D02*
G37*
G36*
X10103Y20885D02*
X9464D01*
Y24952D01*
X9457Y24945D01*
X9419Y24915D01*
X9374Y24869D01*
X9299Y24817D01*
X9216Y24749D01*
X9111Y24674D01*
X8991Y24591D01*
X8855Y24509D01*
X8848D01*
X8840Y24501D01*
X8795Y24471D01*
X8720Y24433D01*
X8630Y24388D01*
X8525Y24336D01*
X8412Y24283D01*
X8299Y24230D01*
X8186Y24185D01*
Y24802D01*
X8194D01*
X8209Y24817D01*
X8239Y24824D01*
X8277Y24847D01*
X8322Y24869D01*
X8374Y24899D01*
X8502Y24975D01*
X8652Y25057D01*
X8803Y25163D01*
X8961Y25283D01*
X9118Y25411D01*
X9126Y25418D01*
X9134Y25426D01*
X9156Y25448D01*
X9186Y25471D01*
X9254Y25546D01*
X9344Y25636D01*
X9434Y25742D01*
X9532Y25862D01*
X9615Y25982D01*
X9690Y26110D01*
X10103D01*
Y20885D01*
D02*
G37*
G36*
X4848Y26080D02*
X4998Y26072D01*
X5149Y26057D01*
X5299Y26035D01*
X5427Y26012D01*
X5434D01*
X5450Y26005D01*
X5472D01*
X5502Y25990D01*
X5585Y25967D01*
X5690Y25930D01*
X5810Y25877D01*
X5938Y25809D01*
X6066Y25734D01*
X6186Y25636D01*
X6194Y25629D01*
X6201Y25621D01*
X6224Y25599D01*
X6254Y25576D01*
X6329Y25501D01*
X6419Y25396D01*
X6517Y25268D01*
X6622Y25117D01*
X6720Y24945D01*
X6803Y24749D01*
Y24742D01*
X6810Y24727D01*
X6825Y24697D01*
X6833Y24651D01*
X6855Y24599D01*
X6870Y24539D01*
X6886Y24471D01*
X6908Y24388D01*
X6931Y24306D01*
X6946Y24208D01*
X6983Y23997D01*
X7006Y23764D01*
X7013Y23509D01*
Y23501D01*
Y23486D01*
Y23448D01*
Y23411D01*
X7006Y23358D01*
Y23298D01*
X6998Y23155D01*
X6976Y22990D01*
X6953Y22817D01*
X6916Y22636D01*
X6870Y22456D01*
Y22448D01*
X6863Y22433D01*
X6855Y22411D01*
X6848Y22381D01*
X6818Y22298D01*
X6773Y22193D01*
X6728Y22073D01*
X6668Y21952D01*
X6592Y21824D01*
X6517Y21704D01*
X6510Y21689D01*
X6480Y21651D01*
X6435Y21599D01*
X6374Y21531D01*
X6307Y21456D01*
X6224Y21381D01*
X6141Y21298D01*
X6043Y21230D01*
X6029Y21223D01*
X5998Y21200D01*
X5946Y21170D01*
X5871Y21133D01*
X5780Y21088D01*
X5675Y21050D01*
X5555Y21005D01*
X5419Y20967D01*
X5404D01*
X5382Y20960D01*
X5359Y20952D01*
X5284Y20945D01*
X5179Y20930D01*
X5059Y20915D01*
X4916Y20900D01*
X4758Y20892D01*
X4585Y20885D01*
X2713D01*
Y26087D01*
X4713D01*
X4848Y26080D01*
D02*
G37*
G36*
X1638Y25471D02*
X-1437D01*
Y23884D01*
X1442D01*
Y23268D01*
X-1437D01*
Y21501D01*
X1758D01*
Y20885D01*
X-2129D01*
Y26087D01*
X1638D01*
Y25471D01*
D02*
G37*
G36*
X-5520Y21501D02*
X-2956D01*
Y20885D01*
X-6212D01*
Y26087D01*
X-5520D01*
Y21501D01*
D02*
G37*
G36*
X-138721Y36349D02*
X-138653Y36342D01*
X-138571Y36334D01*
X-138488Y36327D01*
X-138390Y36304D01*
X-138187Y36259D01*
X-137962Y36191D01*
X-137849Y36146D01*
X-137744Y36094D01*
X-137638Y36026D01*
X-137533Y35958D01*
X-137526Y35951D01*
X-137510Y35943D01*
X-137480Y35921D01*
X-137443Y35883D01*
X-137405Y35846D01*
X-137353Y35793D01*
X-137300Y35733D01*
X-137240Y35673D01*
X-137180Y35598D01*
X-137120Y35507D01*
X-137052Y35417D01*
X-136992Y35319D01*
X-136939Y35207D01*
X-136879Y35094D01*
X-136834Y34973D01*
X-136789Y34838D01*
X-137465Y34680D01*
Y34688D01*
X-137473Y34703D01*
X-137488Y34733D01*
X-137503Y34771D01*
X-137518Y34816D01*
X-137541Y34876D01*
X-137601Y34996D01*
X-137676Y35131D01*
X-137766Y35267D01*
X-137879Y35394D01*
X-137999Y35507D01*
X-138014Y35522D01*
X-138059Y35552D01*
X-138134Y35590D01*
X-138232Y35643D01*
X-138360Y35688D01*
X-138503Y35733D01*
X-138676Y35763D01*
X-138864Y35770D01*
X-138924D01*
X-138961Y35763D01*
X-139014D01*
X-139074Y35755D01*
X-139217Y35733D01*
X-139375Y35703D01*
X-139540Y35650D01*
X-139713Y35575D01*
X-139871Y35477D01*
X-139879D01*
X-139886Y35462D01*
X-139939Y35425D01*
X-140007Y35364D01*
X-140089Y35274D01*
X-140187Y35161D01*
X-140277Y35034D01*
X-140360Y34876D01*
X-140435Y34703D01*
Y34695D01*
X-140443Y34680D01*
X-140450Y34658D01*
X-140458Y34620D01*
X-140473Y34575D01*
X-140488Y34522D01*
X-140510Y34395D01*
X-140540Y34244D01*
X-140570Y34079D01*
X-140585Y33898D01*
X-140593Y33703D01*
Y33695D01*
Y33673D01*
Y33635D01*
Y33590D01*
X-140585Y33537D01*
Y33470D01*
X-140578Y33395D01*
X-140570Y33312D01*
X-140548Y33131D01*
X-140510Y32936D01*
X-140465Y32740D01*
X-140405Y32545D01*
Y32538D01*
X-140398Y32522D01*
X-140382Y32500D01*
X-140367Y32462D01*
X-140322Y32372D01*
X-140255Y32267D01*
X-140172Y32147D01*
X-140067Y32019D01*
X-139946Y31906D01*
X-139804Y31801D01*
X-139796D01*
X-139781Y31793D01*
X-139759Y31778D01*
X-139728Y31763D01*
X-139691Y31748D01*
X-139646Y31725D01*
X-139540Y31680D01*
X-139405Y31635D01*
X-139255Y31598D01*
X-139089Y31568D01*
X-138916Y31560D01*
X-138864D01*
X-138819Y31568D01*
X-138766D01*
X-138713Y31575D01*
X-138578Y31605D01*
X-138420Y31643D01*
X-138262Y31703D01*
X-138097Y31786D01*
X-138014Y31831D01*
X-137939Y31891D01*
X-137931Y31899D01*
X-137924Y31906D01*
X-137901Y31929D01*
X-137871Y31951D01*
X-137841Y31989D01*
X-137804Y32034D01*
X-137759Y32079D01*
X-137721Y32139D01*
X-137676Y32207D01*
X-137623Y32282D01*
X-137578Y32357D01*
X-137533Y32447D01*
X-137495Y32545D01*
X-137458Y32650D01*
X-137420Y32763D01*
X-137390Y32883D01*
X-136699Y32710D01*
Y32703D01*
X-136706Y32673D01*
X-136721Y32628D01*
X-136744Y32568D01*
X-136766Y32500D01*
X-136796Y32417D01*
X-136834Y32327D01*
X-136879Y32229D01*
X-136984Y32019D01*
X-137120Y31808D01*
X-137202Y31703D01*
X-137285Y31598D01*
X-137375Y31507D01*
X-137480Y31417D01*
X-137488Y31410D01*
X-137503Y31395D01*
X-137541Y31380D01*
X-137578Y31350D01*
X-137638Y31312D01*
X-137698Y31274D01*
X-137781Y31237D01*
X-137864Y31199D01*
X-137962Y31154D01*
X-138067Y31116D01*
X-138180Y31079D01*
X-138300Y31041D01*
X-138428Y31011D01*
X-138563Y30996D01*
X-138706Y30981D01*
X-138856Y30974D01*
X-138939D01*
X-138999Y30981D01*
X-139067D01*
X-139150Y30989D01*
X-139240Y31004D01*
X-139345Y31019D01*
X-139563Y31056D01*
X-139789Y31116D01*
X-140014Y31199D01*
X-140119Y31252D01*
X-140225Y31312D01*
X-140232Y31319D01*
X-140247Y31327D01*
X-140277Y31350D01*
X-140307Y31380D01*
X-140352Y31410D01*
X-140405Y31455D01*
X-140465Y31507D01*
X-140525Y31568D01*
X-140585Y31635D01*
X-140653Y31703D01*
X-140788Y31876D01*
X-140916Y32079D01*
X-141029Y32304D01*
Y32312D01*
X-141044Y32334D01*
X-141052Y32372D01*
X-141074Y32417D01*
X-141089Y32477D01*
X-141112Y32553D01*
X-141142Y32635D01*
X-141164Y32726D01*
X-141187Y32823D01*
X-141217Y32936D01*
X-141255Y33169D01*
X-141285Y33432D01*
X-141300Y33703D01*
Y33710D01*
Y33740D01*
Y33786D01*
X-141292Y33838D01*
Y33913D01*
X-141285Y33989D01*
X-141277Y34086D01*
X-141262Y34184D01*
X-141225Y34402D01*
X-141172Y34643D01*
X-141097Y34883D01*
X-140991Y35116D01*
X-140984Y35124D01*
X-140976Y35146D01*
X-140961Y35176D01*
X-140931Y35214D01*
X-140901Y35267D01*
X-140864Y35327D01*
X-140766Y35462D01*
X-140638Y35613D01*
X-140488Y35763D01*
X-140315Y35913D01*
X-140112Y36041D01*
X-140104Y36049D01*
X-140082Y36056D01*
X-140052Y36071D01*
X-140014Y36094D01*
X-139954Y36116D01*
X-139894Y36139D01*
X-139819Y36169D01*
X-139736Y36199D01*
X-139646Y36229D01*
X-139548Y36259D01*
X-139337Y36304D01*
X-139097Y36342D01*
X-138849Y36357D01*
X-138774D01*
X-138721Y36349D01*
D02*
G37*
G36*
X-132909Y35590D02*
X-134992D01*
X-135270Y34184D01*
X-135262Y34192D01*
X-135247Y34199D01*
X-135225Y34214D01*
X-135187Y34237D01*
X-135142Y34259D01*
X-135090Y34289D01*
X-134969Y34350D01*
X-134819Y34410D01*
X-134654Y34462D01*
X-134473Y34500D01*
X-134383Y34515D01*
X-134217D01*
X-134172Y34507D01*
X-134112Y34500D01*
X-134045Y34492D01*
X-133969Y34477D01*
X-133887Y34455D01*
X-133706Y34402D01*
X-133608Y34365D01*
X-133511Y34312D01*
X-133413Y34259D01*
X-133315Y34199D01*
X-133225Y34124D01*
X-133135Y34041D01*
X-133127Y34034D01*
X-133112Y34019D01*
X-133090Y33996D01*
X-133060Y33958D01*
X-133022Y33906D01*
X-132984Y33853D01*
X-132939Y33786D01*
X-132894Y33710D01*
X-132857Y33628D01*
X-132811Y33537D01*
X-132774Y33432D01*
X-132736Y33327D01*
X-132706Y33214D01*
X-132684Y33086D01*
X-132669Y32959D01*
X-132661Y32823D01*
Y32816D01*
Y32793D01*
Y32756D01*
X-132669Y32703D01*
X-132676Y32643D01*
X-132684Y32575D01*
X-132699Y32492D01*
X-132714Y32410D01*
X-132759Y32214D01*
X-132834Y32011D01*
X-132879Y31906D01*
X-132939Y31808D01*
X-132999Y31703D01*
X-133075Y31605D01*
X-133082Y31598D01*
X-133097Y31575D01*
X-133127Y31545D01*
X-133165Y31507D01*
X-133217Y31462D01*
X-133278Y31402D01*
X-133353Y31350D01*
X-133435Y31290D01*
X-133526Y31229D01*
X-133631Y31177D01*
X-133744Y31124D01*
X-133864Y31071D01*
X-133992Y31034D01*
X-134135Y31004D01*
X-134285Y30981D01*
X-134443Y30974D01*
X-134511D01*
X-134563Y30981D01*
X-134623Y30989D01*
X-134691Y30996D01*
X-134774Y31004D01*
X-134857Y31026D01*
X-135044Y31071D01*
X-135232Y31139D01*
X-135330Y31184D01*
X-135428Y31237D01*
X-135518Y31297D01*
X-135608Y31365D01*
X-135616Y31372D01*
X-135631Y31380D01*
X-135646Y31410D01*
X-135676Y31440D01*
X-135714Y31477D01*
X-135751Y31523D01*
X-135796Y31583D01*
X-135834Y31650D01*
X-135879Y31718D01*
X-135924Y31801D01*
X-136007Y31981D01*
X-136074Y32192D01*
X-136097Y32304D01*
X-136112Y32425D01*
X-135443Y32477D01*
Y32470D01*
Y32455D01*
X-135435Y32432D01*
X-135428Y32395D01*
X-135405Y32312D01*
X-135375Y32199D01*
X-135330Y32086D01*
X-135270Y31959D01*
X-135195Y31846D01*
X-135105Y31741D01*
X-135090Y31733D01*
X-135059Y31703D01*
X-134999Y31665D01*
X-134917Y31620D01*
X-134826Y31575D01*
X-134714Y31538D01*
X-134586Y31507D01*
X-134443Y31500D01*
X-134398D01*
X-134368Y31507D01*
X-134278Y31515D01*
X-134172Y31545D01*
X-134045Y31583D01*
X-133917Y31643D01*
X-133781Y31733D01*
X-133721Y31786D01*
X-133661Y31846D01*
X-133653Y31853D01*
X-133646Y31861D01*
X-133631Y31883D01*
X-133608Y31906D01*
X-133556Y31989D01*
X-133496Y32094D01*
X-133443Y32222D01*
X-133390Y32380D01*
X-133353Y32568D01*
X-133338Y32665D01*
Y32771D01*
Y32778D01*
Y32793D01*
Y32823D01*
X-133345Y32861D01*
Y32906D01*
X-133353Y32959D01*
X-133375Y33079D01*
X-133413Y33222D01*
X-133466Y33365D01*
X-133541Y33500D01*
X-133646Y33628D01*
Y33635D01*
X-133661Y33643D01*
X-133699Y33680D01*
X-133766Y33733D01*
X-133856Y33793D01*
X-133977Y33846D01*
X-134112Y33898D01*
X-134270Y33936D01*
X-134360Y33951D01*
X-134503D01*
X-134563Y33944D01*
X-134638Y33936D01*
X-134729Y33913D01*
X-134819Y33891D01*
X-134917Y33853D01*
X-135014Y33808D01*
X-135022Y33801D01*
X-135052Y33786D01*
X-135097Y33748D01*
X-135157Y33710D01*
X-135217Y33658D01*
X-135278Y33590D01*
X-135345Y33522D01*
X-135398Y33440D01*
X-135999Y33522D01*
X-135496Y36199D01*
X-132909D01*
Y35590D01*
D02*
G37*
%LPC*%
G36*
X28697Y4352D02*
X26975D01*
Y2803D01*
X26983Y2713D01*
X26990Y2608D01*
X26998Y2488D01*
X27013Y2367D01*
X27035Y2247D01*
X27065Y2142D01*
X27073Y2127D01*
X27088Y2097D01*
X27111Y2052D01*
X27141Y1991D01*
X27186Y1924D01*
X27238Y1856D01*
X27306Y1788D01*
X27381Y1736D01*
X27389Y1728D01*
X27419Y1713D01*
X27464Y1691D01*
X27524Y1661D01*
X27592Y1638D01*
X27667Y1616D01*
X27757Y1601D01*
X27847Y1593D01*
X27855D01*
X27862D01*
X27908Y1601D01*
X27975Y1608D01*
X28065Y1623D01*
X28156Y1661D01*
X28261Y1706D01*
X28359Y1773D01*
X28456Y1864D01*
X28464Y1879D01*
X28494Y1916D01*
X28531Y1977D01*
X28577Y2074D01*
X28622Y2187D01*
X28659Y2337D01*
X28689Y2510D01*
X28697Y2713D01*
Y4352D01*
D02*
G37*
G36*
X4608Y25471D02*
X3404D01*
Y21501D01*
X4638D01*
X4690Y21509D01*
X4803Y21516D01*
X4931Y21524D01*
X5066Y21539D01*
X5201Y21561D01*
X5314Y21591D01*
X5329Y21599D01*
X5367Y21606D01*
X5419Y21629D01*
X5487Y21659D01*
X5562Y21704D01*
X5638Y21749D01*
X5713Y21802D01*
X5788Y21862D01*
X5795Y21877D01*
X5825Y21907D01*
X5871Y21960D01*
X5923Y22035D01*
X5983Y22133D01*
X6051Y22246D01*
X6111Y22373D01*
X6164Y22516D01*
Y22524D01*
X6171Y22539D01*
X6179Y22561D01*
X6186Y22591D01*
X6194Y22629D01*
X6209Y22682D01*
X6224Y22734D01*
X6239Y22794D01*
X6262Y22945D01*
X6284Y23118D01*
X6299Y23313D01*
X6307Y23524D01*
Y23531D01*
Y23561D01*
Y23599D01*
X6299Y23659D01*
Y23727D01*
X6292Y23802D01*
X6284Y23892D01*
X6277Y23982D01*
X6239Y24185D01*
X6194Y24396D01*
X6126Y24591D01*
X6081Y24689D01*
X6036Y24772D01*
Y24779D01*
X6021Y24794D01*
X6006Y24817D01*
X5991Y24847D01*
X5931Y24922D01*
X5856Y25012D01*
X5758Y25110D01*
X5645Y25208D01*
X5517Y25290D01*
X5382Y25358D01*
X5367Y25366D01*
X5329Y25373D01*
X5262Y25396D01*
X5164Y25418D01*
X5044Y25433D01*
X4893Y25456D01*
X4803Y25463D01*
X4705D01*
X4608Y25471D01*
D02*
G37*
%LPD*%
D10*
X-178728Y-111253D02*
G03*
X-178728Y-111253I-1250J0D01*
G01*
X-1492Y-10612D02*
G03*
X-1492Y-10612I-1250J0D01*
G01*
X29332Y50725D02*
G03*
X29332Y50725I-1250J0D01*
G01*
D11*
X75110Y52475D02*
G03*
X75110Y52475I-2500J0D01*
G01*
D12*
X-194578Y-79653D02*
X-114578D01*
Y-106354D02*
Y-79653D01*
X-194578Y-106354D02*
X-114578D01*
X-194578D02*
Y-79653D01*
X-167278Y-106354D02*
Y-79653D01*
X-10742Y-2362D02*
Y15638D01*
X5258Y-2362D02*
Y15638D01*
X-32285Y42396D02*
X-12163D01*
X-32285Y59396D02*
X-12163D01*
X125900Y-67287D02*
Y-50205D01*
X108318Y-67287D02*
Y-50205D01*
X65110Y-42025D02*
Y59975D01*
Y-42025D02*
X101085D01*
Y59975D01*
X65110D02*
X101085D01*
X39740Y-71443D02*
Y-54361D01*
X57322Y-71443D02*
Y-54361D01*
D13*
X-141748Y5030D02*
Y25530D01*
X-130748Y4780D02*
Y25530D01*
D14*
X-138248Y14280D02*
X-134248D01*
X-138248Y16280D02*
X-134248D01*
X-136248D02*
Y17280D01*
Y13280D02*
Y14280D01*
D15*
X184912Y83052D02*
Y70356D01*
X187451Y67817D01*
X192529D01*
X195068Y70356D01*
Y83052D01*
X210304D02*
X205225Y80513D01*
X200147Y75434D01*
Y70356D01*
X202686Y67817D01*
X207764D01*
X210304Y70356D01*
Y72895D01*
X207764Y75434D01*
X200147D01*
X-269917Y-15215D02*
X-261645D01*
X-258888Y-14296D01*
X-257969Y-13377D01*
X-257050Y-11539D01*
Y-8782D01*
X-257969Y-6944D01*
X-258888Y-6025D01*
X-261645Y-5106D01*
X-269917D01*
Y-24406D01*
X-241702Y-5106D02*
X-250892D01*
X-251812Y-13377D01*
X-250892Y-12458D01*
X-248135Y-11539D01*
X-245378D01*
X-242621Y-12458D01*
X-240783Y-14296D01*
X-239864Y-17053D01*
Y-18891D01*
X-240783Y-21648D01*
X-242621Y-23486D01*
X-245378Y-24406D01*
X-248135D01*
X-250892Y-23486D01*
X-251812Y-22567D01*
X-252731Y-20729D01*
X-134620Y-53340D02*
Y-72640D01*
Y-53340D02*
X-126349D01*
X-123591Y-54259D01*
X-122673Y-55178D01*
X-121753Y-57016D01*
Y-58854D01*
X-122673Y-60692D01*
X-123591Y-61611D01*
X-126349Y-62530D01*
X-134620D01*
X-128187D02*
X-121753Y-72640D01*
X-171634Y-57935D02*
X-172553Y-56097D01*
X-174391Y-54259D01*
X-176230Y-53340D01*
X-179906D01*
X-181744Y-54259D01*
X-183582Y-56097D01*
X-184501Y-57935D01*
X-185420Y-60692D01*
Y-65287D01*
X-184501Y-68045D01*
X-183582Y-69883D01*
X-181744Y-71721D01*
X-179906Y-72640D01*
X-176230D01*
X-174391Y-71721D01*
X-172553Y-69883D01*
X-171634Y-68045D01*
X-160020Y-53340D02*
Y-71116D01*
Y-53340D02*
X-154095D01*
X-151555Y-54187D01*
X-149862Y-55880D01*
X-149016Y-57572D01*
X-148169Y-60112D01*
Y-64344D01*
X-149016Y-66884D01*
X-149862Y-68577D01*
X-151555Y-70270D01*
X-154095Y-71116D01*
X-160020D01*
X-88330Y87567D02*
X-80058D01*
X-77301Y88486D01*
X-76382Y89405D01*
X-75463Y91243D01*
Y94001D01*
X-76382Y95839D01*
X-77301Y96758D01*
X-80058Y97677D01*
X-88330D01*
Y78377D01*
X-70225Y93082D02*
Y94001D01*
X-69306Y95839D01*
X-68387Y96758D01*
X-66549Y97677D01*
X-62872D01*
X-61034Y96758D01*
X-60115Y95839D01*
X-59196Y94001D01*
Y92163D01*
X-60115Y90324D01*
X-61953Y87567D01*
X-71144Y78377D01*
X-58277D01*
X-49363Y97677D02*
Y86648D01*
X-53958Y94920D02*
X-44767Y89405D01*
Y94920D02*
X-53958Y89405D01*
X-88115Y-88861D02*
X-79844D01*
X-77087Y-87942D01*
X-76167Y-87023D01*
X-75248Y-85185D01*
Y-82428D01*
X-76167Y-80590D01*
X-77087Y-79671D01*
X-79844Y-78752D01*
X-88115D01*
Y-98052D01*
X-69091Y-78752D02*
X-58981D01*
X-64496Y-86104D01*
X-61739D01*
X-59900Y-87023D01*
X-58981Y-87942D01*
X-58062Y-90700D01*
Y-92538D01*
X-58981Y-95295D01*
X-60820Y-97133D01*
X-63577Y-98052D01*
X-66334D01*
X-69091Y-97133D01*
X-70010Y-96214D01*
X-70929Y-94376D01*
X-248520Y-84882D02*
X-240249D01*
X-237492Y-83963D01*
X-236573Y-83044D01*
X-235653Y-81206D01*
Y-78449D01*
X-236573Y-76611D01*
X-237492Y-75692D01*
X-240249Y-74773D01*
X-248520D01*
Y-94073D01*
X-222144Y-74773D02*
X-231334Y-87640D01*
X-217548D01*
X-222144Y-74773D02*
Y-94073D01*
X-263528Y94954D02*
X-255257D01*
X-252500Y95873D01*
X-251581Y96792D01*
X-250662Y98631D01*
Y101388D01*
X-251581Y103226D01*
X-252500Y104145D01*
X-255257Y105064D01*
X-263528D01*
Y85764D01*
X-246342Y101388D02*
X-244504Y102307D01*
X-241747Y105064D01*
Y85764D01*
D16*
X256673Y-83590D02*
X257060Y-83977D01*
X256673Y-84364D01*
X256286Y-83977D01*
Y-83590D01*
X256673Y-82816D01*
X257060Y-82429D01*
X258221Y-82042D01*
X259769D01*
X260930Y-82429D01*
X261317Y-83203D01*
Y-84364D01*
X260930Y-85138D01*
X259769Y-85525D01*
X258608D01*
X259769Y-82042D02*
X260543Y-82429D01*
X260930Y-83203D01*
Y-84364D01*
X260543Y-85138D01*
X259769Y-85525D01*
X260543Y-85912D01*
X261317Y-86686D01*
X261703Y-87459D01*
Y-88620D01*
X261317Y-89394D01*
X260930Y-89781D01*
X259769Y-90168D01*
X258221D01*
X257060Y-89781D01*
X256673Y-89394D01*
X256286Y-88620D01*
Y-88233D01*
X256673Y-87846D01*
X257060Y-88233D01*
X256673Y-88620D01*
X260930Y-86299D02*
X261317Y-87459D01*
Y-88620D01*
X260930Y-89394D01*
X260543Y-89781D01*
X259769Y-90168D01*
X263677Y-82042D02*
X266386Y-90168D01*
X264064Y-82042D02*
X266386Y-89007D01*
X269095Y-82042D02*
X266386Y-90168D01*
X262903Y-82042D02*
X265225D01*
X267547D02*
X269869D01*
X271300Y-83590D02*
X271687Y-83977D01*
X271300Y-84364D01*
X270913Y-83977D01*
Y-83590D01*
X271300Y-82816D01*
X271687Y-82429D01*
X272848Y-82042D01*
X274396D01*
X275557Y-82429D01*
X275944Y-83203D01*
Y-84364D01*
X275557Y-85138D01*
X274396Y-85525D01*
X273235D01*
X274396Y-82042D02*
X275170Y-82429D01*
X275557Y-83203D01*
Y-84364D01*
X275170Y-85138D01*
X274396Y-85525D01*
X275170Y-85912D01*
X275944Y-86686D01*
X276331Y-87459D01*
Y-88620D01*
X275944Y-89394D01*
X275557Y-89781D01*
X274396Y-90168D01*
X272848D01*
X271687Y-89781D01*
X271300Y-89394D01*
X270913Y-88620D01*
Y-88233D01*
X271300Y-87846D01*
X271687Y-88233D01*
X271300Y-88620D01*
X275557Y-86299D02*
X275944Y-87459D01*
Y-88620D01*
X275557Y-89394D01*
X275170Y-89781D01*
X274396Y-90168D01*
X256673Y89130D02*
X257060Y88743D01*
X256673Y88356D01*
X256286Y88743D01*
Y89130D01*
X256673Y89904D01*
X257060Y90291D01*
X258221Y90678D01*
X259769D01*
X260930Y90291D01*
X261317Y89517D01*
Y88356D01*
X260930Y87582D01*
X259769Y87195D01*
X258608D01*
X259769Y90678D02*
X260543Y90291D01*
X260930Y89517D01*
Y88356D01*
X260543Y87582D01*
X259769Y87195D01*
X260543Y86808D01*
X261317Y86034D01*
X261703Y85260D01*
Y84100D01*
X261317Y83326D01*
X260930Y82939D01*
X259769Y82552D01*
X258221D01*
X257060Y82939D01*
X256673Y83326D01*
X256286Y84100D01*
Y84487D01*
X256673Y84874D01*
X257060Y84487D01*
X256673Y84100D01*
X260930Y86421D02*
X261317Y85260D01*
Y84100D01*
X260930Y83326D01*
X260543Y82939D01*
X259769Y82552D01*
X263677Y90678D02*
X266386Y82552D01*
X264064Y90678D02*
X266386Y83713D01*
X269095Y90678D02*
X266386Y82552D01*
X262903Y90678D02*
X265225D01*
X267547D02*
X269869D01*
X271300Y89130D02*
X271687Y88743D01*
X271300Y88356D01*
X270913Y88743D01*
Y89130D01*
X271300Y89904D01*
X271687Y90291D01*
X272848Y90678D01*
X274396D01*
X275557Y90291D01*
X275944Y89517D01*
Y88356D01*
X275557Y87582D01*
X274396Y87195D01*
X273235D01*
X274396Y90678D02*
X275170Y90291D01*
X275557Y89517D01*
Y88356D01*
X275170Y87582D01*
X274396Y87195D01*
X275170Y86808D01*
X275944Y86034D01*
X276331Y85260D01*
Y84100D01*
X275944Y83326D01*
X275557Y82939D01*
X274396Y82552D01*
X272848D01*
X271687Y82939D01*
X271300Y83326D01*
X270913Y84100D01*
Y84487D01*
X271300Y84874D01*
X271687Y84487D01*
X271300Y84100D01*
X275557Y86421D02*
X275944Y85260D01*
Y84100D01*
X275557Y83326D01*
X275170Y82939D01*
X274396Y82552D01*
X139833Y-144550D02*
X140220Y-144937D01*
X139833Y-145324D01*
X139446Y-144937D01*
Y-144550D01*
X139833Y-143776D01*
X140220Y-143389D01*
X141381Y-143002D01*
X142929D01*
X144090Y-143389D01*
X144476Y-144163D01*
Y-145324D01*
X144090Y-146098D01*
X142929Y-146485D01*
X141768D01*
X142929Y-143002D02*
X143703Y-143389D01*
X144090Y-144163D01*
Y-145324D01*
X143703Y-146098D01*
X142929Y-146485D01*
X143703Y-146872D01*
X144476Y-147646D01*
X144864Y-148420D01*
Y-149580D01*
X144476Y-150354D01*
X144090Y-150741D01*
X142929Y-151128D01*
X141381D01*
X140220Y-150741D01*
X139833Y-150354D01*
X139446Y-149580D01*
Y-149193D01*
X139833Y-148806D01*
X140220Y-149193D01*
X139833Y-149580D01*
X144090Y-147259D02*
X144476Y-148420D01*
Y-149580D01*
X144090Y-150354D01*
X143703Y-150741D01*
X142929Y-151128D01*
X146837Y-143002D02*
X149546Y-151128D01*
X147224Y-143002D02*
X149546Y-149967D01*
X152254Y-143002D02*
X149546Y-151128D01*
X146063Y-143002D02*
X148385D01*
X150707D02*
X153028D01*
X154460Y-144550D02*
X154847Y-144937D01*
X154460Y-145324D01*
X154073Y-144937D01*
Y-144550D01*
X154460Y-143776D01*
X154847Y-143389D01*
X156008Y-143002D01*
X157556D01*
X158717Y-143389D01*
X159104Y-144163D01*
Y-145324D01*
X158717Y-146098D01*
X157556Y-146485D01*
X156395D01*
X157556Y-143002D02*
X158330Y-143389D01*
X158717Y-144163D01*
Y-145324D01*
X158330Y-146098D01*
X157556Y-146485D01*
X158330Y-146872D01*
X159104Y-147646D01*
X159491Y-148420D01*
Y-149580D01*
X159104Y-150354D01*
X158717Y-150741D01*
X157556Y-151128D01*
X156008D01*
X154847Y-150741D01*
X154460Y-150354D01*
X154073Y-149580D01*
Y-149193D01*
X154460Y-148806D01*
X154847Y-149193D01*
X154460Y-149580D01*
X158717Y-147259D02*
X159104Y-148420D01*
Y-149580D01*
X158717Y-150354D01*
X158330Y-150741D01*
X157556Y-151128D01*
X139833Y150090D02*
X140220Y149703D01*
X139833Y149316D01*
X139446Y149703D01*
Y150090D01*
X139833Y150864D01*
X140220Y151251D01*
X141381Y151638D01*
X142929D01*
X144090Y151251D01*
X144476Y150477D01*
Y149316D01*
X144090Y148542D01*
X142929Y148155D01*
X141768D01*
X142929Y151638D02*
X143703Y151251D01*
X144090Y150477D01*
Y149316D01*
X143703Y148542D01*
X142929Y148155D01*
X143703Y147768D01*
X144476Y146994D01*
X144864Y146221D01*
Y145060D01*
X144476Y144286D01*
X144090Y143899D01*
X142929Y143512D01*
X141381D01*
X140220Y143899D01*
X139833Y144286D01*
X139446Y145060D01*
Y145447D01*
X139833Y145834D01*
X140220Y145447D01*
X139833Y145060D01*
X144090Y147381D02*
X144476Y146221D01*
Y145060D01*
X144090Y144286D01*
X143703Y143899D01*
X142929Y143512D01*
X146837Y151638D02*
X149546Y143512D01*
X147224Y151638D02*
X149546Y144673D01*
X152254Y151638D02*
X149546Y143512D01*
X146063Y151638D02*
X148385D01*
X150707D02*
X153028D01*
X154460Y150090D02*
X154847Y149703D01*
X154460Y149316D01*
X154073Y149703D01*
Y150090D01*
X154460Y150864D01*
X154847Y151251D01*
X156008Y151638D01*
X157556D01*
X158717Y151251D01*
X159104Y150477D01*
Y149316D01*
X158717Y148542D01*
X157556Y148155D01*
X156395D01*
X157556Y151638D02*
X158330Y151251D01*
X158717Y150477D01*
Y149316D01*
X158330Y148542D01*
X157556Y148155D01*
X158330Y147768D01*
X159104Y146994D01*
X159491Y146221D01*
Y145060D01*
X159104Y144286D01*
X158717Y143899D01*
X157556Y143512D01*
X156008D01*
X154847Y143899D01*
X154460Y144286D01*
X154073Y145060D01*
Y145447D01*
X154460Y145834D01*
X154847Y145447D01*
X154460Y145060D01*
X158717Y147381D02*
X159104Y146221D01*
Y145060D01*
X158717Y144286D01*
X158330Y143899D01*
X157556Y143512D01*
X-12567Y-58190D02*
X-12180Y-58577D01*
X-12567Y-58964D01*
X-12954Y-58577D01*
Y-58190D01*
X-12567Y-57416D01*
X-12180Y-57029D01*
X-11019Y-56642D01*
X-9471D01*
X-8310Y-57029D01*
X-7923Y-57803D01*
Y-58964D01*
X-8310Y-59738D01*
X-9471Y-60125D01*
X-10632D01*
X-9471Y-56642D02*
X-8697Y-57029D01*
X-8310Y-57803D01*
Y-58964D01*
X-8697Y-59738D01*
X-9471Y-60125D01*
X-8697Y-60512D01*
X-7923Y-61286D01*
X-7537Y-62059D01*
Y-63220D01*
X-7923Y-63994D01*
X-8310Y-64381D01*
X-9471Y-64768D01*
X-11019D01*
X-12180Y-64381D01*
X-12567Y-63994D01*
X-12954Y-63220D01*
Y-62833D01*
X-12567Y-62446D01*
X-12180Y-62833D01*
X-12567Y-63220D01*
X-8310Y-60899D02*
X-7923Y-62059D01*
Y-63220D01*
X-8310Y-63994D01*
X-8697Y-64381D01*
X-9471Y-64768D01*
X-5563Y-56642D02*
X-2854Y-64768D01*
X-5176Y-56642D02*
X-2854Y-63607D01*
X-146Y-56642D02*
X-2854Y-64768D01*
X-6337Y-56642D02*
X-4015D01*
X-1693D02*
X628D01*
X2060Y-58190D02*
X2447Y-58577D01*
X2060Y-58964D01*
X1673Y-58577D01*
Y-58190D01*
X2060Y-57416D01*
X2447Y-57029D01*
X3608Y-56642D01*
X5156D01*
X6317Y-57029D01*
X6704Y-57803D01*
Y-58964D01*
X6317Y-59738D01*
X5156Y-60125D01*
X3995D01*
X5156Y-56642D02*
X5930Y-57029D01*
X6317Y-57803D01*
Y-58964D01*
X5930Y-59738D01*
X5156Y-60125D01*
X5930Y-60512D01*
X6704Y-61286D01*
X7091Y-62059D01*
Y-63220D01*
X6704Y-63994D01*
X6317Y-64381D01*
X5156Y-64768D01*
X3608D01*
X2447Y-64381D01*
X2060Y-63994D01*
X1673Y-63220D01*
Y-62833D01*
X2060Y-62446D01*
X2447Y-62833D01*
X2060Y-63220D01*
X6317Y-60899D02*
X6704Y-62059D01*
Y-63220D01*
X6317Y-63994D01*
X5930Y-64381D01*
X5156Y-64768D01*
X20518Y81257D02*
X20905Y80870D01*
X20518Y80483D01*
X20131Y80870D01*
Y81257D01*
X20518Y82031D01*
X20905Y82418D01*
X22066Y82805D01*
X23614D01*
X24774Y82418D01*
X25161Y81644D01*
Y80483D01*
X24774Y79709D01*
X23614Y79322D01*
X22453D01*
X23614Y82805D02*
X24388Y82418D01*
X24774Y81644D01*
Y80483D01*
X24388Y79709D01*
X23614Y79322D01*
X24388Y78935D01*
X25161Y78161D01*
X25549Y77387D01*
Y76226D01*
X25161Y75452D01*
X24774Y75065D01*
X23614Y74678D01*
X22066D01*
X20905Y75065D01*
X20518Y75452D01*
X20131Y76226D01*
Y76613D01*
X20518Y77000D01*
X20905Y76613D01*
X20518Y76226D01*
X24774Y78548D02*
X25161Y77387D01*
Y76226D01*
X24774Y75452D01*
X24388Y75065D01*
X23614Y74678D01*
X27522Y82805D02*
X30231Y74678D01*
X27909Y82805D02*
X30231Y75839D01*
X32940Y82805D02*
X30231Y74678D01*
X26748Y82805D02*
X29070D01*
X31392D02*
X33713D01*
X35145Y81257D02*
X35532Y80870D01*
X35145Y80483D01*
X34758Y80870D01*
Y81257D01*
X35145Y82031D01*
X35532Y82418D01*
X36693Y82805D01*
X38241D01*
X39402Y82418D01*
X39789Y81644D01*
Y80483D01*
X39402Y79709D01*
X38241Y79322D01*
X37080D01*
X38241Y82805D02*
X39015Y82418D01*
X39402Y81644D01*
Y80483D01*
X39015Y79709D01*
X38241Y79322D01*
X39015Y78935D01*
X39789Y78161D01*
X40176Y77387D01*
Y76226D01*
X39789Y75452D01*
X39402Y75065D01*
X38241Y74678D01*
X36693D01*
X35532Y75065D01*
X35145Y75452D01*
X34758Y76226D01*
Y76613D01*
X35145Y77000D01*
X35532Y76613D01*
X35145Y76226D01*
X39402Y78548D02*
X39789Y77387D01*
Y76226D01*
X39402Y75452D01*
X39015Y75065D01*
X38241Y74678D01*
X-159887Y150090D02*
X-159500Y149703D01*
X-159887Y149316D01*
X-160274Y149703D01*
Y150090D01*
X-159887Y150864D01*
X-159500Y151251D01*
X-158339Y151638D01*
X-156791D01*
X-155630Y151251D01*
X-155244Y150477D01*
Y149316D01*
X-155630Y148542D01*
X-156791Y148155D01*
X-157952D01*
X-156791Y151638D02*
X-156017Y151251D01*
X-155630Y150477D01*
Y149316D01*
X-156017Y148542D01*
X-156791Y148155D01*
X-156017Y147768D01*
X-155244Y146994D01*
X-154857Y146221D01*
Y145060D01*
X-155244Y144286D01*
X-155630Y143899D01*
X-156791Y143512D01*
X-158339D01*
X-159500Y143899D01*
X-159887Y144286D01*
X-160274Y145060D01*
Y145447D01*
X-159887Y145834D01*
X-159500Y145447D01*
X-159887Y145060D01*
X-155630Y147381D02*
X-155244Y146221D01*
Y145060D01*
X-155630Y144286D01*
X-156017Y143899D01*
X-156791Y143512D01*
X-152883Y151638D02*
X-150174Y143512D01*
X-152496Y151638D02*
X-150174Y144673D01*
X-147465Y151638D02*
X-150174Y143512D01*
X-153657Y151638D02*
X-151335D01*
X-149013D02*
X-146692D01*
X-145260Y150090D02*
X-144873Y149703D01*
X-145260Y149316D01*
X-145647Y149703D01*
Y150090D01*
X-145260Y150864D01*
X-144873Y151251D01*
X-143712Y151638D01*
X-142164D01*
X-141003Y151251D01*
X-140616Y150477D01*
Y149316D01*
X-141003Y148542D01*
X-142164Y148155D01*
X-143325D01*
X-142164Y151638D02*
X-141390Y151251D01*
X-141003Y150477D01*
Y149316D01*
X-141390Y148542D01*
X-142164Y148155D01*
X-141390Y147768D01*
X-140616Y146994D01*
X-140229Y146221D01*
Y145060D01*
X-140616Y144286D01*
X-141003Y143899D01*
X-142164Y143512D01*
X-143712D01*
X-144873Y143899D01*
X-145260Y144286D01*
X-145647Y145060D01*
Y145447D01*
X-145260Y145834D01*
X-144873Y145447D01*
X-145260Y145060D01*
X-141003Y147381D02*
X-140616Y146221D01*
Y145060D01*
X-141003Y144286D01*
X-141390Y143899D01*
X-142164Y143512D01*
X-141865Y-150090D02*
X-142252Y-149703D01*
X-141865Y-149316D01*
X-141478Y-149703D01*
Y-150090D01*
X-141865Y-150864D01*
X-142252Y-151251D01*
X-143413Y-151638D01*
X-144961D01*
X-146122Y-151251D01*
X-146509Y-150477D01*
Y-149316D01*
X-146122Y-148542D01*
X-144961Y-148155D01*
X-143800D01*
X-144961Y-151638D02*
X-145735Y-151251D01*
X-146122Y-150477D01*
Y-149316D01*
X-145735Y-148542D01*
X-144961Y-148155D01*
X-145735Y-147768D01*
X-146509Y-146994D01*
X-146896Y-146221D01*
Y-145060D01*
X-146509Y-144286D01*
X-146122Y-143899D01*
X-144961Y-143512D01*
X-143413D01*
X-142252Y-143899D01*
X-141865Y-144286D01*
X-141478Y-145060D01*
Y-145447D01*
X-141865Y-145834D01*
X-142252Y-145447D01*
X-141865Y-145060D01*
X-146122Y-147381D02*
X-146509Y-146221D01*
Y-145060D01*
X-146122Y-144286D01*
X-145735Y-143899D01*
X-144961Y-143512D01*
X-148869Y-151638D02*
X-151578Y-143512D01*
X-149256Y-151638D02*
X-151578Y-144673D01*
X-154286Y-151638D02*
X-151578Y-143512D01*
X-148095Y-151638D02*
X-150417D01*
X-152739D02*
X-155061D01*
X-156492Y-150090D02*
X-156879Y-149703D01*
X-156492Y-149316D01*
X-156105Y-149703D01*
Y-150090D01*
X-156492Y-150864D01*
X-156879Y-151251D01*
X-158040Y-151638D01*
X-159588D01*
X-160749Y-151251D01*
X-161136Y-150477D01*
Y-149316D01*
X-160749Y-148542D01*
X-159588Y-148155D01*
X-158427D01*
X-159588Y-151638D02*
X-160362Y-151251D01*
X-160749Y-150477D01*
Y-149316D01*
X-160362Y-148542D01*
X-159588Y-148155D01*
X-160362Y-147768D01*
X-161136Y-146994D01*
X-161523Y-146221D01*
Y-145060D01*
X-161136Y-144286D01*
X-160749Y-143899D01*
X-159588Y-143512D01*
X-158040D01*
X-156879Y-143899D01*
X-156492Y-144286D01*
X-156105Y-145060D01*
Y-145447D01*
X-156492Y-145834D01*
X-156879Y-145447D01*
X-156492Y-145060D01*
X-160749Y-147381D02*
X-161136Y-146221D01*
Y-145060D01*
X-160749Y-144286D01*
X-160362Y-143899D01*
X-159588Y-143512D01*
X-279250Y-72849D02*
X-278863Y-73236D01*
X-279250Y-73623D01*
X-279637Y-73236D01*
Y-72849D01*
X-279250Y-72076D01*
X-278863Y-71689D01*
X-277702Y-71302D01*
X-276154D01*
X-274994Y-71689D01*
X-274607Y-72463D01*
Y-73623D01*
X-274994Y-74397D01*
X-276154Y-74784D01*
X-277315D01*
X-276154Y-71302D02*
X-275381Y-71689D01*
X-274994Y-72463D01*
Y-73623D01*
X-275381Y-74397D01*
X-276154Y-74784D01*
X-275381Y-75171D01*
X-274607Y-75945D01*
X-274220Y-76719D01*
Y-77880D01*
X-274607Y-78654D01*
X-274994Y-79041D01*
X-276154Y-79428D01*
X-277702D01*
X-278863Y-79041D01*
X-279250Y-78654D01*
X-279637Y-77880D01*
Y-77493D01*
X-279250Y-77106D01*
X-278863Y-77493D01*
X-279250Y-77880D01*
X-274994Y-75558D02*
X-274607Y-76719D01*
Y-77880D01*
X-274994Y-78654D01*
X-275381Y-79041D01*
X-276154Y-79428D01*
X-272246Y-71302D02*
X-269537Y-79428D01*
X-271859Y-71302D02*
X-269537Y-78267D01*
X-266829Y-71302D02*
X-269537Y-79428D01*
X-273020Y-71302D02*
X-270698D01*
X-268377D02*
X-266055D01*
X-264623Y-72849D02*
X-264236Y-73236D01*
X-264623Y-73623D01*
X-265010Y-73236D01*
Y-72849D01*
X-264623Y-72076D01*
X-264236Y-71689D01*
X-263075Y-71302D01*
X-261527D01*
X-260366Y-71689D01*
X-259979Y-72463D01*
Y-73623D01*
X-260366Y-74397D01*
X-261527Y-74784D01*
X-262688D01*
X-261527Y-71302D02*
X-260753Y-71689D01*
X-260366Y-72463D01*
Y-73623D01*
X-260753Y-74397D01*
X-261527Y-74784D01*
X-260753Y-75171D01*
X-259979Y-75945D01*
X-259592Y-76719D01*
Y-77880D01*
X-259979Y-78654D01*
X-260366Y-79041D01*
X-261527Y-79428D01*
X-263075D01*
X-264236Y-79041D01*
X-264623Y-78654D01*
X-265010Y-77880D01*
Y-77493D01*
X-264623Y-77106D01*
X-264236Y-77493D01*
X-264623Y-77880D01*
X-260366Y-75558D02*
X-259979Y-76719D01*
Y-77880D01*
X-260366Y-78654D01*
X-260753Y-79041D01*
X-261527Y-79428D01*
X-297236Y44295D02*
X-296849Y44682D01*
X-296462Y44295D01*
X-296849Y43908D01*
X-297236D01*
X-298010Y44295D01*
X-298397Y44682D01*
X-298784Y45843D01*
Y47390D01*
X-298397Y48551D01*
X-297623Y48938D01*
X-296462D01*
X-295688Y48551D01*
X-295302Y47390D01*
Y46230D01*
X-298784Y47390D02*
X-298397Y48165D01*
X-297623Y48551D01*
X-296462D01*
X-295688Y48165D01*
X-295302Y47390D01*
X-294915Y48165D01*
X-294141Y48938D01*
X-293367Y49325D01*
X-292206D01*
X-291432Y48938D01*
X-291045Y48551D01*
X-290658Y47390D01*
Y45843D01*
X-291045Y44682D01*
X-291432Y44295D01*
X-292206Y43908D01*
X-292593D01*
X-292980Y44295D01*
X-292593Y44682D01*
X-292206Y44295D01*
X-294528Y48551D02*
X-293367Y48938D01*
X-292206D01*
X-291432Y48551D01*
X-291045Y48165D01*
X-290658Y47390D01*
X-298784Y51299D02*
X-290658Y54008D01*
X-298784Y51686D02*
X-291819Y54008D01*
X-298784Y56716D02*
X-290658Y54008D01*
X-298784Y50525D02*
Y52847D01*
Y55168D02*
Y57490D01*
X-297236Y58922D02*
X-296849Y59309D01*
X-296462Y58922D01*
X-296849Y58535D01*
X-297236D01*
X-298010Y58922D01*
X-298397Y59309D01*
X-298784Y60470D01*
Y62018D01*
X-298397Y63179D01*
X-297623Y63566D01*
X-296462D01*
X-295688Y63179D01*
X-295302Y62018D01*
Y60857D01*
X-298784Y62018D02*
X-298397Y62792D01*
X-297623Y63179D01*
X-296462D01*
X-295688Y62792D01*
X-295302Y62018D01*
X-294915Y62792D01*
X-294141Y63566D01*
X-293367Y63953D01*
X-292206D01*
X-291432Y63566D01*
X-291045Y63179D01*
X-290658Y62018D01*
Y60470D01*
X-291045Y59309D01*
X-291432Y58922D01*
X-292206Y58535D01*
X-292593D01*
X-292980Y58922D01*
X-292593Y59309D01*
X-292206Y58922D01*
X-294528Y63179D02*
X-293367Y63566D01*
X-292206D01*
X-291432Y63179D01*
X-291045Y62792D01*
X-290658Y62018D01*
D17*
X65465Y78738D02*
Y71332D01*
X66946Y69851D01*
X69908D01*
X71389Y71332D01*
Y78738D01*
X80277D02*
X74352D01*
Y74295D01*
X77314Y75776D01*
X78795D01*
X80277Y74295D01*
Y71332D01*
X78795Y69851D01*
X75833D01*
X74352Y71332D01*
X-65137Y-40548D02*
Y-31661D01*
X-60694D01*
X-59212Y-33142D01*
Y-36105D01*
X-60694Y-37586D01*
X-65137D01*
X-62175D02*
X-59212Y-40548D01*
X-56250D02*
X-53288D01*
X-54769D01*
Y-31661D01*
X-56250Y-33142D01*
X-44401Y-40548D02*
Y-31661D01*
X-48844Y-36105D01*
X-42919D01*
X88173Y-63676D02*
Y-57328D01*
X91347D01*
X92405Y-58386D01*
Y-60502D01*
X91347Y-61560D01*
X88173D01*
X90289D02*
X92405Y-63676D01*
X94521D02*
X96637D01*
X95579D01*
Y-57328D01*
X94521Y-58386D01*
X99811D02*
X100869Y-57328D01*
X102985D01*
X104043Y-58386D01*
Y-59444D01*
X102985Y-60502D01*
X101927D01*
X102985D01*
X104043Y-61560D01*
Y-62618D01*
X102985Y-63676D01*
X100869D01*
X99811Y-62618D01*
X61730Y-60207D02*
Y-53859D01*
X64904D01*
X65962Y-54917D01*
Y-57033D01*
X64904Y-58091D01*
X61730D01*
X63846D02*
X65962Y-60207D01*
X68078D02*
X70194D01*
X69136D01*
Y-53859D01*
X68078Y-54917D01*
X77600Y-60207D02*
X73368D01*
X77600Y-55975D01*
Y-54917D01*
X76542Y-53859D01*
X74426D01*
X73368Y-54917D01*
X-64520Y-26996D02*
Y-18109D01*
X-60076D01*
X-58595Y-19590D01*
Y-22553D01*
X-60076Y-24034D01*
X-64520D01*
X-61557D02*
X-58595Y-26996D01*
X-55633D02*
X-52670D01*
X-54152D01*
Y-18109D01*
X-55633Y-19590D01*
X-48227Y-26996D02*
X-45265D01*
X-46746D01*
Y-18109D01*
X-48227Y-19590D01*
X-63149Y46796D02*
Y55683D01*
X-58705D01*
X-57224Y54202D01*
Y51240D01*
X-58705Y49758D01*
X-63149D01*
X-60187D02*
X-57224Y46796D01*
X-54262D02*
X-51300D01*
X-52781D01*
Y55683D01*
X-54262Y54202D01*
X-46856D02*
X-45375Y55683D01*
X-42412D01*
X-40931Y54202D01*
Y48277D01*
X-42412Y46796D01*
X-45375D01*
X-46856Y48277D01*
Y54202D01*
M02*
