G04*
G04 #@! TF.GenerationSoftware,Altium Limited,Altium Designer,25.8.1 (18)*
G04*
G04 Layer_Color=255*
%FSLAX44Y44*%
%MOMM*%
G71*
G04*
G04 #@! TF.SameCoordinates,DC2A109C-38F9-4662-A5C9-921089D2BF11*
G04*
G04*
G04 #@! TF.FilePolarity,Positive*
G04*
G01*
G75*
G04:AMPARAMS|DCode=18|XSize=1mm|YSize=1mm|CornerRadius=0.5mm|HoleSize=0mm|Usage=FLASHONLY|Rotation=90.000|XOffset=0mm|YOffset=0mm|HoleType=Round|Shape=RoundedRectangle|*
%AMROUNDEDRECTD18*
21,1,1.0000,0.0000,0,0,90.0*
21,1,0.0000,1.0000,0,0,90.0*
1,1,1.0000,0.0000,0.0000*
1,1,1.0000,0.0000,0.0000*
1,1,1.0000,0.0000,0.0000*
1,1,1.0000,0.0000,0.0000*
%
%ADD18ROUNDEDRECTD18*%
G04:AMPARAMS|DCode=20|XSize=1mm|YSize=1mm|CornerRadius=0.5mm|HoleSize=0mm|Usage=FLASHONLY|Rotation=210.000|XOffset=0mm|YOffset=0mm|HoleType=Round|Shape=RoundedRectangle|*
%AMROUNDEDRECTD20*
21,1,1.0000,0.0000,0,0,210.0*
21,1,0.0000,1.0000,0,0,210.0*
1,1,1.0000,0.0000,0.0000*
1,1,1.0000,0.0000,0.0000*
1,1,1.0000,0.0000,0.0000*
1,1,1.0000,0.0000,0.0000*
%
%ADD20ROUNDEDRECTD20*%
G04:AMPARAMS|DCode=21|XSize=1mm|YSize=1mm|CornerRadius=0.5mm|HoleSize=0mm|Usage=FLASHONLY|Rotation=150.000|XOffset=0mm|YOffset=0mm|HoleType=Round|Shape=RoundedRectangle|*
%AMROUNDEDRECTD21*
21,1,1.0000,0.0000,0,0,150.0*
21,1,0.0000,1.0000,0,0,150.0*
1,1,1.0000,0.0000,0.0000*
1,1,1.0000,0.0000,0.0000*
1,1,1.0000,0.0000,0.0000*
1,1,1.0000,0.0000,0.0000*
%
%ADD21ROUNDEDRECTD21*%
%ADD27R,0.8900X0.6400*%
%ADD36R,1.5700X1.5700*%
%ADD37C,1.5700*%
%ADD45C,9.9060*%
%ADD46R,1.3970X1.0922*%
%ADD47R,0.5000X0.9000*%
%ADD48R,0.6000X0.8000*%
%ADD49R,0.8000X0.9500*%
%ADD50R,0.3000X0.8500*%
%ADD51R,0.8500X0.3000*%
%ADD52R,5.7000X5.7000*%
%ADD53R,0.4001X1.9000*%
D18*
X-1679Y77521D02*
D03*
Y-77521D02*
D03*
X-80899Y-123901D02*
D03*
X290700Y-82601D02*
D03*
X-295468Y82601D02*
D03*
X-223901Y123901D02*
D03*
D20*
X147599Y165199D02*
D03*
Y-165199D02*
D03*
X-152400Y165199D02*
D03*
Y-165199D02*
D03*
X-223901Y-123901D02*
D03*
X-80899Y123901D02*
D03*
D21*
X-295501Y0D02*
D03*
X-295468Y-82601D02*
D03*
X290700Y82601D02*
D03*
D27*
X-180237Y64056D02*
D03*
Y50056D02*
D03*
X-167537D02*
D03*
Y64056D02*
D03*
D36*
X-179978Y-93003D02*
D03*
D37*
X-154578D02*
D03*
X-129178D02*
D03*
D45*
X231803Y10668D02*
D03*
D46*
X-218186Y51689D02*
D03*
Y70231D02*
D03*
X-196596Y51689D02*
D03*
Y70231D02*
D03*
D47*
X-261928Y48953D02*
D03*
Y71953D02*
D03*
D48*
X-234046Y52070D02*
D03*
X-248046D02*
D03*
D49*
X-234796Y71120D02*
D03*
X-247296D02*
D03*
X-197766Y-50800D02*
D03*
X-185266D02*
D03*
D50*
X-178405Y34572D02*
D03*
X-173405D02*
D03*
X-168405D02*
D03*
X-163405D02*
D03*
X-158405D02*
D03*
X-153405D02*
D03*
X-133405D02*
D03*
X-128405D02*
D03*
X-123405D02*
D03*
Y-34428D02*
D03*
X-128405D02*
D03*
X-133405D02*
D03*
X-138405D02*
D03*
X-143405D02*
D03*
X-153405D02*
D03*
X-158405D02*
D03*
X-163405D02*
D03*
X-168405D02*
D03*
X-173405D02*
D03*
X-178405D02*
D03*
X-148405Y34572D02*
D03*
X-138405D02*
D03*
X-143405D02*
D03*
X-148405Y-34428D02*
D03*
D51*
X-116405Y27572D02*
D03*
Y22572D02*
D03*
Y17572D02*
D03*
Y12572D02*
D03*
Y7572D02*
D03*
Y2572D02*
D03*
Y-2428D02*
D03*
Y-7428D02*
D03*
Y-12428D02*
D03*
Y-17428D02*
D03*
Y-22428D02*
D03*
Y-27428D02*
D03*
X-185405D02*
D03*
Y-22428D02*
D03*
Y-17428D02*
D03*
Y-12428D02*
D03*
Y-7428D02*
D03*
Y-2428D02*
D03*
Y2572D02*
D03*
Y7572D02*
D03*
Y12572D02*
D03*
Y17572D02*
D03*
Y22572D02*
D03*
Y27572D02*
D03*
D52*
X-150905Y72D02*
D03*
D53*
X-128410Y76493D02*
D03*
X-140409D02*
D03*
X-152408D02*
D03*
M02*
