G04*
G04 #@! TF.GenerationSoftware,Altium Limited,Altium Designer,25.8.1 (18)*
G04*
G04 Layer_Color=16711935*
%FSLAX44Y44*%
%MOMM*%
G71*
G04*
G04 #@! TF.SameCoordinates,DC2A109C-38F9-4662-A5C9-921089D2BF11*
G04*
G04*
G04 #@! TF.FilePolarity,Positive*
G04*
G01*
G75*
%ADD62C,0.1524*%
%ADD68C,0.0635*%
D62*
X-227686Y43960D02*
Y63960D01*
Y43960D02*
X-208686D01*
Y77960D01*
X-227686D02*
X-208686D01*
X-227686Y63960D02*
Y77960D01*
X-187096Y43960D02*
Y57960D01*
X-206096Y43960D02*
X-187096D01*
X-206096D02*
Y77960D01*
X-187096D01*
Y57960D02*
Y77960D01*
D68*
X-221202Y37756D02*
X-221807Y38059D01*
X-222411Y38663D01*
X-222713Y39268D01*
Y40477D01*
X-222411Y41082D01*
X-221807Y41686D01*
X-221202Y41989D01*
X-220295Y42291D01*
X-218783D01*
X-217876Y41989D01*
X-217272Y41686D01*
X-216667Y41082D01*
X-216365Y40477D01*
Y39268D01*
X-216667Y38663D01*
X-217272Y38059D01*
X-217876Y37756D01*
X-222713Y32949D02*
X-218481Y35973D01*
Y31438D01*
X-222713Y32949D02*
X-216365D01*
X-222713Y28505D02*
X-222411Y29412D01*
X-221504Y30017D01*
X-219993Y30319D01*
X-219086D01*
X-217574Y30017D01*
X-216667Y29412D01*
X-216365Y28505D01*
Y27901D01*
X-216667Y26994D01*
X-217574Y26389D01*
X-219086Y26087D01*
X-219993D01*
X-221504Y26389D01*
X-222411Y26994D01*
X-222713Y27901D01*
Y28505D01*
X-193580Y84164D02*
X-192976Y83861D01*
X-192371Y83257D01*
X-192069Y82652D01*
Y81443D01*
X-192371Y80838D01*
X-192976Y80234D01*
X-193580Y79931D01*
X-194487Y79629D01*
X-195999D01*
X-196906Y79931D01*
X-197510Y80234D01*
X-198115Y80838D01*
X-198417Y81443D01*
Y82652D01*
X-198115Y83257D01*
X-197510Y83861D01*
X-196906Y84164D01*
X-192069Y88971D02*
X-196301Y85947D01*
Y90482D01*
X-192069Y88971D02*
X-198417D01*
X-192069Y93415D02*
X-192371Y92508D01*
X-193278Y91903D01*
X-194789Y91601D01*
X-195696D01*
X-197208Y91903D01*
X-198115Y92508D01*
X-198417Y93415D01*
Y94019D01*
X-198115Y94926D01*
X-197208Y95531D01*
X-195696Y95833D01*
X-194789D01*
X-193278Y95531D01*
X-192371Y94926D01*
X-192069Y94019D01*
Y93415D01*
M02*
