G04*
G04 #@! TF.GenerationSoftware,Altium Limited,Altium Designer,25.8.1 (18)*
G04*
G04 Layer_Physical_Order=1*
G04 Layer_Color=255*
%FSLAX44Y44*%
%MOMM*%
G71*
G04*
G04 #@! TF.SameCoordinates,DC2A109C-38F9-4662-A5C9-921089D2BF11*
G04*
G04*
G04 #@! TF.FilePolarity,Positive*
G04*
G01*
G75*
%ADD15C,0.2540*%
G04:AMPARAMS|DCode=18|XSize=1mm|YSize=1mm|CornerRadius=0.5mm|HoleSize=0mm|Usage=FLASHONLY|Rotation=90.000|XOffset=0mm|YOffset=0mm|HoleType=Round|Shape=RoundedRectangle|*
%AMROUNDEDRECTD18*
21,1,1.0000,0.0000,0,0,90.0*
21,1,0.0000,1.0000,0,0,90.0*
1,1,1.0000,0.0000,0.0000*
1,1,1.0000,0.0000,0.0000*
1,1,1.0000,0.0000,0.0000*
1,1,1.0000,0.0000,0.0000*
%
%ADD18ROUNDEDRECTD18*%
%ADD19R,0.8000X0.8000*%
G04:AMPARAMS|DCode=20|XSize=1mm|YSize=1mm|CornerRadius=0.5mm|HoleSize=0mm|Usage=FLASHONLY|Rotation=210.000|XOffset=0mm|YOffset=0mm|HoleType=Round|Shape=RoundedRectangle|*
%AMROUNDEDRECTD20*
21,1,1.0000,0.0000,0,0,210.0*
21,1,0.0000,1.0000,0,0,210.0*
1,1,1.0000,0.0000,0.0000*
1,1,1.0000,0.0000,0.0000*
1,1,1.0000,0.0000,0.0000*
1,1,1.0000,0.0000,0.0000*
%
%ADD20ROUNDEDRECTD20*%
G04:AMPARAMS|DCode=21|XSize=1mm|YSize=1mm|CornerRadius=0.5mm|HoleSize=0mm|Usage=FLASHONLY|Rotation=150.000|XOffset=0mm|YOffset=0mm|HoleType=Round|Shape=RoundedRectangle|*
%AMROUNDEDRECTD21*
21,1,1.0000,0.0000,0,0,150.0*
21,1,0.0000,1.0000,0,0,150.0*
1,1,1.0000,0.0000,0.0000*
1,1,1.0000,0.0000,0.0000*
1,1,1.0000,0.0000,0.0000*
1,1,1.0000,0.0000,0.0000*
%
%ADD21ROUNDEDRECTD21*%
%ADD22R,0.6587X0.8121*%
%ADD23R,0.9000X0.6500*%
%ADD24R,0.8000X1.0000*%
G04:AMPARAMS|DCode=25|XSize=2.3528mm|YSize=0.4949mm|CornerRadius=0.2475mm|HoleSize=0mm|Usage=FLASHONLY|Rotation=0.000|XOffset=0mm|YOffset=0mm|HoleType=Round|Shape=RoundedRectangle|*
%AMROUNDEDRECTD25*
21,1,2.3528,0.0000,0,0,0.0*
21,1,1.8579,0.4949,0,0,0.0*
1,1,0.4949,0.9290,0.0000*
1,1,0.4949,-0.9290,0.0000*
1,1,0.4949,-0.9290,0.0000*
1,1,0.4949,0.9290,0.0000*
%
%ADD25ROUNDEDRECTD25*%
%ADD26R,2.3528X0.4949*%
%ADD27R,0.8900X0.6400*%
%ADD28R,0.9500X0.8000*%
%ADD29C,8.8900*%
%ADD36R,1.5700X1.5700*%
%ADD37C,1.5700*%
%ADD38C,0.5080*%
%ADD39C,0.3810*%
%ADD40C,0.6350*%
%ADD41C,0.5080*%
%ADD42C,1.2700*%
%ADD43C,0.7620*%
%ADD44C,0.3810*%
G36*
X163910Y164387D02*
X163116Y162923D01*
X161034Y160324D01*
X158522Y158138D01*
X155660Y156435D01*
X152541Y155268D01*
X149264Y154675D01*
X145934D01*
X142657Y155268D01*
X139538Y156435D01*
X136677Y158138D01*
X134165Y160324D01*
X132082Y162923D01*
X131289Y164387D01*
X131289Y164387D01*
X147599Y173778D01*
X163910Y164387D01*
D02*
G37*
G36*
X-136089D02*
X-136883Y162923D01*
X-138966Y160324D01*
X-141478Y158138D01*
X-144339Y156435D01*
X-147458Y155268D01*
X-150735Y154675D01*
X-154065D01*
X-157342Y155268D01*
X-160461Y156435D01*
X-163322Y158138D01*
X-165834Y160324D01*
X-167917Y162923D01*
X-168711Y164387D01*
X-168710Y164387D01*
X-152400Y173778D01*
X-136089Y164387D01*
D02*
G37*
G36*
X224899Y113854D02*
X224302Y111385D01*
X221895Y111266D01*
X212082Y109811D01*
X202460Y107400D01*
X193119Y104058D01*
X184152Y99817D01*
X175643Y94717D01*
X167675Y88808D01*
X160325Y82146D01*
X153663Y74796D01*
X147754Y66828D01*
X142654Y58319D01*
X138412Y49352D01*
X135070Y40011D01*
X134725Y38632D01*
X132142Y38775D01*
X131862Y40182D01*
X130998Y41475D01*
X131862Y42769D01*
X132252Y44725D01*
X131862Y46682D01*
X130998Y47975D01*
X131862Y49269D01*
X132252Y51225D01*
X131862Y53182D01*
X130754Y54841D01*
X129095Y55949D01*
X127139Y56338D01*
X108560D01*
X106603Y55949D01*
X104944Y54841D01*
X103836Y53182D01*
X103447Y51225D01*
X103836Y49269D01*
X104700Y47975D01*
X103836Y46682D01*
X103447Y44725D01*
X103836Y42769D01*
X104700Y41475D01*
X103836Y40182D01*
X103447Y38225D01*
X103836Y36269D01*
X104700Y34975D01*
X103836Y33682D01*
X103447Y31725D01*
X103836Y29769D01*
X104700Y28475D01*
X103836Y27182D01*
X103447Y25225D01*
X103836Y23269D01*
X104700Y21975D01*
X103836Y20682D01*
X103447Y18725D01*
X103836Y16769D01*
X104700Y15475D01*
X103836Y14182D01*
X103447Y12225D01*
X103836Y10269D01*
X104700Y8975D01*
X103836Y7682D01*
X103447Y5725D01*
X103836Y3769D01*
X104700Y2475D01*
X103836Y1182D01*
X103447Y-775D01*
X103836Y-2731D01*
X104700Y-4025D01*
X103836Y-5318D01*
X103699Y-6005D01*
X117849D01*
Y-8545D01*
X103699D01*
X103836Y-9231D01*
X104700Y-10525D01*
X103836Y-11818D01*
X103447Y-13775D01*
X103836Y-15731D01*
X104700Y-17025D01*
X103836Y-18318D01*
X103447Y-20275D01*
X103836Y-22231D01*
X104700Y-23525D01*
X103836Y-24818D01*
X103447Y-26775D01*
X103836Y-28731D01*
X104700Y-30025D01*
X103836Y-31318D01*
X103447Y-33275D01*
X103836Y-35231D01*
X104944Y-36890D01*
X106603Y-37998D01*
X108560Y-38388D01*
X113964D01*
Y-45706D01*
X110069D01*
Y-48487D01*
X93887D01*
X93465Y-48065D01*
X91598Y-47291D01*
X89577D01*
X87710Y-48065D01*
X86281Y-49494D01*
X85508Y-51361D01*
Y-53382D01*
X86281Y-55249D01*
X87710Y-56678D01*
X89577Y-57451D01*
X91598D01*
X93465Y-56678D01*
X93887Y-56256D01*
X110069D01*
Y-57286D01*
X113782D01*
X115140Y-59826D01*
X114886Y-60206D01*
X110069D01*
Y-64534D01*
X109633Y-65187D01*
X55571D01*
Y-64362D01*
X41491D01*
Y-65187D01*
X37527D01*
X35665Y-63031D01*
X35668Y-63016D01*
X37097Y-61587D01*
X37806Y-59874D01*
X38005Y-59675D01*
X41491D01*
Y-61442D01*
X55571D01*
Y-49862D01*
X52231D01*
Y-38388D01*
X57636D01*
X59592Y-37998D01*
X61251Y-36890D01*
X62359Y-35231D01*
X62749Y-33275D01*
X62359Y-31318D01*
X61495Y-30025D01*
X62359Y-28731D01*
X62749Y-26775D01*
X62359Y-24818D01*
X61495Y-23525D01*
X62359Y-22231D01*
X62749Y-20275D01*
X62359Y-18318D01*
X61495Y-17025D01*
X62359Y-15731D01*
X62749Y-13775D01*
X62359Y-11818D01*
X61495Y-10525D01*
X62359Y-9231D01*
X62749Y-7275D01*
X62359Y-5318D01*
X61495Y-4025D01*
X62359Y-2731D01*
X62749Y-775D01*
X62359Y1182D01*
X61495Y2475D01*
X62359Y3769D01*
X62496Y4455D01*
X34197D01*
X34333Y3769D01*
X35197Y2475D01*
X34333Y1182D01*
X33944Y-775D01*
X34333Y-2731D01*
X35197Y-4025D01*
X34333Y-5318D01*
X33944Y-7275D01*
X33959Y-7350D01*
X31951Y-9890D01*
X24841D01*
Y1752D01*
Y7022D01*
X10261D01*
Y-323D01*
X3798D01*
Y5058D01*
X3798Y5678D01*
Y7598D01*
X3798Y8218D01*
Y20678D01*
X-3789D01*
X-6165Y23054D01*
X-7425Y23896D01*
X-8911Y24192D01*
X-11173D01*
X-12361Y24684D01*
X-14129D01*
X-15763Y24007D01*
X-17013Y22757D01*
X-17690Y21123D01*
Y19354D01*
X-17013Y17721D01*
X-15763Y16470D01*
X-14129Y15794D01*
X-12361D01*
X-11406Y16189D01*
X-9282Y14664D01*
Y8218D01*
X-9282Y7598D01*
Y5678D01*
X-9282Y5058D01*
Y-7332D01*
X-11209D01*
X-13543Y-8298D01*
X-15329Y-10085D01*
X-16296Y-12419D01*
Y-14044D01*
X-17755Y-15503D01*
X-25721D01*
X-26341Y-15503D01*
Y-15503D01*
X-27081D01*
X-29622Y-13527D01*
Y29378D01*
X-27187Y29908D01*
X-27081Y29909D01*
X-25313Y28141D01*
X-22979Y27174D01*
X-20453D01*
X-18119Y28141D01*
X-16333Y29927D01*
X-15366Y32261D01*
Y34471D01*
X-12710Y37128D01*
X-11868Y38388D01*
X-11572Y39875D01*
Y44295D01*
X-9623D01*
Y47011D01*
X31952D01*
X33944Y44725D01*
X34333Y42769D01*
X35197Y41475D01*
X34333Y40182D01*
X33944Y38225D01*
X34333Y36269D01*
X35197Y34975D01*
X34333Y33682D01*
X33944Y31725D01*
X34333Y29769D01*
X35197Y28475D01*
X34333Y27182D01*
X33944Y25225D01*
X34333Y23269D01*
X35197Y21975D01*
X34333Y20682D01*
X33944Y18725D01*
X34333Y16769D01*
X35197Y15475D01*
X34333Y14182D01*
X33944Y12225D01*
X34333Y10269D01*
X35197Y8975D01*
X34333Y7682D01*
X34197Y6995D01*
X62496D01*
X62359Y7682D01*
X61495Y8975D01*
X62359Y10269D01*
X62749Y12225D01*
X62359Y14182D01*
X61495Y15475D01*
X62359Y16769D01*
X62749Y18725D01*
X62359Y20682D01*
X61495Y21975D01*
X62359Y23269D01*
X62749Y25225D01*
X62359Y27182D01*
X61495Y28475D01*
X62359Y29769D01*
X62749Y31725D01*
X62359Y33682D01*
X61495Y34975D01*
X62359Y36269D01*
X62749Y38225D01*
X62359Y40182D01*
X61495Y41475D01*
X62359Y42769D01*
X62749Y44725D01*
X62650Y46211D01*
X62650D01*
Y56240D01*
X34042D01*
Y54780D01*
X-9623D01*
Y57496D01*
X-21290D01*
Y57496D01*
X-23157D01*
Y57496D01*
X-28267D01*
X-31953Y61182D01*
X-33299Y62082D01*
X-33808Y63005D01*
X-34314Y65030D01*
X-33910Y66006D01*
X-43855D01*
X-43537Y65240D01*
X-44623Y63072D01*
X-45025Y62699D01*
X-131048D01*
X-132704Y64505D01*
X-143259D01*
X-144592Y62305D01*
X-146272Y61182D01*
X-146273Y61182D01*
X-159782Y47673D01*
X-160066Y47249D01*
X-160426Y46888D01*
X-160622Y46417D01*
X-160905Y45992D01*
X-161005Y45492D01*
X-161200Y45021D01*
Y44511D01*
X-161299Y44010D01*
X-161200Y43510D01*
Y43000D01*
X-161005Y42529D01*
X-160905Y42028D01*
X-160622Y41604D01*
X-160426Y41133D01*
X-160066Y40772D01*
X-159782Y40348D01*
X-159358Y40064D01*
X-158997Y39704D01*
X-158526Y39509D01*
X-158102Y39225D01*
X-157601Y39125D01*
X-157130Y38930D01*
X-156620D01*
X-156120Y38831D01*
X-155619Y38930D01*
X-155109D01*
X-154638Y39125D01*
X-154138Y39225D01*
X-153714Y39509D01*
X-153242Y39704D01*
X-152881Y40064D01*
X-152457Y40348D01*
X-140465Y52340D01*
X-135711D01*
X-133771Y50386D01*
Y48365D01*
X-132997Y46498D01*
X-132701Y46202D01*
Y31321D01*
X-135815Y28207D01*
X-135940Y28020D01*
X-143238D01*
Y16560D01*
X-143238Y16540D01*
X-143238D01*
Y14020D01*
X-143238D01*
Y9550D01*
X-136248D01*
Y8280D01*
X-134978D01*
Y2540D01*
X-131873D01*
Y-82969D01*
X-133189Y-83322D01*
X-135558Y-84689D01*
X-137492Y-86624D01*
X-138860Y-88993D01*
X-139568Y-91636D01*
Y-94371D01*
X-138860Y-97014D01*
X-137492Y-99383D01*
X-135558Y-101318D01*
X-133189Y-102685D01*
X-130546Y-103393D01*
X-127810D01*
X-125168Y-102685D01*
X-122799Y-101318D01*
X-120864Y-99383D01*
X-119496Y-97014D01*
X-118788Y-94371D01*
Y-91636D01*
X-119496Y-88993D01*
X-120864Y-86624D01*
X-122799Y-84689D01*
X-124103Y-83936D01*
Y15270D01*
X-124399Y16757D01*
X-125241Y18017D01*
X-129258Y22034D01*
Y23777D01*
X-126069Y26965D01*
X-125227Y28226D01*
X-124931Y29712D01*
Y45951D01*
X-124384Y46498D01*
X-123611Y48365D01*
Y50386D01*
X-121671Y52340D01*
X-38463D01*
X-37164Y50048D01*
X-38351Y48861D01*
X-39474Y47180D01*
X-39868Y45198D01*
X-39837Y45041D01*
X-39980Y44318D01*
Y-15503D01*
X-41341D01*
Y-28902D01*
X-41741D01*
Y-43982D01*
X-35986D01*
X-21037Y-58932D01*
X-19356Y-60054D01*
X-17374Y-60449D01*
X17204D01*
X30784Y-74029D01*
X30784Y-74029D01*
X32464Y-75151D01*
X34446Y-75546D01*
X41491D01*
Y-75942D01*
X55571D01*
Y-75546D01*
X112391D01*
X114373Y-75151D01*
X116054Y-74029D01*
X116650Y-73137D01*
X117542Y-72541D01*
X118046Y-71786D01*
X124149D01*
Y-67531D01*
X142523Y-49157D01*
X143252Y-49352D01*
X145593D01*
X147854Y-48746D01*
X149474Y-47811D01*
X153663Y-53460D01*
X160325Y-60810D01*
X167675Y-67472D01*
X175643Y-73381D01*
X184152Y-78481D01*
X193119Y-82723D01*
X202460Y-86065D01*
X212082Y-88475D01*
X221895Y-89930D01*
X231803Y-90417D01*
X241711Y-89930D01*
X251524Y-88475D01*
X261146Y-86065D01*
X270487Y-82723D01*
X273539Y-81279D01*
X275847Y-82937D01*
X275661Y-84554D01*
X155817Y-153728D01*
X153449Y-152842D01*
X153219Y-152805D01*
X153003Y-152719D01*
X149726Y-152126D01*
X149493Y-152130D01*
X149264Y-152085D01*
X145934D01*
X145706Y-152130D01*
X145473Y-152126D01*
X142196Y-152719D01*
X141980Y-152805D01*
X141750Y-152842D01*
X139500Y-153684D01*
X19459Y-83178D01*
X19127Y-81211D01*
X19044Y-80994D01*
X19009Y-80764D01*
X17823Y-77473D01*
X17703Y-77273D01*
X17628Y-77053D01*
X15875Y-74025D01*
X15722Y-73851D01*
X15609Y-73647D01*
X13346Y-70980D01*
X13163Y-70835D01*
X13016Y-70655D01*
X10314Y-68432D01*
X10109Y-68322D01*
X9932Y-68172D01*
X6878Y-66465D01*
X6657Y-66393D01*
X6456Y-66276D01*
X3147Y-65140D01*
X2917Y-65109D01*
X2698Y-65029D01*
X-760Y-64499D01*
X-992Y-64510D01*
X-1221Y-64471D01*
X-2400Y-64502D01*
X-3579Y-64471D01*
X-3808Y-64510D01*
X-4041Y-64499D01*
X-7499Y-65029D01*
X-7718Y-65109D01*
X-7948Y-65140D01*
X-11257Y-66276D01*
X-11458Y-66393D01*
X-11679Y-66465D01*
X-14733Y-68172D01*
X-14910Y-68322D01*
X-15115Y-68432D01*
X-17817Y-70655D01*
X-17964Y-70835D01*
X-18146Y-70980D01*
X-20410Y-73647D01*
X-20522Y-73851D01*
X-20676Y-74025D01*
X-22429Y-77053D01*
X-22504Y-77273D01*
X-22624Y-77472D01*
X-23810Y-80764D01*
X-23845Y-80994D01*
X-23928Y-81211D01*
X-24509Y-84661D01*
X-24503Y-84893D01*
X-24545Y-85122D01*
X-24505Y-88620D01*
X-24457Y-88848D01*
X-24458Y-89080D01*
X-23796Y-92516D01*
X-23708Y-92731D01*
X-23668Y-92960D01*
X-22928Y-94871D01*
X-52999Y-112232D01*
X-55041Y-109623D01*
X-55198Y-109488D01*
X-55320Y-109320D01*
X-58532Y-106340D01*
X-58708Y-106232D01*
X-58854Y-106086D01*
X-62498Y-103652D01*
X-62689Y-103572D01*
X-62856Y-103451D01*
X-66839Y-101624D01*
X-67040Y-101576D01*
X-67225Y-101483D01*
X-71446Y-100309D01*
X-71652Y-100294D01*
X-71849Y-100231D01*
X-76203Y-99740D01*
X-77014Y-97429D01*
Y-72229D01*
X-77310Y-70742D01*
X-78152Y-69482D01*
X-102846Y-44788D01*
Y-44337D01*
X-103619Y-42470D01*
X-105048Y-41041D01*
X-106915Y-40268D01*
X-108936D01*
X-110803Y-41041D01*
X-112233Y-42470D01*
X-113006Y-44337D01*
Y-46358D01*
X-112233Y-48225D01*
X-110803Y-49654D01*
X-108936Y-50428D01*
X-108194D01*
X-84784Y-73838D01*
Y-100688D01*
X-85688Y-100876D01*
X-85878Y-100957D01*
X-86082Y-100992D01*
X-90176Y-102553D01*
X-90351Y-102663D01*
X-90547Y-102730D01*
X-94342Y-104919D01*
X-94498Y-105056D01*
X-94681Y-105152D01*
X-98081Y-107914D01*
X-98214Y-108074D01*
X-98379Y-108198D01*
X-101300Y-111464D01*
X-101405Y-111642D01*
X-101549Y-111791D01*
X-103916Y-115478D01*
X-103992Y-115670D01*
X-104110Y-115840D01*
X-105864Y-119855D01*
X-105908Y-120057D01*
X-105998Y-120244D01*
X-107095Y-124486D01*
X-107107Y-124692D01*
X-107166Y-124890D01*
X-107578Y-129252D01*
X-107557Y-129458D01*
X-107584Y-129663D01*
X-107300Y-134036D01*
X-107247Y-134235D01*
X-107241Y-134442D01*
X-106269Y-138715D01*
X-106185Y-138904D01*
X-106146Y-139107D01*
X-104903Y-142198D01*
X-135853Y-160067D01*
X-136945Y-158705D01*
X-137123Y-158555D01*
X-137266Y-158371D01*
X-139778Y-156185D01*
X-139980Y-156069D01*
X-140153Y-155913D01*
X-143014Y-154210D01*
X-143233Y-154132D01*
X-143432Y-154009D01*
X-146551Y-152842D01*
X-146780Y-152805D01*
X-146997Y-152719D01*
X-150274Y-152126D01*
X-150507Y-152130D01*
X-150735Y-152085D01*
X-154065D01*
X-154293Y-152130D01*
X-154526Y-152126D01*
X-156818Y-152541D01*
X-188615Y-120744D01*
Y-113098D01*
X-189058Y-110869D01*
X-190322Y-108978D01*
X-195336Y-103963D01*
Y-103866D01*
X-195780Y-101636D01*
X-197043Y-99746D01*
X-204486Y-92303D01*
Y-90483D01*
X-205092Y-88222D01*
X-206262Y-86195D01*
X-207917Y-84539D01*
X-209944Y-83369D01*
X-212206Y-82763D01*
X-214546D01*
X-216807Y-83369D01*
X-218834Y-84539D01*
X-220490Y-86195D01*
X-221660Y-88222D01*
X-222266Y-90483D01*
Y-92824D01*
X-221660Y-95085D01*
X-220490Y-97112D01*
X-219349Y-98252D01*
X-220551Y-100596D01*
X-223330Y-100015D01*
X-223537Y-100013D01*
X-223738Y-99963D01*
X-225612Y-99874D01*
X-227906Y-98774D01*
X-227906Y-96753D01*
X-228679Y-94886D01*
X-229101Y-94464D01*
Y-39283D01*
X-210473Y-20655D01*
X-209877D01*
X-208010Y-19882D01*
X-206581Y-18453D01*
X-205807Y-16586D01*
Y-14565D01*
X-206581Y-12698D01*
X-208010Y-11269D01*
X-208070Y-11244D01*
X-207994Y-9336D01*
X-207767Y-8620D01*
X-206101Y-7930D01*
X-204672Y-6501D01*
X-203899Y-4634D01*
Y-2613D01*
X-204672Y-746D01*
X-206101Y683D01*
X-207968Y1456D01*
X-209989D01*
X-211856Y683D01*
X-213285Y-746D01*
X-213615Y-1542D01*
X-242083Y-30010D01*
X-242925Y-31270D01*
X-243221Y-32757D01*
Y-100394D01*
X-242925Y-101881D01*
X-243867Y-104747D01*
X-243933Y-104806D01*
X-245878Y-106104D01*
X-246025Y-106250D01*
X-246201Y-106359D01*
X-249415Y-109337D01*
X-249536Y-109504D01*
X-249693Y-109639D01*
X-251749Y-112262D01*
X-282750Y-94364D01*
X-282116Y-92738D01*
X-282076Y-92509D01*
X-281987Y-92294D01*
X-281350Y-89025D01*
X-278853Y-88683D01*
X-265993D01*
X-264451Y-90225D01*
X-262424Y-91396D01*
X-260163Y-92002D01*
X-257822D01*
X-255561Y-91396D01*
X-253534Y-90225D01*
X-251879Y-88570D01*
X-250708Y-86543D01*
X-250103Y-84282D01*
Y-81941D01*
X-250708Y-79680D01*
X-251879Y-77653D01*
X-253534Y-75998D01*
X-255561Y-74828D01*
X-257822Y-74222D01*
X-260163D01*
X-262424Y-74828D01*
X-264451Y-75998D01*
X-265482Y-77029D01*
X-278337D01*
X-279309Y-74683D01*
X-259951Y-55325D01*
X-258688Y-53434D01*
X-258245Y-51204D01*
Y25628D01*
X-258688Y27857D01*
X-259951Y29748D01*
X-289641Y59438D01*
Y62165D01*
X-287101Y62846D01*
X-286714Y62175D01*
X-285059Y60520D01*
X-283032Y59350D01*
X-280771Y58744D01*
X-278430D01*
X-276169Y59350D01*
X-274142Y60520D01*
X-272855Y61807D01*
X-171571D01*
X-169341Y62251D01*
X-167450Y63514D01*
X-132688Y98276D01*
X-131425Y100166D01*
X-130981Y102396D01*
Y125906D01*
X-128623Y126849D01*
X-106447Y103580D01*
X-106389Y103539D01*
X-106349Y103479D01*
X-103001Y100132D01*
X-102944Y100093D01*
X-102905Y100037D01*
X-74907Y73306D01*
X-74003Y72732D01*
X-73113Y72137D01*
X-73046Y72124D01*
X-72988Y72087D01*
X-71933Y71903D01*
X-70883Y71694D01*
X-68253Y71694D01*
X-45091D01*
X-44872Y71516D01*
X-43603Y69154D01*
X-43855Y68546D01*
X-33910D01*
X-34162Y69154D01*
X-32893Y71516D01*
X-32674Y71694D01*
X-18752D01*
X-18146Y70980D01*
X-17964Y70835D01*
X-17817Y70655D01*
X-15115Y68432D01*
X-14910Y68322D01*
X-14733Y68172D01*
X-11679Y66465D01*
X-11458Y66393D01*
X-11257Y66276D01*
X-7948Y65140D01*
X-7717Y65109D01*
X-7499Y65029D01*
X-4041Y64499D01*
X-3808Y64510D01*
X-3579Y64471D01*
X-2400Y64502D01*
X-1221Y64471D01*
X-992Y64510D01*
X-760Y64499D01*
X2698Y65029D01*
X2917Y65109D01*
X3147Y65140D01*
X6456Y66276D01*
X6657Y66393D01*
X6878Y66465D01*
X9932Y68172D01*
X10109Y68322D01*
X10314Y68432D01*
X13016Y70655D01*
X13163Y70835D01*
X13346Y70980D01*
X15609Y73647D01*
X15722Y73851D01*
X15875Y74025D01*
X17628Y77053D01*
X17703Y77273D01*
X17823Y77472D01*
X19009Y80764D01*
X19044Y80994D01*
X19127Y81211D01*
X19459Y83178D01*
X139500Y153684D01*
X141750Y152842D01*
X141980Y152805D01*
X142196Y152719D01*
X145473Y152126D01*
X145706Y152130D01*
X145934Y152085D01*
X149264D01*
X149493Y152130D01*
X149726Y152126D01*
X153003Y152719D01*
X153219Y152805D01*
X153449Y152842D01*
X155817Y153728D01*
X224899Y113854D01*
D02*
G37*
G36*
X-167855Y158705D02*
X-167677Y158555D01*
X-167534Y158371D01*
X-165022Y156185D01*
X-164820Y156069D01*
X-164647Y155913D01*
X-161786Y154209D01*
X-161567Y154132D01*
X-161369Y154009D01*
X-158250Y152842D01*
X-158020Y152805D01*
X-157803Y152719D01*
X-154526Y152126D01*
X-154293Y152130D01*
X-154065Y152085D01*
X-153688D01*
X-146116Y144513D01*
X-142635Y141032D01*
Y121783D01*
X-145175Y121102D01*
X-145736Y122074D01*
X-147392Y123729D01*
X-149419Y124899D01*
X-151580Y125478D01*
Y116615D01*
X-152850D01*
Y115345D01*
X-161713D01*
X-161134Y113184D01*
X-160134Y111451D01*
X-160478Y110300D01*
X-161311Y108911D01*
X-202376D01*
X-204037Y110864D01*
X-203500Y111464D01*
X-203395Y111642D01*
X-203251Y111791D01*
X-200884Y115478D01*
X-200808Y115670D01*
X-200690Y115840D01*
X-198936Y119855D01*
X-198892Y120057D01*
X-198802Y120244D01*
X-197705Y124486D01*
X-197693Y124692D01*
X-197634Y124890D01*
X-197222Y129252D01*
X-197243Y129458D01*
X-197216Y129663D01*
X-197500Y134036D01*
X-197553Y134235D01*
X-197559Y134442D01*
X-198531Y138715D01*
X-198615Y138904D01*
X-198654Y139107D01*
X-199897Y142198D01*
X-189097Y148434D01*
X-186916Y146760D01*
X-187046Y146272D01*
X-169320D01*
X-169899Y148434D01*
X-171069Y150461D01*
X-172724Y152116D01*
X-174751Y153287D01*
X-175339Y153444D01*
X-175698Y156170D01*
X-168947Y160067D01*
X-167855Y158705D01*
D02*
G37*
G36*
X-53382Y116601D02*
X-54443Y114685D01*
X-57145Y111236D01*
X-60359Y108258D01*
X-64004Y105827D01*
X-67987Y104003D01*
X-72209Y102831D01*
X-76563Y102343D01*
X-80940Y102550D01*
X-85228Y103447D01*
X-89321Y105010D01*
X-93115Y107202D01*
X-96514Y109967D01*
X-99432Y113234D01*
X-101798Y116923D01*
X-103549Y120939D01*
X-104643Y125181D01*
X-105052Y129543D01*
X-104766Y133915D01*
X-103791Y138187D01*
X-102153Y142250D01*
X-101023Y144127D01*
X-101023D01*
X-53382Y116601D01*
D02*
G37*
G36*
X-202692Y142205D02*
X-201056Y138140D01*
X-200084Y133868D01*
X-199801Y129496D01*
X-200212Y125134D01*
X-201309Y120892D01*
X-203063Y116877D01*
X-205431Y113190D01*
X-208351Y109925D01*
X-211752Y107162D01*
X-215547Y104973D01*
X-219641Y103411D01*
X-223930Y102517D01*
X-228307Y102313D01*
X-232660Y102804D01*
X-236882Y103978D01*
X-240864Y105805D01*
X-244507Y108239D01*
X-247719Y111219D01*
X-250419Y114669D01*
X-251479Y116586D01*
X-251479Y116586D01*
X-203821Y144082D01*
X-202692Y142205D01*
D02*
G37*
G36*
X298130Y86890D02*
X298152Y68069D01*
X296488Y68025D01*
X293196Y68529D01*
X290047Y69612D01*
X287141Y71238D01*
X284571Y73355D01*
X282419Y75897D01*
X280753Y78781D01*
X279629Y81915D01*
X279080Y85200D01*
X279125Y88529D01*
X279762Y91798D01*
X280971Y94901D01*
X281842Y96320D01*
X281842D01*
X298130Y86890D01*
D02*
G37*
G36*
X-285738Y94901D02*
X-284529Y91798D01*
X-283892Y88529D01*
X-283847Y85200D01*
X-284396Y81915D01*
X-285521Y78781D01*
X-287186Y75897D01*
X-289338Y73355D01*
X-291908Y71238D01*
X-294814Y69612D01*
X-297964Y68529D01*
X-301255Y68025D01*
X-302920Y68069D01*
Y68069D01*
X-302897Y86890D01*
X-286609Y96320D01*
X-285738Y94901D01*
D02*
G37*
G36*
X-2400Y87176D02*
X14278Y96781D01*
X15189Y95288D01*
X16452Y92025D01*
X17114Y88590D01*
X17155Y85092D01*
X16573Y81642D01*
X15387Y78351D01*
X13634Y75323D01*
X11371Y72655D01*
X8669Y70432D01*
X5615Y68726D01*
X2306Y67589D01*
X-1152Y67059D01*
X-2400Y67093D01*
X-3649Y67059D01*
X-7107Y67589D01*
X-10416Y68726D01*
X-13470Y70432D01*
X-16171Y72655D01*
X-18435Y75323D01*
X-20187Y78351D01*
X-21374Y81642D01*
X-21956Y85092D01*
X-21915Y88590D01*
X-21253Y92025D01*
X-19990Y95288D01*
X-19079Y96781D01*
Y96781D01*
X-2400Y87176D01*
D02*
G37*
G36*
X-296410Y26904D02*
X-292224Y25609D01*
X-288296Y23669D01*
X-284724Y21131D01*
X-281599Y18060D01*
X-278999Y14534D01*
X-276990Y10640D01*
X-275622Y6478D01*
X-274930Y2152D01*
X-274932Y-2230D01*
X-275626Y-6556D01*
X-276997Y-10717D01*
X-279008Y-14609D01*
X-281610Y-18134D01*
X-284737Y-21203D01*
X-288311Y-23738D01*
X-292240Y-25676D01*
X-296427Y-26968D01*
X-300765Y-27581D01*
X-302955Y-27541D01*
Y-27541D01*
X-302938Y27480D01*
X-300748Y27520D01*
X-296410Y26904D01*
D02*
G37*
G36*
X2306Y-67589D02*
X5615Y-68726D01*
X8669Y-70432D01*
X11371Y-72655D01*
X13634Y-75323D01*
X15387Y-78351D01*
X16573Y-81642D01*
X17155Y-85092D01*
X17114Y-88590D01*
X16452Y-92025D01*
X15189Y-95288D01*
X14278Y-96781D01*
X-2400Y-87176D01*
X-19079Y-96781D01*
X-19990Y-95288D01*
X-21253Y-92025D01*
X-21915Y-88590D01*
X-21956Y-85092D01*
X-21374Y-81642D01*
X-20187Y-78351D01*
X-18435Y-75323D01*
X-16171Y-72655D01*
X-13470Y-70432D01*
X-10416Y-68726D01*
X-7107Y-67589D01*
X-3649Y-67059D01*
X-2400Y-67093D01*
X-1152Y-67059D01*
X2306Y-67589D01*
D02*
G37*
G36*
X298152Y-68069D02*
X298152Y-68069D01*
X298130Y-86890D01*
X281842Y-96320D01*
X280971Y-94901D01*
X279762Y-91798D01*
X279125Y-88529D01*
X279080Y-85200D01*
X279629Y-81915D01*
X280753Y-78781D01*
X282419Y-75897D01*
X284571Y-73355D01*
X287141Y-71238D01*
X290047Y-69612D01*
X293196Y-68529D01*
X296488Y-68025D01*
X298152Y-68069D01*
D02*
G37*
G36*
X-297964Y-68529D02*
X-294814Y-69612D01*
X-291908Y-71238D01*
X-289338Y-73355D01*
X-287186Y-75897D01*
X-285521Y-78781D01*
X-284396Y-81915D01*
X-283847Y-85200D01*
X-283892Y-88529D01*
X-284529Y-91798D01*
X-285738Y-94901D01*
X-286609Y-96320D01*
X-286609Y-96320D01*
X-302897Y-86890D01*
X-302920Y-68069D01*
X-301255Y-68025D01*
X-297964Y-68529D01*
D02*
G37*
G36*
X14278Y-96781D02*
X14278D01*
D01*
X14278D01*
D02*
G37*
G36*
X-72140Y-102804D02*
X-67918Y-103978D01*
X-63936Y-105805D01*
X-60293Y-108239D01*
X-57081Y-111219D01*
X-54381Y-114669D01*
X-53321Y-116586D01*
X-100979Y-144082D01*
X-102108Y-142205D01*
X-103744Y-138140D01*
X-104716Y-133868D01*
X-105000Y-129496D01*
X-104588Y-125134D01*
X-103491Y-120892D01*
X-101737Y-116877D01*
X-99369Y-113190D01*
X-96449Y-109925D01*
X-93048Y-107162D01*
X-89253Y-104973D01*
X-85159Y-103411D01*
X-80870Y-102517D01*
X-76493Y-102313D01*
X-72140Y-102804D01*
D02*
G37*
G36*
X-223860Y-102550D02*
X-219572Y-103447D01*
X-215479Y-105011D01*
X-211685Y-107202D01*
X-208286Y-109967D01*
X-205368Y-113234D01*
X-203002Y-116923D01*
X-201251Y-120939D01*
X-200157Y-125181D01*
X-199748Y-129543D01*
X-200034Y-133915D01*
X-201009Y-138187D01*
X-202647Y-142250D01*
X-203777Y-144127D01*
Y-144127D01*
X-251418Y-116601D01*
X-250357Y-114685D01*
X-247655Y-111236D01*
X-244441Y-108259D01*
X-240796Y-105827D01*
X-236813Y-104003D01*
X-232591Y-102831D01*
X-228237Y-102343D01*
X-223860Y-102550D01*
D02*
G37*
G36*
X152541Y-155268D02*
X155660Y-156435D01*
X158522Y-158139D01*
X161034Y-160324D01*
X163116Y-162923D01*
X163910Y-164387D01*
X147599Y-173778D01*
X131289Y-164387D01*
X132082Y-162923D01*
X134165Y-160324D01*
X136677Y-158139D01*
X139538Y-156435D01*
X142657Y-155268D01*
X145934Y-154675D01*
X149264D01*
X152541Y-155268D01*
D02*
G37*
G36*
X-147458D02*
X-144339Y-156435D01*
X-141478Y-158139D01*
X-138966Y-160324D01*
X-136883Y-162923D01*
X-136089Y-164387D01*
X-152400Y-173778D01*
X-168711Y-164387D01*
X-167917Y-162923D01*
X-165834Y-160324D01*
X-163322Y-158139D01*
X-160461Y-156435D01*
X-157342Y-155268D01*
X-154065Y-154675D01*
X-150735D01*
X-147458Y-155268D01*
D02*
G37*
%LPC*%
G36*
X-136752Y70747D02*
Y67045D01*
X-133049D01*
X-133715Y68653D01*
X-135144Y70082D01*
X-136752Y70747D01*
D02*
G37*
G36*
X-139292D02*
X-140899Y70082D01*
X-142329Y68653D01*
X-142994Y67045D01*
X-139292D01*
Y70747D01*
D02*
G37*
G36*
X18586Y37982D02*
Y34280D01*
X22289D01*
X21623Y35887D01*
X20194Y37317D01*
X18586Y37982D01*
D02*
G37*
G36*
X16046D02*
X14439Y37317D01*
X13010Y35887D01*
X12344Y34280D01*
X16046D01*
Y37982D01*
D02*
G37*
G36*
X22289Y31740D02*
X18586D01*
Y28037D01*
X20194Y28703D01*
X21623Y30132D01*
X22289Y31740D01*
D02*
G37*
G36*
X16046D02*
X12344D01*
X13010Y30132D01*
X14439Y28703D01*
X16046Y28037D01*
Y31740D01*
D02*
G37*
G36*
X24841Y14832D02*
X18821D01*
Y9562D01*
X24841D01*
Y14832D01*
D02*
G37*
G36*
X16281D02*
X10261D01*
Y9562D01*
X16281D01*
Y14832D01*
D02*
G37*
G36*
X-137518Y7010D02*
X-143238D01*
Y2540D01*
X-137518D01*
Y7010D01*
D02*
G37*
G36*
X-149635Y5044D02*
Y1342D01*
X-145933D01*
X-146599Y2949D01*
X-148027Y4378D01*
X-149635Y5044D01*
D02*
G37*
G36*
X-152175D02*
X-153783Y4378D01*
X-155212Y2949D01*
X-155878Y1342D01*
X-152175D01*
Y5044D01*
D02*
G37*
G36*
X-145933Y-1198D02*
X-149635D01*
Y-4901D01*
X-148027Y-4235D01*
X-146599Y-2806D01*
X-145933Y-1198D01*
D02*
G37*
G36*
X-152175D02*
X-155878D01*
X-155212Y-2806D01*
X-153783Y-4235D01*
X-152175Y-4901D01*
Y-1198D01*
D02*
G37*
G36*
X-153210Y-82613D02*
X-155946D01*
X-158589Y-83322D01*
X-160958Y-84689D01*
X-162892Y-86624D01*
X-164260Y-88993D01*
X-164968Y-91636D01*
Y-94371D01*
X-164260Y-97014D01*
X-162892Y-99383D01*
X-160958Y-101318D01*
X-158589Y-102685D01*
X-155946Y-103393D01*
X-153210D01*
X-150568Y-102685D01*
X-148199Y-101318D01*
X-146264Y-99383D01*
X-144896Y-97014D01*
X-144188Y-94371D01*
Y-91636D01*
X-144896Y-88993D01*
X-146264Y-86624D01*
X-148199Y-84689D01*
X-150568Y-83322D01*
X-153210Y-82613D01*
D02*
G37*
G36*
X-169588D02*
X-190368D01*
Y-103393D01*
X-169588D01*
Y-82613D01*
D02*
G37*
G36*
X-139807Y-126224D02*
Y-129927D01*
X-136105D01*
X-136771Y-128319D01*
X-138200Y-126890D01*
X-139807Y-126224D01*
D02*
G37*
G36*
X-142347D02*
X-143955Y-126890D01*
X-145384Y-128319D01*
X-146050Y-129927D01*
X-142347D01*
Y-126224D01*
D02*
G37*
G36*
X-136105Y-132467D02*
X-139807D01*
Y-136169D01*
X-138200Y-135504D01*
X-136771Y-134074D01*
X-136105Y-132467D01*
D02*
G37*
G36*
X-142347D02*
X-146050D01*
X-145384Y-134074D01*
X-143955Y-135504D01*
X-142347Y-136169D01*
Y-132467D01*
D02*
G37*
G36*
X-169320Y143733D02*
X-176913D01*
Y136139D01*
X-174751Y136718D01*
X-172724Y137889D01*
X-171069Y139544D01*
X-169899Y141571D01*
X-169320Y143733D01*
D02*
G37*
G36*
X-179453D02*
X-187046D01*
X-186467Y141571D01*
X-185297Y139544D01*
X-183641Y137889D01*
X-181614Y136718D01*
X-179453Y136139D01*
Y143733D01*
D02*
G37*
G36*
X-154120Y125478D02*
X-156281Y124899D01*
X-158309Y123729D01*
X-159964Y122074D01*
X-161134Y120047D01*
X-161713Y117885D01*
X-154120D01*
Y125478D01*
D02*
G37*
%LPD*%
D15*
X-128816Y29712D02*
Y49167D01*
X-133068Y25460D02*
X-128816Y29712D01*
X-133068Y24210D02*
Y25460D01*
X-134998Y22280D02*
X-133068Y24210D01*
X-136248Y22280D02*
X-134998D01*
X-127988Y15270D01*
Y-91813D02*
Y15270D01*
X-137498Y8280D02*
X-136248D01*
X-129178Y-93003D02*
X-127988Y-91813D01*
X137073Y-775D02*
X138123Y-1824D01*
X138810D01*
X-35201Y-37442D02*
Y-36442D01*
X113879Y-67976D02*
X115859Y-65996D01*
X118359D01*
X33477Y-58709D02*
X36396Y-55790D01*
X48392D01*
X32790Y-58709D02*
X33477D01*
X48392Y-55790D02*
X48531Y-55652D01*
X48346Y-55571D02*
Y-33275D01*
X-223103Y123901D02*
X-204228Y105027D01*
X-148133D01*
X-223901Y123901D02*
X-223103D01*
X-148133Y105027D02*
X-148127Y105032D01*
X-138022Y65775D02*
X-137583D01*
X17241Y33221D02*
X17551Y32910D01*
X76598Y5725D02*
X89598Y-7275D01*
X48346Y5725D02*
X76598D01*
X48131Y5941D02*
X48346Y5725D01*
X19903Y5941D02*
X48131D01*
X89598Y-7275D02*
X117849D01*
X17551Y8292D02*
Y32910D01*
Y8292D02*
X19903Y5941D01*
X-150905Y72D02*
X-150419Y558D01*
X48016Y50896D02*
X48346Y51225D01*
X-15457Y50896D02*
X48016D01*
X-15457Y39875D02*
Y50896D01*
X-21990Y33342D02*
X-15457Y39875D01*
X117109Y-51496D02*
X117849Y-50756D01*
Y-33275D01*
X90588Y-52371D02*
X116234D01*
X117109Y-51496D01*
X-232986Y-37674D02*
X-210893Y-15581D01*
X-232986Y-97764D02*
Y-37674D01*
X-108130Y-44998D02*
X-80899Y-72229D01*
Y-123901D02*
Y-72229D01*
X-282470Y0D02*
X-276509Y5962D01*
X-270587D02*
X-270422Y6127D01*
X-276509Y5962D02*
X-270587D01*
X-295501Y0D02*
X-282470D01*
X38159Y-20275D02*
X48346D01*
X37944Y-20490D02*
X38159Y-20275D01*
X36454Y-20490D02*
X37944D01*
X21434Y-35509D02*
X36454Y-20490D01*
X-19268Y-35509D02*
X21434D01*
X-20201Y-36442D02*
X-19268Y-35509D01*
X-239336Y-32757D02*
X-210736Y-4157D01*
X-235560Y-104171D02*
X-230820D01*
X-239336Y-100394D02*
Y-32757D01*
Y-100394D02*
X-235560Y-104171D01*
X-230820D02*
X-223901Y-111090D01*
Y-123901D02*
Y-111090D01*
X-210200Y-4157D02*
X-209666Y-3624D01*
X-208979D01*
X-210736Y-4157D02*
X-210200D01*
X-10533Y-13775D02*
X48346D01*
X-19801Y-23043D02*
X-10533Y-13775D01*
X-8911Y20307D02*
X-2742Y14138D01*
X-13621Y20307D02*
X-8911D01*
X-60170Y92355D02*
Y103173D01*
X-80899Y123901D02*
X-60170Y103173D01*
X-150973Y159038D02*
Y163772D01*
X-152400Y165199D02*
X-150973Y163772D01*
X-152400Y159038D02*
Y165199D01*
X-295468Y82601D02*
X-295018D01*
X-259248Y-82856D02*
X-258993Y-83112D01*
X-295468Y-82601D02*
X-295213Y-82856D01*
X-12Y-3592D02*
X860D01*
X1476Y-4208D02*
X17551D01*
X860Y-3592D02*
X1476Y-4208D01*
X-2742Y-862D02*
X-12Y-3592D01*
X182616Y-20478D02*
X182819Y-20681D01*
X118052Y-20478D02*
X182616D01*
X117856Y-20281D02*
X118052Y-20478D01*
X117849Y-26775D02*
X194360D01*
X231803Y10668D01*
D18*
X-1679Y77521D02*
D03*
Y-77521D02*
D03*
X-223901Y123901D02*
D03*
X-80899Y-123901D02*
D03*
X-152400Y-165199D02*
D03*
X147599Y165199D02*
D03*
Y-165199D02*
D03*
X-152400Y165199D02*
D03*
D19*
X-2742Y14138D02*
D03*
Y-862D02*
D03*
D20*
X-295468Y-82601D02*
D03*
X-223901Y-123901D02*
D03*
X-80899Y123901D02*
D03*
X290700Y82601D02*
D03*
D21*
X-295501Y0D02*
D03*
X290700Y-82601D02*
D03*
X-295468Y82601D02*
D03*
D22*
X-28991Y50896D02*
D03*
X-15457D02*
D03*
D23*
X117109Y-65996D02*
D03*
Y-51496D02*
D03*
X48531Y-70152D02*
D03*
Y-55652D02*
D03*
D24*
X-20201Y-36442D02*
D03*
X-35201D02*
D03*
X-34801Y-23043D02*
D03*
X-19801D02*
D03*
D25*
X117849Y51225D02*
D03*
Y44725D02*
D03*
Y38225D02*
D03*
Y31725D02*
D03*
Y25225D02*
D03*
Y18725D02*
D03*
Y12225D02*
D03*
Y5725D02*
D03*
Y-775D02*
D03*
Y-7275D02*
D03*
Y-13775D02*
D03*
Y-20275D02*
D03*
Y-26775D02*
D03*
Y-33275D02*
D03*
X48346D02*
D03*
Y-26775D02*
D03*
Y-20275D02*
D03*
Y-13775D02*
D03*
Y-7275D02*
D03*
Y-775D02*
D03*
Y5725D02*
D03*
Y12225D02*
D03*
Y18725D02*
D03*
Y25225D02*
D03*
Y31725D02*
D03*
Y38225D02*
D03*
Y44725D02*
D03*
D26*
Y51225D02*
D03*
D27*
X-136248Y22280D02*
D03*
Y8280D02*
D03*
D28*
X17551Y8292D02*
D03*
Y-4208D02*
D03*
D29*
X231803Y10668D02*
D03*
D36*
X-179978Y-93003D02*
D03*
D37*
X-154578D02*
D03*
X-129178D02*
D03*
D38*
X-30512Y52416D02*
X-29745D01*
X-28991Y51663D01*
Y50896D02*
Y51663D01*
X-35615Y57520D02*
X-30512Y52416D01*
X-156120Y44010D02*
X-142610Y57520D01*
X-35615D01*
X-34801Y-23043D02*
Y44318D01*
X-34688Y45198D02*
X-28991Y50896D01*
X48597Y-70366D02*
X112391D01*
X-35201Y-36442D02*
Y-23043D01*
Y-37442D02*
X-17374Y-55269D01*
X19349D01*
X34446Y-70366D01*
X48597D01*
X113879Y-68878D02*
Y-67976D01*
X118359Y-65996D02*
X144483Y-39872D01*
X-141077Y-65162D02*
X-135713Y-59798D01*
X-141077Y-131197D02*
Y-124790D01*
X-144053Y-80073D02*
X-141077Y-77098D01*
Y-65162D01*
X-189932Y-80073D02*
X-144053D01*
X-159934Y-105933D02*
X-141077Y-124790D01*
X-192908Y-102958D02*
X-189932Y-105933D01*
X-192908Y-102958D02*
Y-83049D01*
X-189932Y-105933D02*
X-159934D01*
X-192908Y-83049D02*
X-189932Y-80073D01*
D39*
X117849Y-775D02*
X137073D01*
X112391Y-70366D02*
X113879Y-68878D01*
D40*
X-164375Y47464D02*
X-146064Y65775D01*
X-138022D01*
X-137583D02*
X-136082Y67276D01*
X-138022Y65775D02*
X-137583D01*
X-136082Y67276D02*
X-38882D01*
X-164375Y13542D02*
Y47464D01*
Y13542D02*
X-150905Y72D01*
X-136248Y-60110D02*
Y8280D01*
X-153100Y116495D02*
Y139018D01*
X-159084Y145002D02*
X-153100Y139018D01*
X-178183Y145002D02*
X-159084D01*
X-150419Y558D02*
X-145220D01*
X-137498Y8280D01*
X-141996Y148633D02*
X-136808Y143446D01*
X-194442Y-123157D02*
Y-113098D01*
Y-123157D02*
X-152400Y-165199D01*
X-213641Y-91553D02*
X-213476D01*
X-201163Y-106377D02*
X-194442Y-113098D01*
X-213476Y-91553D02*
X-201163Y-103866D01*
Y-106377D02*
Y-103866D01*
X-136808Y102396D02*
Y143446D01*
Y143791D01*
X-141823Y148806D02*
X-136808Y143791D01*
X-171571Y67634D02*
X-136808Y102396D01*
X-152400Y159038D02*
X-141996Y148633D01*
X-136808Y143446D02*
X-127918Y134556D01*
X-279600Y67634D02*
X-171571D01*
X-280051D02*
X-279600D01*
X-98881Y104252D02*
X-70883Y77521D01*
X-102229Y107600D02*
X-98881Y104252D01*
X-127918Y134556D02*
X-102229Y107600D01*
X-68253Y77521D02*
X-1679D01*
X-70883Y77521D02*
X-68253Y77521D01*
X-295018Y82601D02*
X-280051Y67634D01*
X-1679Y-77521D02*
X147599Y-165199D01*
X-295468Y57024D02*
X-264072Y25628D01*
X-295468Y57024D02*
Y82601D01*
X-264072Y-51204D02*
Y25628D01*
X-295213Y-82856D02*
X-259248D01*
X-1679Y77521D02*
X147599Y165199D01*
X-295468Y-82601D02*
X-264072Y-51204D01*
X147599Y-165199D02*
X290700Y-82601D01*
Y82601D01*
X147599Y165199D02*
X290700Y82601D01*
D41*
X-128691Y49376D02*
D03*
X-156120Y44010D02*
D03*
X32790Y-58709D02*
D03*
X-148127Y105032D02*
D03*
X-138022Y65775D02*
D03*
X17316Y33010D02*
D03*
X-38882Y67276D02*
D03*
X-141077Y-131197D02*
D03*
X-150905Y72D02*
D03*
X90588Y-52371D02*
D03*
X-232986Y-97764D02*
D03*
X-210887Y-15575D02*
D03*
X-107926Y-45348D02*
D03*
X-270422Y6127D02*
D03*
X-208979Y-3624D02*
D03*
D42*
X144423Y-40462D02*
D03*
X138810Y-1824D02*
D03*
X-152850Y116615D02*
D03*
X-178183Y145002D02*
D03*
X-279600Y67634D02*
D03*
X-213376Y-91653D02*
D03*
X-258993Y-83112D02*
D03*
D43*
X-21716Y33524D02*
D03*
X-1534Y-35255D02*
D03*
X-9946Y-13682D02*
D03*
D44*
X-13245Y20239D02*
D03*
X-60170Y92355D02*
D03*
X182819Y-20681D02*
D03*
M02*
