G04*
G04 #@! TF.GenerationSoftware,Altium Limited,Altium Designer,25.8.1 (18)*
G04*
G04 Layer_Color=8388736*
%FSLAX44Y44*%
%MOMM*%
G71*
G04*
G04 #@! TF.SameCoordinates,DC2A109C-38F9-4662-A5C9-921089D2BF11*
G04*
G04*
G04 #@! TF.FilePolarity,Positive*
G04*
G01*
G75*
%ADD12C,0.2000*%
G36*
X-22224Y44391D02*
X-25141D01*
X-25196Y44396D01*
X-25270D01*
X-25353Y44401D01*
X-25441Y44405D01*
X-25543Y44415D01*
X-25645Y44424D01*
X-25751Y44433D01*
X-25968Y44465D01*
X-26070Y44484D01*
X-26172Y44507D01*
X-26269Y44535D01*
X-26357Y44567D01*
X-26361D01*
X-26375Y44576D01*
X-26398Y44585D01*
X-26430Y44599D01*
X-26467Y44618D01*
X-26509Y44646D01*
X-26560Y44673D01*
X-26611Y44706D01*
X-26666Y44747D01*
X-26726Y44789D01*
X-26786Y44840D01*
X-26847Y44895D01*
X-26902Y44960D01*
X-26962Y45025D01*
X-27018Y45099D01*
X-27069Y45177D01*
X-27073Y45182D01*
X-27082Y45196D01*
X-27092Y45219D01*
X-27110Y45251D01*
X-27129Y45293D01*
X-27152Y45344D01*
X-27179Y45399D01*
X-27202Y45459D01*
X-27226Y45529D01*
X-27253Y45602D01*
X-27276Y45681D01*
X-27295Y45764D01*
X-27313Y45852D01*
X-27327Y45945D01*
X-27332Y46042D01*
X-27337Y46139D01*
Y46148D01*
Y46167D01*
X-27332Y46203D01*
Y46254D01*
X-27323Y46310D01*
X-27313Y46379D01*
X-27300Y46453D01*
X-27281Y46536D01*
X-27258Y46624D01*
X-27230Y46717D01*
X-27193Y46814D01*
X-27152Y46911D01*
X-27101Y47008D01*
X-27041Y47100D01*
X-26971Y47197D01*
X-26893Y47285D01*
X-26888Y47290D01*
X-26874Y47304D01*
X-26847Y47327D01*
X-26810Y47359D01*
X-26763Y47396D01*
X-26703Y47438D01*
X-26639Y47484D01*
X-26560Y47535D01*
X-26467Y47586D01*
X-26370Y47637D01*
X-26255Y47683D01*
X-26135Y47734D01*
X-26001Y47775D01*
X-25857Y47817D01*
X-25700Y47849D01*
X-25534Y47877D01*
X-25538D01*
X-25548Y47886D01*
X-25566Y47891D01*
X-25589Y47905D01*
X-25617Y47919D01*
X-25649Y47937D01*
X-25723Y47979D01*
X-25807Y48025D01*
X-25890Y48080D01*
X-25968Y48136D01*
X-26042Y48196D01*
X-26047Y48200D01*
X-26061Y48210D01*
X-26079Y48233D01*
X-26107Y48256D01*
X-26139Y48293D01*
X-26176Y48330D01*
X-26223Y48376D01*
X-26269Y48432D01*
X-26320Y48492D01*
X-26375Y48556D01*
X-26435Y48626D01*
X-26495Y48700D01*
X-26555Y48783D01*
X-26620Y48866D01*
X-26745Y49051D01*
X-27850Y50789D01*
X-26791D01*
X-25945Y49458D01*
X-25940Y49453D01*
X-25927Y49435D01*
X-25908Y49402D01*
X-25885Y49366D01*
X-25853Y49315D01*
X-25816Y49259D01*
X-25774Y49199D01*
X-25733Y49134D01*
X-25635Y48991D01*
X-25534Y48843D01*
X-25432Y48704D01*
X-25381Y48640D01*
X-25335Y48580D01*
X-25330Y48575D01*
X-25326Y48566D01*
X-25312Y48552D01*
X-25293Y48529D01*
X-25247Y48473D01*
X-25192Y48409D01*
X-25122Y48339D01*
X-25053Y48265D01*
X-24979Y48200D01*
X-24905Y48150D01*
X-24896Y48145D01*
X-24873Y48131D01*
X-24836Y48108D01*
X-24785Y48085D01*
X-24729Y48057D01*
X-24665Y48025D01*
X-24595Y48002D01*
X-24521Y47979D01*
X-24517D01*
X-24494Y47974D01*
X-24457Y47969D01*
X-24410Y47960D01*
X-24346Y47955D01*
X-24262Y47951D01*
X-24165Y47946D01*
X-23070D01*
Y50789D01*
X-22224D01*
Y44391D01*
D02*
G37*
G36*
X-30517Y45787D02*
X-30512Y45792D01*
X-30503Y45801D01*
X-30489Y45815D01*
X-30466Y45834D01*
X-30438Y45857D01*
X-30401Y45889D01*
X-30360Y45922D01*
X-30318Y45958D01*
X-30263Y45995D01*
X-30207Y46042D01*
X-30147Y46083D01*
X-30082Y46134D01*
X-30009Y46180D01*
X-29935Y46231D01*
X-29768Y46333D01*
X-29764Y46338D01*
X-29750Y46347D01*
X-29722Y46361D01*
X-29690Y46375D01*
X-29653Y46398D01*
X-29606Y46425D01*
X-29551Y46453D01*
X-29495Y46486D01*
X-29366Y46550D01*
X-29227Y46615D01*
X-29084Y46680D01*
X-28945Y46735D01*
Y45977D01*
X-28955Y45972D01*
X-28973Y45963D01*
X-29010Y45945D01*
X-29056Y45922D01*
X-29112Y45894D01*
X-29181Y45857D01*
X-29255Y45815D01*
X-29334Y45769D01*
X-29422Y45714D01*
X-29514Y45658D01*
X-29708Y45529D01*
X-29907Y45385D01*
X-30096Y45228D01*
X-30101Y45223D01*
X-30120Y45210D01*
X-30143Y45187D01*
X-30175Y45154D01*
X-30217Y45113D01*
X-30263Y45066D01*
X-30314Y45011D01*
X-30369Y44955D01*
X-30425Y44891D01*
X-30485Y44821D01*
X-30600Y44678D01*
X-30707Y44525D01*
X-30753Y44447D01*
X-30794Y44368D01*
X-31303D01*
Y50789D01*
X-30517D01*
Y45787D01*
D02*
G37*
G36*
X-35311Y50891D02*
X-35246Y50886D01*
X-35168Y50877D01*
X-35075Y50859D01*
X-34978Y50840D01*
X-34867Y50812D01*
X-34752Y50780D01*
X-34636Y50734D01*
X-34516Y50683D01*
X-34391Y50618D01*
X-34271Y50544D01*
X-34155Y50457D01*
X-34044Y50355D01*
X-33943Y50239D01*
Y50235D01*
X-33938Y50230D01*
X-33929Y50216D01*
X-33915Y50202D01*
X-33901Y50179D01*
X-33883Y50151D01*
X-33864Y50124D01*
X-33846Y50087D01*
X-33822Y50045D01*
X-33795Y49999D01*
X-33772Y49948D01*
X-33744Y49893D01*
X-33716Y49828D01*
X-33688Y49763D01*
X-33656Y49689D01*
X-33628Y49615D01*
X-33600Y49532D01*
X-33568Y49444D01*
X-33540Y49352D01*
X-33513Y49250D01*
X-33485Y49148D01*
X-33462Y49037D01*
X-33434Y48926D01*
X-33411Y48801D01*
X-33393Y48677D01*
X-33374Y48547D01*
X-33356Y48409D01*
X-33342Y48265D01*
X-33328Y48117D01*
X-33323Y47965D01*
X-33314Y47803D01*
Y47637D01*
Y47632D01*
Y47623D01*
Y47609D01*
Y47586D01*
Y47558D01*
Y47526D01*
X-33319Y47489D01*
Y47447D01*
X-33323Y47355D01*
X-33328Y47244D01*
X-33332Y47119D01*
X-33342Y46985D01*
X-33356Y46841D01*
X-33369Y46694D01*
X-33411Y46388D01*
X-33439Y46236D01*
X-33471Y46088D01*
X-33503Y45945D01*
X-33545Y45811D01*
X-33550Y45801D01*
X-33554Y45778D01*
X-33568Y45746D01*
X-33587Y45695D01*
X-33614Y45640D01*
X-33642Y45570D01*
X-33679Y45496D01*
X-33721Y45418D01*
X-33762Y45334D01*
X-33818Y45247D01*
X-33873Y45154D01*
X-33933Y45066D01*
X-34003Y44978D01*
X-34077Y44895D01*
X-34155Y44817D01*
X-34238Y44743D01*
X-34243Y44738D01*
X-34262Y44724D01*
X-34285Y44706D01*
X-34322Y44683D01*
X-34368Y44655D01*
X-34423Y44623D01*
X-34483Y44590D01*
X-34557Y44553D01*
X-34636Y44521D01*
X-34724Y44488D01*
X-34821Y44456D01*
X-34923Y44428D01*
X-35034Y44401D01*
X-35149Y44382D01*
X-35269Y44373D01*
X-35399Y44368D01*
X-35450D01*
X-35487Y44373D01*
X-35528D01*
X-35584Y44377D01*
X-35639Y44387D01*
X-35704Y44396D01*
X-35842Y44419D01*
X-35995Y44456D01*
X-36152Y44507D01*
X-36226Y44539D01*
X-36300Y44576D01*
X-36305D01*
X-36319Y44585D01*
X-36337Y44599D01*
X-36365Y44613D01*
X-36397Y44636D01*
X-36434Y44664D01*
X-36481Y44692D01*
X-36527Y44729D01*
X-36628Y44812D01*
X-36735Y44918D01*
X-36841Y45038D01*
X-36938Y45177D01*
X-36943Y45182D01*
X-36947Y45196D01*
X-36961Y45219D01*
X-36980Y45247D01*
X-37003Y45284D01*
X-37026Y45330D01*
X-37054Y45381D01*
X-37081Y45441D01*
X-37114Y45505D01*
X-37146Y45579D01*
X-37178Y45658D01*
X-37215Y45741D01*
X-37248Y45829D01*
X-37276Y45922D01*
X-37308Y46023D01*
X-37336Y46125D01*
Y46129D01*
X-37340Y46153D01*
X-37350Y46180D01*
X-37359Y46227D01*
X-37368Y46282D01*
X-37382Y46351D01*
X-37396Y46430D01*
X-37410Y46522D01*
X-37424Y46624D01*
X-37437Y46740D01*
X-37451Y46865D01*
X-37460Y46999D01*
X-37470Y47142D01*
X-37479Y47299D01*
X-37484Y47461D01*
Y47637D01*
Y47641D01*
Y47650D01*
Y47664D01*
Y47687D01*
Y47710D01*
Y47743D01*
X-37479Y47780D01*
Y47821D01*
X-37474Y47919D01*
X-37470Y48029D01*
X-37465Y48150D01*
X-37456Y48284D01*
X-37442Y48427D01*
X-37428Y48575D01*
X-37387Y48875D01*
X-37359Y49028D01*
X-37327Y49176D01*
X-37290Y49319D01*
X-37248Y49453D01*
X-37243Y49463D01*
X-37239Y49486D01*
X-37225Y49518D01*
X-37206Y49569D01*
X-37178Y49624D01*
X-37151Y49694D01*
X-37114Y49768D01*
X-37077Y49846D01*
X-37031Y49929D01*
X-36975Y50017D01*
X-36920Y50105D01*
X-36860Y50198D01*
X-36790Y50285D01*
X-36716Y50369D01*
X-36638Y50447D01*
X-36555Y50521D01*
X-36550Y50526D01*
X-36531Y50535D01*
X-36508Y50553D01*
X-36471Y50581D01*
X-36425Y50609D01*
X-36374Y50641D01*
X-36309Y50674D01*
X-36240Y50706D01*
X-36157Y50743D01*
X-36069Y50775D01*
X-35977Y50808D01*
X-35875Y50835D01*
X-35764Y50859D01*
X-35648Y50877D01*
X-35528Y50891D01*
X-35399Y50896D01*
X-35357D01*
X-35311Y50891D01*
D02*
G37*
G36*
X123623Y-61663D02*
X123618Y-61718D01*
Y-61792D01*
X123613Y-61875D01*
X123609Y-61963D01*
X123600Y-62065D01*
X123590Y-62167D01*
X123581Y-62273D01*
X123549Y-62490D01*
X123530Y-62592D01*
X123507Y-62694D01*
X123479Y-62791D01*
X123447Y-62878D01*
Y-62883D01*
X123438Y-62897D01*
X123428Y-62920D01*
X123415Y-62952D01*
X123396Y-62990D01*
X123368Y-63031D01*
X123341Y-63082D01*
X123308Y-63133D01*
X123267Y-63188D01*
X123225Y-63248D01*
X123174Y-63309D01*
X123119Y-63369D01*
X123054Y-63424D01*
X122989Y-63484D01*
X122915Y-63540D01*
X122837Y-63590D01*
X122832Y-63595D01*
X122818Y-63604D01*
X122795Y-63614D01*
X122763Y-63632D01*
X122721Y-63650D01*
X122670Y-63674D01*
X122615Y-63701D01*
X122555Y-63724D01*
X122485Y-63748D01*
X122411Y-63775D01*
X122333Y-63798D01*
X122250Y-63817D01*
X122162Y-63836D01*
X122069Y-63849D01*
X121972Y-63854D01*
X121875Y-63859D01*
X121866D01*
X121847D01*
X121810Y-63854D01*
X121760D01*
X121704Y-63845D01*
X121635Y-63836D01*
X121561Y-63822D01*
X121478Y-63803D01*
X121390Y-63780D01*
X121297Y-63752D01*
X121200Y-63715D01*
X121103Y-63674D01*
X121006Y-63623D01*
X120914Y-63563D01*
X120816Y-63493D01*
X120729Y-63415D01*
X120724Y-63410D01*
X120710Y-63396D01*
X120687Y-63369D01*
X120655Y-63332D01*
X120618Y-63285D01*
X120576Y-63225D01*
X120530Y-63161D01*
X120479Y-63082D01*
X120428Y-62990D01*
X120377Y-62892D01*
X120331Y-62777D01*
X120280Y-62657D01*
X120239Y-62523D01*
X120197Y-62379D01*
X120165Y-62222D01*
X120137Y-62056D01*
Y-62060D01*
X120128Y-62070D01*
X120123Y-62088D01*
X120109Y-62111D01*
X120095Y-62139D01*
X120077Y-62171D01*
X120035Y-62245D01*
X119989Y-62328D01*
X119934Y-62412D01*
X119878Y-62490D01*
X119818Y-62564D01*
X119813Y-62569D01*
X119804Y-62583D01*
X119781Y-62601D01*
X119758Y-62629D01*
X119721Y-62661D01*
X119684Y-62698D01*
X119638Y-62744D01*
X119582Y-62791D01*
X119522Y-62842D01*
X119457Y-62897D01*
X119388Y-62957D01*
X119314Y-63017D01*
X119231Y-63077D01*
X119148Y-63142D01*
X118963Y-63267D01*
X117225Y-64372D01*
Y-63313D01*
X118556Y-62467D01*
X118561Y-62463D01*
X118579Y-62449D01*
X118611Y-62430D01*
X118649Y-62407D01*
X118699Y-62375D01*
X118755Y-62338D01*
X118815Y-62296D01*
X118880Y-62255D01*
X119023Y-62157D01*
X119171Y-62056D01*
X119310Y-61954D01*
X119374Y-61903D01*
X119434Y-61857D01*
X119439Y-61852D01*
X119448Y-61848D01*
X119462Y-61834D01*
X119485Y-61815D01*
X119541Y-61769D01*
X119605Y-61714D01*
X119675Y-61644D01*
X119749Y-61575D01*
X119813Y-61501D01*
X119864Y-61427D01*
X119869Y-61418D01*
X119883Y-61395D01*
X119906Y-61358D01*
X119929Y-61307D01*
X119957Y-61251D01*
X119989Y-61187D01*
X120012Y-61117D01*
X120035Y-61043D01*
Y-61039D01*
X120040Y-61016D01*
X120044Y-60979D01*
X120054Y-60932D01*
X120058Y-60868D01*
X120063Y-60784D01*
X120068Y-60687D01*
Y-59592D01*
X117225D01*
Y-58746D01*
X123623D01*
Y-61663D01*
D02*
G37*
G36*
X122042Y-65477D02*
X122051Y-65495D01*
X122069Y-65532D01*
X122092Y-65578D01*
X122120Y-65634D01*
X122157Y-65703D01*
X122199Y-65777D01*
X122245Y-65856D01*
X122301Y-65943D01*
X122356Y-66036D01*
X122485Y-66230D01*
X122629Y-66429D01*
X122786Y-66618D01*
X122790Y-66623D01*
X122804Y-66642D01*
X122828Y-66665D01*
X122860Y-66697D01*
X122901Y-66739D01*
X122948Y-66785D01*
X123003Y-66836D01*
X123059Y-66891D01*
X123123Y-66947D01*
X123193Y-67007D01*
X123336Y-67122D01*
X123489Y-67229D01*
X123567Y-67275D01*
X123646Y-67316D01*
Y-67825D01*
X117225D01*
Y-67039D01*
X122226D01*
X122222Y-67034D01*
X122213Y-67025D01*
X122199Y-67011D01*
X122180Y-66988D01*
X122157Y-66961D01*
X122125Y-66923D01*
X122092Y-66882D01*
X122056Y-66840D01*
X122018Y-66785D01*
X121972Y-66729D01*
X121931Y-66669D01*
X121880Y-66604D01*
X121834Y-66531D01*
X121783Y-66457D01*
X121681Y-66290D01*
X121676Y-66286D01*
X121667Y-66272D01*
X121653Y-66244D01*
X121639Y-66212D01*
X121616Y-66175D01*
X121589Y-66128D01*
X121561Y-66073D01*
X121529Y-66017D01*
X121464Y-65888D01*
X121399Y-65749D01*
X121334Y-65606D01*
X121279Y-65467D01*
X122037D01*
X122042Y-65477D01*
D02*
G37*
G36*
X119018Y-70626D02*
X119009D01*
X118990Y-70631D01*
X118954Y-70640D01*
X118907Y-70654D01*
X118852Y-70668D01*
X118792Y-70686D01*
X118722Y-70710D01*
X118649Y-70733D01*
X118487Y-70797D01*
X118329Y-70876D01*
X118251Y-70922D01*
X118177Y-70973D01*
X118112Y-71024D01*
X118052Y-71084D01*
X118048Y-71089D01*
X118038Y-71098D01*
X118024Y-71116D01*
X118006Y-71144D01*
X117983Y-71172D01*
X117960Y-71213D01*
X117932Y-71255D01*
X117909Y-71306D01*
X117881Y-71361D01*
X117853Y-71421D01*
X117830Y-71486D01*
X117807Y-71556D01*
X117789Y-71630D01*
X117775Y-71708D01*
X117766Y-71787D01*
X117761Y-71874D01*
Y-71898D01*
X117766Y-71930D01*
Y-71967D01*
X117775Y-72018D01*
X117779Y-72073D01*
X117793Y-72133D01*
X117807Y-72203D01*
X117830Y-72272D01*
X117853Y-72351D01*
X117886Y-72429D01*
X117923Y-72508D01*
X117969Y-72586D01*
X118020Y-72665D01*
X118075Y-72739D01*
X118145Y-72813D01*
X118149Y-72818D01*
X118163Y-72831D01*
X118182Y-72850D01*
X118214Y-72873D01*
X118251Y-72901D01*
X118297Y-72933D01*
X118348Y-72970D01*
X118408Y-73007D01*
X118473Y-73039D01*
X118547Y-73076D01*
X118621Y-73109D01*
X118709Y-73137D01*
X118796Y-73160D01*
X118889Y-73178D01*
X118990Y-73192D01*
X119092Y-73197D01*
X119097D01*
X119115D01*
X119143D01*
X119185Y-73192D01*
X119226Y-73187D01*
X119282Y-73178D01*
X119342Y-73169D01*
X119407Y-73150D01*
X119476Y-73132D01*
X119550Y-73109D01*
X119624Y-73081D01*
X119698Y-73049D01*
X119772Y-73007D01*
X119846Y-72956D01*
X119915Y-72905D01*
X119984Y-72841D01*
X119989Y-72836D01*
X119998Y-72827D01*
X120017Y-72804D01*
X120040Y-72776D01*
X120068Y-72744D01*
X120095Y-72702D01*
X120128Y-72651D01*
X120160Y-72596D01*
X120192Y-72536D01*
X120225Y-72466D01*
X120253Y-72392D01*
X120280Y-72314D01*
X120303Y-72231D01*
X120322Y-72138D01*
X120331Y-72046D01*
X120336Y-71944D01*
Y-71902D01*
X120331Y-71856D01*
X120326Y-71791D01*
X120317Y-71708D01*
X120299Y-71616D01*
X120280Y-71509D01*
X120253Y-71389D01*
X120941Y-71477D01*
Y-71491D01*
X120937Y-71505D01*
Y-71523D01*
X120932Y-71565D01*
Y-71653D01*
X120937Y-71685D01*
X120941Y-71731D01*
X120946Y-71782D01*
X120955Y-71838D01*
X120964Y-71902D01*
X120978Y-71972D01*
X120997Y-72041D01*
X121043Y-72193D01*
X121071Y-72272D01*
X121108Y-72351D01*
X121145Y-72429D01*
X121191Y-72503D01*
X121196Y-72508D01*
X121205Y-72522D01*
X121219Y-72540D01*
X121242Y-72568D01*
X121270Y-72596D01*
X121302Y-72633D01*
X121343Y-72665D01*
X121390Y-72707D01*
X121445Y-72744D01*
X121505Y-72781D01*
X121570Y-72813D01*
X121644Y-72841D01*
X121723Y-72868D01*
X121810Y-72887D01*
X121903Y-72901D01*
X122000Y-72905D01*
X122005D01*
X122018D01*
X122042D01*
X122074Y-72901D01*
X122106Y-72896D01*
X122153Y-72892D01*
X122199Y-72882D01*
X122250Y-72868D01*
X122361Y-72831D01*
X122421Y-72808D01*
X122481Y-72781D01*
X122541Y-72748D01*
X122601Y-72707D01*
X122656Y-72660D01*
X122712Y-72610D01*
X122717Y-72605D01*
X122726Y-72596D01*
X122740Y-72582D01*
X122758Y-72559D01*
X122777Y-72526D01*
X122804Y-72494D01*
X122828Y-72452D01*
X122855Y-72406D01*
X122883Y-72355D01*
X122906Y-72300D01*
X122934Y-72235D01*
X122952Y-72170D01*
X122971Y-72096D01*
X122985Y-72022D01*
X122994Y-71939D01*
X122999Y-71856D01*
Y-71810D01*
X122994Y-71782D01*
X122989Y-71740D01*
X122985Y-71694D01*
X122975Y-71643D01*
X122962Y-71588D01*
X122929Y-71468D01*
X122906Y-71408D01*
X122874Y-71343D01*
X122841Y-71278D01*
X122804Y-71213D01*
X122758Y-71153D01*
X122707Y-71093D01*
X122703Y-71089D01*
X122693Y-71079D01*
X122675Y-71066D01*
X122652Y-71042D01*
X122624Y-71019D01*
X122587Y-70992D01*
X122541Y-70964D01*
X122495Y-70932D01*
X122435Y-70899D01*
X122370Y-70867D01*
X122301Y-70830D01*
X122222Y-70802D01*
X122139Y-70770D01*
X122051Y-70746D01*
X121954Y-70723D01*
X121847Y-70705D01*
X121986Y-69919D01*
X121991D01*
X121995D01*
X122023Y-69928D01*
X122060Y-69938D01*
X122116Y-69951D01*
X122185Y-69970D01*
X122259Y-69993D01*
X122342Y-70021D01*
X122435Y-70053D01*
X122532Y-70095D01*
X122633Y-70141D01*
X122735Y-70196D01*
X122837Y-70257D01*
X122938Y-70321D01*
X123035Y-70395D01*
X123128Y-70478D01*
X123211Y-70571D01*
X123216Y-70575D01*
X123230Y-70594D01*
X123253Y-70622D01*
X123280Y-70663D01*
X123313Y-70714D01*
X123350Y-70774D01*
X123387Y-70844D01*
X123428Y-70922D01*
X123470Y-71010D01*
X123507Y-71107D01*
X123544Y-71209D01*
X123576Y-71320D01*
X123604Y-71440D01*
X123627Y-71569D01*
X123641Y-71704D01*
X123646Y-71842D01*
Y-71893D01*
X123641Y-71930D01*
Y-71976D01*
X123632Y-72032D01*
X123627Y-72092D01*
X123618Y-72157D01*
X123604Y-72231D01*
X123590Y-72304D01*
X123549Y-72466D01*
X123525Y-72554D01*
X123493Y-72637D01*
X123461Y-72720D01*
X123419Y-72804D01*
X123415Y-72808D01*
X123410Y-72822D01*
X123396Y-72845D01*
X123378Y-72878D01*
X123355Y-72915D01*
X123327Y-72956D01*
X123294Y-73003D01*
X123257Y-73053D01*
X123170Y-73164D01*
X123063Y-73275D01*
X122943Y-73382D01*
X122874Y-73432D01*
X122804Y-73479D01*
X122800Y-73483D01*
X122786Y-73488D01*
X122767Y-73502D01*
X122735Y-73516D01*
X122703Y-73534D01*
X122656Y-73553D01*
X122610Y-73576D01*
X122555Y-73599D01*
X122495Y-73617D01*
X122435Y-73640D01*
X122296Y-73677D01*
X122143Y-73705D01*
X122065Y-73710D01*
X121981Y-73714D01*
X121977D01*
X121963D01*
X121940D01*
X121912Y-73710D01*
X121875D01*
X121834Y-73700D01*
X121783Y-73696D01*
X121732Y-73687D01*
X121612Y-73659D01*
X121487Y-73617D01*
X121422Y-73594D01*
X121353Y-73562D01*
X121288Y-73530D01*
X121223Y-73488D01*
X121219Y-73483D01*
X121209Y-73479D01*
X121191Y-73465D01*
X121168Y-73446D01*
X121140Y-73423D01*
X121108Y-73395D01*
X121071Y-73363D01*
X121029Y-73321D01*
X120988Y-73280D01*
X120946Y-73229D01*
X120900Y-73178D01*
X120854Y-73118D01*
X120812Y-73053D01*
X120766Y-72984D01*
X120724Y-72910D01*
X120687Y-72831D01*
Y-72836D01*
X120682Y-72854D01*
X120673Y-72887D01*
X120659Y-72924D01*
X120646Y-72975D01*
X120622Y-73030D01*
X120599Y-73090D01*
X120567Y-73155D01*
X120535Y-73224D01*
X120493Y-73298D01*
X120451Y-73372D01*
X120400Y-73446D01*
X120345Y-73516D01*
X120285Y-73585D01*
X120216Y-73654D01*
X120142Y-73714D01*
X120137Y-73719D01*
X120123Y-73728D01*
X120100Y-73742D01*
X120068Y-73765D01*
X120026Y-73788D01*
X119980Y-73816D01*
X119924Y-73844D01*
X119860Y-73872D01*
X119786Y-73899D01*
X119707Y-73932D01*
X119624Y-73955D01*
X119531Y-73978D01*
X119434Y-74001D01*
X119333Y-74015D01*
X119226Y-74024D01*
X119111Y-74029D01*
X119101D01*
X119074D01*
X119028Y-74024D01*
X118972Y-74019D01*
X118898Y-74010D01*
X118815Y-73996D01*
X118722Y-73978D01*
X118621Y-73950D01*
X118510Y-73918D01*
X118399Y-73881D01*
X118279Y-73830D01*
X118158Y-73770D01*
X118038Y-73700D01*
X117918Y-73617D01*
X117802Y-73520D01*
X117691Y-73414D01*
X117687Y-73405D01*
X117668Y-73386D01*
X117636Y-73354D01*
X117599Y-73303D01*
X117557Y-73243D01*
X117507Y-73173D01*
X117456Y-73086D01*
X117400Y-72993D01*
X117345Y-72887D01*
X117294Y-72767D01*
X117243Y-72642D01*
X117201Y-72503D01*
X117164Y-72360D01*
X117132Y-72203D01*
X117114Y-72041D01*
X117109Y-71870D01*
Y-71833D01*
X117114Y-71787D01*
X117118Y-71731D01*
X117123Y-71657D01*
X117137Y-71574D01*
X117151Y-71482D01*
X117174Y-71380D01*
X117197Y-71273D01*
X117229Y-71158D01*
X117271Y-71042D01*
X117322Y-70922D01*
X117377Y-70807D01*
X117442Y-70691D01*
X117521Y-70575D01*
X117608Y-70469D01*
X117613Y-70465D01*
X117631Y-70446D01*
X117659Y-70418D01*
X117701Y-70381D01*
X117752Y-70340D01*
X117812Y-70289D01*
X117881Y-70238D01*
X117960Y-70183D01*
X118048Y-70127D01*
X118149Y-70072D01*
X118256Y-70021D01*
X118371Y-69970D01*
X118496Y-69928D01*
X118625Y-69887D01*
X118764Y-69859D01*
X118912Y-69840D01*
X119018Y-70626D01*
D02*
G37*
G36*
X88127Y9899D02*
Y9894D01*
Y9890D01*
Y9876D01*
Y9857D01*
Y9834D01*
Y9807D01*
X88123Y9742D01*
Y9659D01*
X88118Y9566D01*
X88109Y9460D01*
X88099Y9349D01*
X88086Y9229D01*
X88072Y9104D01*
X88035Y8850D01*
X88007Y8720D01*
X87979Y8600D01*
X87942Y8480D01*
X87905Y8369D01*
X87901Y8364D01*
X87896Y8346D01*
X87882Y8313D01*
X87864Y8276D01*
X87836Y8225D01*
X87808Y8170D01*
X87771Y8110D01*
X87725Y8041D01*
X87674Y7967D01*
X87619Y7893D01*
X87554Y7819D01*
X87480Y7740D01*
X87402Y7661D01*
X87318Y7588D01*
X87221Y7514D01*
X87120Y7444D01*
X87115Y7440D01*
X87092Y7430D01*
X87059Y7412D01*
X87018Y7389D01*
X86958Y7361D01*
X86893Y7333D01*
X86810Y7301D01*
X86722Y7269D01*
X86616Y7236D01*
X86505Y7204D01*
X86384Y7176D01*
X86250Y7148D01*
X86107Y7125D01*
X85955Y7107D01*
X85797Y7097D01*
X85626Y7093D01*
X85539D01*
X85478Y7097D01*
X85400Y7102D01*
X85312Y7111D01*
X85210Y7121D01*
X85104Y7130D01*
X84988Y7148D01*
X84868Y7167D01*
X84748Y7195D01*
X84623Y7222D01*
X84503Y7259D01*
X84378Y7301D01*
X84263Y7347D01*
X84152Y7403D01*
X84147Y7407D01*
X84129Y7416D01*
X84096Y7435D01*
X84059Y7458D01*
X84013Y7491D01*
X83958Y7532D01*
X83902Y7578D01*
X83837Y7629D01*
X83773Y7689D01*
X83703Y7759D01*
X83634Y7828D01*
X83569Y7911D01*
X83504Y7994D01*
X83444Y8091D01*
X83389Y8188D01*
X83338Y8295D01*
X83333Y8304D01*
X83329Y8323D01*
X83315Y8355D01*
X83301Y8401D01*
X83283Y8461D01*
X83264Y8535D01*
X83241Y8618D01*
X83218Y8716D01*
X83195Y8826D01*
X83172Y8947D01*
X83153Y9076D01*
X83135Y9219D01*
X83121Y9372D01*
X83107Y9538D01*
X83102Y9714D01*
X83098Y9899D01*
Y13597D01*
X83944D01*
Y9904D01*
Y9894D01*
Y9867D01*
Y9825D01*
X83948Y9769D01*
Y9700D01*
X83953Y9622D01*
X83958Y9534D01*
X83962Y9437D01*
X83971Y9340D01*
X83981Y9238D01*
X84008Y9035D01*
X84027Y8937D01*
X84045Y8840D01*
X84068Y8752D01*
X84096Y8674D01*
Y8669D01*
X84105Y8655D01*
X84115Y8637D01*
X84129Y8609D01*
X84142Y8577D01*
X84165Y8540D01*
X84221Y8452D01*
X84295Y8355D01*
X84337Y8304D01*
X84387Y8253D01*
X84438Y8202D01*
X84498Y8156D01*
X84558Y8110D01*
X84628Y8068D01*
X84632D01*
X84646Y8059D01*
X84665Y8050D01*
X84697Y8036D01*
X84734Y8018D01*
X84776Y7999D01*
X84827Y7980D01*
X84887Y7962D01*
X84951Y7944D01*
X85021Y7925D01*
X85095Y7907D01*
X85178Y7888D01*
X85266Y7874D01*
X85358Y7865D01*
X85451Y7860D01*
X85552Y7856D01*
X85594D01*
X85640Y7860D01*
X85705D01*
X85784Y7869D01*
X85867Y7879D01*
X85964Y7893D01*
X86070Y7907D01*
X86176Y7930D01*
X86287Y7957D01*
X86398Y7994D01*
X86509Y8031D01*
X86616Y8082D01*
X86713Y8138D01*
X86805Y8202D01*
X86884Y8276D01*
X86888Y8281D01*
X86902Y8295D01*
X86921Y8323D01*
X86944Y8360D01*
X86976Y8410D01*
X87008Y8475D01*
X87045Y8549D01*
X87083Y8641D01*
X87120Y8743D01*
X87156Y8859D01*
X87189Y8993D01*
X87221Y9141D01*
X87244Y9307D01*
X87263Y9488D01*
X87277Y9686D01*
X87281Y9904D01*
Y13597D01*
X88127D01*
Y9899D01*
D02*
G37*
G36*
X93161Y12765D02*
X90601D01*
X90258Y11041D01*
X90263Y11045D01*
X90286Y11059D01*
X90314Y11078D01*
X90360Y11106D01*
X90411Y11133D01*
X90471Y11170D01*
X90545Y11203D01*
X90624Y11244D01*
X90711Y11281D01*
X90804Y11318D01*
X90906Y11351D01*
X91007Y11378D01*
X91118Y11406D01*
X91229Y11424D01*
X91349Y11438D01*
X91465Y11443D01*
X91502D01*
X91548Y11438D01*
X91604Y11434D01*
X91678Y11424D01*
X91761Y11411D01*
X91858Y11392D01*
X91960Y11369D01*
X92066Y11341D01*
X92182Y11300D01*
X92297Y11253D01*
X92417Y11198D01*
X92537Y11129D01*
X92658Y11055D01*
X92773Y10962D01*
X92884Y10861D01*
X92889Y10856D01*
X92907Y10833D01*
X92940Y10800D01*
X92977Y10754D01*
X93018Y10699D01*
X93069Y10629D01*
X93120Y10546D01*
X93175Y10454D01*
X93226Y10352D01*
X93277Y10241D01*
X93328Y10116D01*
X93374Y9987D01*
X93406Y9844D01*
X93439Y9691D01*
X93457Y9534D01*
X93462Y9367D01*
Y9363D01*
Y9358D01*
Y9344D01*
Y9330D01*
X93457Y9284D01*
X93453Y9224D01*
X93448Y9145D01*
X93434Y9058D01*
X93420Y8960D01*
X93397Y8854D01*
X93370Y8739D01*
X93337Y8618D01*
X93295Y8494D01*
X93249Y8369D01*
X93189Y8239D01*
X93120Y8115D01*
X93041Y7990D01*
X92954Y7869D01*
X92944Y7860D01*
X92926Y7837D01*
X92889Y7800D01*
X92843Y7749D01*
X92778Y7689D01*
X92704Y7624D01*
X92616Y7555D01*
X92514Y7481D01*
X92399Y7407D01*
X92274Y7338D01*
X92135Y7273D01*
X91983Y7213D01*
X91821Y7167D01*
X91650Y7125D01*
X91465Y7102D01*
X91271Y7093D01*
X91234D01*
X91187Y7097D01*
X91128Y7102D01*
X91053Y7107D01*
X90966Y7121D01*
X90869Y7135D01*
X90767Y7153D01*
X90656Y7181D01*
X90540Y7213D01*
X90420Y7250D01*
X90300Y7296D01*
X90184Y7352D01*
X90064Y7416D01*
X89953Y7495D01*
X89847Y7578D01*
X89842Y7583D01*
X89824Y7601D01*
X89796Y7629D01*
X89759Y7666D01*
X89718Y7717D01*
X89667Y7777D01*
X89616Y7846D01*
X89560Y7925D01*
X89505Y8013D01*
X89454Y8110D01*
X89398Y8216D01*
X89348Y8332D01*
X89306Y8457D01*
X89269Y8591D01*
X89237Y8729D01*
X89218Y8877D01*
X90041Y8947D01*
Y8942D01*
X90046Y8919D01*
X90050Y8891D01*
X90060Y8850D01*
X90073Y8799D01*
X90087Y8739D01*
X90106Y8674D01*
X90129Y8605D01*
X90184Y8461D01*
X90217Y8383D01*
X90254Y8309D01*
X90300Y8235D01*
X90346Y8165D01*
X90402Y8101D01*
X90462Y8041D01*
X90466Y8036D01*
X90476Y8027D01*
X90494Y8013D01*
X90522Y7994D01*
X90554Y7971D01*
X90596Y7944D01*
X90637Y7920D01*
X90688Y7893D01*
X90744Y7860D01*
X90808Y7837D01*
X90873Y7809D01*
X90947Y7786D01*
X91021Y7768D01*
X91100Y7754D01*
X91183Y7745D01*
X91271Y7740D01*
X91299D01*
X91326Y7745D01*
X91368D01*
X91414Y7754D01*
X91474Y7763D01*
X91539Y7777D01*
X91608Y7796D01*
X91682Y7814D01*
X91761Y7842D01*
X91839Y7879D01*
X91923Y7920D01*
X92001Y7967D01*
X92084Y8027D01*
X92163Y8091D01*
X92237Y8165D01*
X92241Y8170D01*
X92255Y8184D01*
X92274Y8212D01*
X92297Y8244D01*
X92329Y8286D01*
X92362Y8336D01*
X92399Y8396D01*
X92436Y8466D01*
X92468Y8544D01*
X92505Y8628D01*
X92537Y8720D01*
X92570Y8822D01*
X92593Y8933D01*
X92611Y9048D01*
X92625Y9168D01*
X92630Y9298D01*
Y9307D01*
Y9326D01*
X92625Y9363D01*
Y9409D01*
X92621Y9464D01*
X92611Y9534D01*
X92598Y9603D01*
X92584Y9686D01*
X92561Y9769D01*
X92537Y9853D01*
X92505Y9941D01*
X92468Y10033D01*
X92427Y10121D01*
X92376Y10204D01*
X92316Y10287D01*
X92251Y10361D01*
X92246Y10366D01*
X92232Y10380D01*
X92214Y10398D01*
X92182Y10421D01*
X92144Y10454D01*
X92098Y10486D01*
X92047Y10518D01*
X91987Y10555D01*
X91918Y10592D01*
X91844Y10625D01*
X91765Y10662D01*
X91678Y10689D01*
X91580Y10713D01*
X91479Y10731D01*
X91372Y10745D01*
X91262Y10749D01*
X91224D01*
X91197Y10745D01*
X91164D01*
X91123Y10740D01*
X91081Y10736D01*
X91030Y10726D01*
X90924Y10708D01*
X90808Y10676D01*
X90688Y10634D01*
X90573Y10574D01*
X90568D01*
X90559Y10565D01*
X90545Y10555D01*
X90522Y10541D01*
X90466Y10504D01*
X90397Y10454D01*
X90323Y10389D01*
X90245Y10315D01*
X90166Y10227D01*
X90097Y10130D01*
X89357Y10227D01*
X89976Y13514D01*
X93161D01*
Y12765D01*
D02*
G37*
G36*
X54929Y-65819D02*
X54924Y-65874D01*
Y-65948D01*
X54919Y-66031D01*
X54915Y-66119D01*
X54906Y-66221D01*
X54896Y-66322D01*
X54887Y-66429D01*
X54855Y-66646D01*
X54836Y-66748D01*
X54813Y-66849D01*
X54785Y-66947D01*
X54753Y-67034D01*
Y-67039D01*
X54744Y-67053D01*
X54735Y-67076D01*
X54721Y-67108D01*
X54702Y-67145D01*
X54674Y-67187D01*
X54647Y-67238D01*
X54614Y-67289D01*
X54573Y-67344D01*
X54531Y-67404D01*
X54480Y-67464D01*
X54425Y-67524D01*
X54360Y-67580D01*
X54295Y-67640D01*
X54221Y-67695D01*
X54143Y-67746D01*
X54138Y-67751D01*
X54124Y-67760D01*
X54101Y-67769D01*
X54069Y-67788D01*
X54027Y-67806D01*
X53976Y-67830D01*
X53921Y-67857D01*
X53861Y-67880D01*
X53791Y-67903D01*
X53717Y-67931D01*
X53639Y-67954D01*
X53556Y-67973D01*
X53468Y-67991D01*
X53375Y-68005D01*
X53278Y-68010D01*
X53181Y-68014D01*
X53172D01*
X53154D01*
X53116Y-68010D01*
X53066D01*
X53010Y-68001D01*
X52941Y-67991D01*
X52867Y-67977D01*
X52784Y-67959D01*
X52696Y-67936D01*
X52603Y-67908D01*
X52506Y-67871D01*
X52409Y-67830D01*
X52312Y-67779D01*
X52220Y-67719D01*
X52123Y-67649D01*
X52035Y-67571D01*
X52030Y-67566D01*
X52016Y-67552D01*
X51993Y-67524D01*
X51961Y-67488D01*
X51924Y-67441D01*
X51882Y-67381D01*
X51836Y-67316D01*
X51785Y-67238D01*
X51734Y-67145D01*
X51683Y-67048D01*
X51637Y-66933D01*
X51586Y-66813D01*
X51545Y-66679D01*
X51503Y-66535D01*
X51471Y-66378D01*
X51443Y-66212D01*
Y-66216D01*
X51434Y-66225D01*
X51429Y-66244D01*
X51415Y-66267D01*
X51401Y-66295D01*
X51383Y-66327D01*
X51341Y-66401D01*
X51295Y-66484D01*
X51240Y-66568D01*
X51184Y-66646D01*
X51124Y-66720D01*
X51119Y-66725D01*
X51110Y-66739D01*
X51087Y-66757D01*
X51064Y-66785D01*
X51027Y-66817D01*
X50990Y-66854D01*
X50944Y-66900D01*
X50888Y-66947D01*
X50828Y-66997D01*
X50764Y-67053D01*
X50694Y-67113D01*
X50620Y-67173D01*
X50537Y-67233D01*
X50454Y-67298D01*
X50269Y-67423D01*
X48531Y-68528D01*
Y-67469D01*
X49862Y-66623D01*
X49867Y-66618D01*
X49885Y-66604D01*
X49917Y-66586D01*
X49955Y-66563D01*
X50005Y-66531D01*
X50061Y-66494D01*
X50121Y-66452D01*
X50186Y-66410D01*
X50329Y-66313D01*
X50477Y-66212D01*
X50616Y-66110D01*
X50680Y-66059D01*
X50740Y-66013D01*
X50745Y-66008D01*
X50754Y-66004D01*
X50768Y-65990D01*
X50791Y-65971D01*
X50847Y-65925D01*
X50911Y-65869D01*
X50981Y-65800D01*
X51055Y-65731D01*
X51119Y-65657D01*
X51170Y-65583D01*
X51175Y-65574D01*
X51189Y-65550D01*
X51212Y-65514D01*
X51235Y-65463D01*
X51263Y-65407D01*
X51295Y-65342D01*
X51318Y-65273D01*
X51341Y-65199D01*
Y-65195D01*
X51346Y-65171D01*
X51351Y-65135D01*
X51360Y-65088D01*
X51364Y-65023D01*
X51369Y-64940D01*
X51374Y-64843D01*
Y-63748D01*
X48531D01*
Y-62902D01*
X54929D01*
Y-65819D01*
D02*
G37*
G36*
X53348Y-69632D02*
X53357Y-69651D01*
X53375Y-69688D01*
X53398Y-69734D01*
X53426Y-69790D01*
X53463Y-69859D01*
X53505Y-69933D01*
X53551Y-70012D01*
X53607Y-70099D01*
X53662Y-70192D01*
X53791Y-70386D01*
X53935Y-70585D01*
X54092Y-70774D01*
X54096Y-70779D01*
X54110Y-70797D01*
X54134Y-70820D01*
X54166Y-70853D01*
X54208Y-70894D01*
X54254Y-70941D01*
X54309Y-70992D01*
X54365Y-71047D01*
X54429Y-71102D01*
X54499Y-71163D01*
X54642Y-71278D01*
X54795Y-71385D01*
X54873Y-71431D01*
X54952Y-71472D01*
Y-71981D01*
X48531D01*
Y-71195D01*
X53533D01*
X53528Y-71190D01*
X53519Y-71181D01*
X53505Y-71167D01*
X53486Y-71144D01*
X53463Y-71116D01*
X53431Y-71079D01*
X53398Y-71038D01*
X53362Y-70996D01*
X53324Y-70941D01*
X53278Y-70885D01*
X53237Y-70825D01*
X53186Y-70760D01*
X53140Y-70686D01*
X53089Y-70613D01*
X52987Y-70446D01*
X52982Y-70441D01*
X52973Y-70428D01*
X52959Y-70400D01*
X52945Y-70367D01*
X52922Y-70331D01*
X52895Y-70284D01*
X52867Y-70229D01*
X52835Y-70173D01*
X52770Y-70044D01*
X52705Y-69905D01*
X52640Y-69762D01*
X52585Y-69623D01*
X53343D01*
X53348Y-69632D01*
D02*
G37*
G36*
X48632Y-73899D02*
X48706Y-73904D01*
X48785Y-73913D01*
X48877Y-73927D01*
X48974Y-73950D01*
X49071Y-73983D01*
X49076D01*
X49090Y-73992D01*
X49113Y-74001D01*
X49145Y-74015D01*
X49187Y-74029D01*
X49233Y-74052D01*
X49284Y-74080D01*
X49340Y-74107D01*
X49404Y-74140D01*
X49469Y-74181D01*
X49612Y-74269D01*
X49765Y-74375D01*
X49922Y-74500D01*
X49927Y-74505D01*
X49941Y-74519D01*
X49964Y-74537D01*
X49996Y-74565D01*
X50038Y-74602D01*
X50084Y-74648D01*
X50139Y-74699D01*
X50199Y-74764D01*
X50269Y-74833D01*
X50343Y-74907D01*
X50421Y-74990D01*
X50509Y-75083D01*
X50597Y-75184D01*
X50690Y-75291D01*
X50787Y-75406D01*
X50888Y-75526D01*
X50893Y-75531D01*
X50897Y-75540D01*
X50911Y-75554D01*
X50925Y-75573D01*
X50948Y-75596D01*
X50971Y-75624D01*
X51032Y-75693D01*
X51101Y-75781D01*
X51189Y-75873D01*
X51281Y-75980D01*
X51383Y-76090D01*
X51489Y-76211D01*
X51600Y-76326D01*
X51711Y-76446D01*
X51827Y-76557D01*
X51938Y-76668D01*
X52044Y-76765D01*
X52150Y-76858D01*
X52247Y-76932D01*
X52252Y-76936D01*
X52270Y-76946D01*
X52298Y-76964D01*
X52331Y-76992D01*
X52377Y-77020D01*
X52428Y-77047D01*
X52488Y-77084D01*
X52552Y-77117D01*
X52622Y-77149D01*
X52696Y-77186D01*
X52858Y-77246D01*
X52941Y-77269D01*
X53024Y-77288D01*
X53107Y-77297D01*
X53190Y-77302D01*
X53195D01*
X53214D01*
X53237D01*
X53269Y-77297D01*
X53311Y-77292D01*
X53357Y-77283D01*
X53408Y-77274D01*
X53463Y-77260D01*
X53523Y-77242D01*
X53588Y-77218D01*
X53653Y-77191D01*
X53717Y-77158D01*
X53787Y-77121D01*
X53851Y-77075D01*
X53916Y-77024D01*
X53976Y-76964D01*
X53981Y-76960D01*
X53990Y-76950D01*
X54004Y-76932D01*
X54027Y-76904D01*
X54050Y-76872D01*
X54078Y-76830D01*
X54110Y-76784D01*
X54138Y-76733D01*
X54170Y-76673D01*
X54198Y-76608D01*
X54226Y-76534D01*
X54249Y-76460D01*
X54272Y-76377D01*
X54286Y-76289D01*
X54295Y-76197D01*
X54300Y-76100D01*
Y-76044D01*
X54295Y-76007D01*
X54291Y-75956D01*
X54281Y-75901D01*
X54272Y-75841D01*
X54258Y-75771D01*
X54240Y-75702D01*
X54217Y-75628D01*
X54189Y-75554D01*
X54157Y-75476D01*
X54115Y-75402D01*
X54069Y-75328D01*
X54018Y-75254D01*
X53958Y-75189D01*
X53953Y-75184D01*
X53944Y-75175D01*
X53921Y-75157D01*
X53898Y-75138D01*
X53861Y-75111D01*
X53819Y-75083D01*
X53768Y-75050D01*
X53713Y-75023D01*
X53653Y-74990D01*
X53579Y-74958D01*
X53505Y-74930D01*
X53422Y-74902D01*
X53329Y-74884D01*
X53232Y-74865D01*
X53130Y-74856D01*
X53019Y-74852D01*
X53103Y-74043D01*
X53107D01*
X53112D01*
X53126Y-74047D01*
X53144D01*
X53190Y-74052D01*
X53250Y-74066D01*
X53324Y-74080D01*
X53412Y-74098D01*
X53509Y-74121D01*
X53611Y-74149D01*
X53722Y-74186D01*
X53833Y-74227D01*
X53949Y-74278D01*
X54064Y-74338D01*
X54175Y-74403D01*
X54281Y-74482D01*
X54383Y-74565D01*
X54476Y-74662D01*
X54480Y-74667D01*
X54494Y-74685D01*
X54522Y-74717D01*
X54549Y-74759D01*
X54587Y-74815D01*
X54628Y-74879D01*
X54670Y-74958D01*
X54716Y-75046D01*
X54758Y-75147D01*
X54799Y-75254D01*
X54841Y-75374D01*
X54878Y-75503D01*
X54910Y-75642D01*
X54933Y-75790D01*
X54947Y-75947D01*
X54952Y-76114D01*
Y-76155D01*
X54947Y-76201D01*
X54942Y-76266D01*
X54938Y-76345D01*
X54924Y-76433D01*
X54910Y-76534D01*
X54887Y-76641D01*
X54859Y-76756D01*
X54827Y-76872D01*
X54785Y-76997D01*
X54735Y-77117D01*
X54674Y-77237D01*
X54610Y-77352D01*
X54531Y-77463D01*
X54439Y-77570D01*
X54434Y-77574D01*
X54415Y-77593D01*
X54388Y-77621D01*
X54346Y-77653D01*
X54300Y-77695D01*
X54240Y-77741D01*
X54170Y-77792D01*
X54092Y-77842D01*
X54004Y-77889D01*
X53907Y-77940D01*
X53801Y-77986D01*
X53690Y-78028D01*
X53569Y-78060D01*
X53445Y-78088D01*
X53311Y-78106D01*
X53172Y-78111D01*
X53167D01*
X53154D01*
X53135D01*
X53107D01*
X53070Y-78106D01*
X53033Y-78101D01*
X52987Y-78097D01*
X52936Y-78092D01*
X52821Y-78074D01*
X52691Y-78046D01*
X52557Y-78004D01*
X52418Y-77954D01*
X52414D01*
X52400Y-77944D01*
X52382Y-77935D01*
X52354Y-77921D01*
X52321Y-77907D01*
X52280Y-77884D01*
X52234Y-77861D01*
X52183Y-77829D01*
X52127Y-77796D01*
X52067Y-77759D01*
X51933Y-77667D01*
X51864Y-77616D01*
X51790Y-77561D01*
X51716Y-77496D01*
X51637Y-77431D01*
X51633Y-77427D01*
X51619Y-77413D01*
X51596Y-77394D01*
X51563Y-77362D01*
X51522Y-77320D01*
X51471Y-77269D01*
X51411Y-77214D01*
X51341Y-77144D01*
X51267Y-77066D01*
X51184Y-76974D01*
X51092Y-76876D01*
X50990Y-76765D01*
X50884Y-76645D01*
X50768Y-76516D01*
X50643Y-76372D01*
X50514Y-76220D01*
X50509Y-76211D01*
X50486Y-76188D01*
X50458Y-76155D01*
X50417Y-76109D01*
X50370Y-76049D01*
X50315Y-75989D01*
X50255Y-75919D01*
X50190Y-75845D01*
X50056Y-75688D01*
X49987Y-75614D01*
X49922Y-75540D01*
X49857Y-75471D01*
X49802Y-75411D01*
X49751Y-75356D01*
X49705Y-75314D01*
X49696Y-75305D01*
X49668Y-75282D01*
X49626Y-75244D01*
X49575Y-75198D01*
X49511Y-75147D01*
X49441Y-75092D01*
X49363Y-75037D01*
X49284Y-74986D01*
Y-78120D01*
X48531D01*
Y-73895D01*
X48535D01*
X48545D01*
X48558D01*
X48577D01*
X48605D01*
X48632Y-73899D01*
D02*
G37*
%LPC*%
G36*
X-23070Y47211D02*
X-24984D01*
X-25030Y47207D01*
X-25090D01*
X-25150Y47202D01*
X-25219Y47197D01*
X-25363Y47183D01*
X-25515Y47160D01*
X-25663Y47133D01*
X-25728Y47114D01*
X-25793Y47096D01*
X-25797D01*
X-25807Y47091D01*
X-25825Y47082D01*
X-25848Y47073D01*
X-25876Y47059D01*
X-25903Y47045D01*
X-25977Y47003D01*
X-26061Y46948D01*
X-26144Y46883D01*
X-26223Y46804D01*
X-26292Y46712D01*
Y46707D01*
X-26301Y46698D01*
X-26306Y46684D01*
X-26320Y46666D01*
X-26333Y46643D01*
X-26347Y46610D01*
X-26380Y46541D01*
X-26407Y46458D01*
X-26435Y46361D01*
X-26454Y46254D01*
X-26463Y46139D01*
Y46134D01*
Y46120D01*
Y46097D01*
X-26458Y46065D01*
X-26454Y46023D01*
X-26444Y45982D01*
X-26435Y45931D01*
X-26421Y45875D01*
X-26403Y45820D01*
X-26380Y45760D01*
X-26357Y45695D01*
X-26324Y45635D01*
X-26283Y45570D01*
X-26241Y45510D01*
X-26190Y45450D01*
X-26130Y45395D01*
X-26125Y45390D01*
X-26116Y45381D01*
X-26093Y45367D01*
X-26070Y45348D01*
X-26033Y45325D01*
X-25987Y45302D01*
X-25936Y45274D01*
X-25876Y45247D01*
X-25811Y45219D01*
X-25733Y45191D01*
X-25645Y45168D01*
X-25552Y45145D01*
X-25450Y45126D01*
X-25340Y45113D01*
X-25219Y45103D01*
X-25090Y45099D01*
X-23070D01*
Y47211D01*
D02*
G37*
G36*
X-35399Y50248D02*
X-35422D01*
X-35450Y50244D01*
X-35487Y50239D01*
X-35533Y50235D01*
X-35588Y50221D01*
X-35648Y50207D01*
X-35713Y50184D01*
X-35782Y50156D01*
X-35856Y50124D01*
X-35930Y50082D01*
X-36009Y50031D01*
X-36083Y49971D01*
X-36161Y49902D01*
X-36235Y49823D01*
X-36305Y49731D01*
X-36309Y49726D01*
X-36319Y49703D01*
X-36337Y49671D01*
X-36365Y49624D01*
X-36393Y49560D01*
X-36420Y49481D01*
X-36457Y49389D01*
X-36490Y49273D01*
X-36508Y49208D01*
X-36522Y49139D01*
X-36541Y49070D01*
X-36559Y48991D01*
X-36573Y48908D01*
X-36587Y48820D01*
X-36605Y48727D01*
X-36619Y48626D01*
X-36628Y48524D01*
X-36642Y48413D01*
X-36651Y48298D01*
X-36661Y48177D01*
X-36665Y48053D01*
X-36670Y47919D01*
X-36675Y47780D01*
Y47637D01*
Y47632D01*
Y47618D01*
Y47595D01*
Y47567D01*
Y47530D01*
Y47489D01*
X-36670Y47438D01*
Y47382D01*
X-36665Y47322D01*
Y47253D01*
X-36656Y47110D01*
X-36642Y46952D01*
X-36628Y46781D01*
X-36610Y46610D01*
X-36587Y46435D01*
X-36555Y46259D01*
X-36518Y46088D01*
X-36476Y45926D01*
X-36425Y45783D01*
X-36397Y45714D01*
X-36370Y45653D01*
X-36337Y45593D01*
X-36305Y45542D01*
X-36300Y45538D01*
X-36286Y45519D01*
X-36268Y45496D01*
X-36240Y45459D01*
X-36203Y45422D01*
X-36161Y45376D01*
X-36111Y45330D01*
X-36055Y45279D01*
X-35991Y45233D01*
X-35921Y45187D01*
X-35847Y45140D01*
X-35764Y45103D01*
X-35676Y45066D01*
X-35588Y45043D01*
X-35491Y45025D01*
X-35389Y45020D01*
X-35366D01*
X-35339Y45025D01*
X-35302Y45029D01*
X-35255Y45034D01*
X-35200Y45043D01*
X-35145Y45057D01*
X-35080Y45075D01*
X-35010Y45103D01*
X-34941Y45131D01*
X-34867Y45168D01*
X-34798Y45214D01*
X-34724Y45265D01*
X-34655Y45325D01*
X-34590Y45399D01*
X-34525Y45478D01*
X-34520Y45482D01*
X-34507Y45505D01*
X-34488Y45542D01*
X-34460Y45593D01*
X-34433Y45663D01*
X-34400Y45746D01*
X-34363Y45848D01*
X-34326Y45968D01*
X-34303Y46032D01*
X-34285Y46106D01*
X-34266Y46180D01*
X-34252Y46264D01*
X-34234Y46347D01*
X-34215Y46439D01*
X-34202Y46536D01*
X-34188Y46638D01*
X-34174Y46744D01*
X-34160Y46855D01*
X-34151Y46971D01*
X-34141Y47091D01*
X-34132Y47221D01*
X-34128Y47355D01*
X-34123Y47493D01*
Y47637D01*
Y47641D01*
Y47655D01*
Y47674D01*
Y47706D01*
Y47743D01*
X-34128Y47785D01*
Y47835D01*
Y47891D01*
X-34132Y47951D01*
Y48016D01*
X-34141Y48164D01*
X-34155Y48321D01*
X-34169Y48487D01*
X-34188Y48663D01*
X-34211Y48839D01*
X-34243Y49014D01*
X-34275Y49185D01*
X-34317Y49347D01*
X-34368Y49490D01*
X-34396Y49560D01*
X-34423Y49620D01*
X-34456Y49680D01*
X-34488Y49731D01*
X-34493Y49735D01*
X-34507Y49754D01*
X-34525Y49777D01*
X-34553Y49809D01*
X-34590Y49851D01*
X-34636Y49893D01*
X-34682Y49943D01*
X-34742Y49990D01*
X-34802Y50036D01*
X-34872Y50087D01*
X-34946Y50128D01*
X-35029Y50165D01*
X-35112Y50202D01*
X-35205Y50225D01*
X-35302Y50244D01*
X-35399Y50248D01*
D02*
G37*
G36*
X122915Y-59592D02*
X120803D01*
Y-61506D01*
X120807Y-61552D01*
Y-61612D01*
X120812Y-61672D01*
X120816Y-61741D01*
X120830Y-61885D01*
X120854Y-62037D01*
X120881Y-62185D01*
X120900Y-62250D01*
X120918Y-62315D01*
Y-62319D01*
X120923Y-62328D01*
X120932Y-62347D01*
X120941Y-62370D01*
X120955Y-62398D01*
X120969Y-62425D01*
X121011Y-62499D01*
X121066Y-62583D01*
X121131Y-62666D01*
X121209Y-62744D01*
X121302Y-62814D01*
X121307D01*
X121316Y-62823D01*
X121330Y-62828D01*
X121348Y-62842D01*
X121371Y-62855D01*
X121404Y-62869D01*
X121473Y-62902D01*
X121556Y-62929D01*
X121653Y-62957D01*
X121760Y-62976D01*
X121875Y-62985D01*
X121880D01*
X121894D01*
X121917D01*
X121949Y-62980D01*
X121991Y-62976D01*
X122032Y-62966D01*
X122083Y-62957D01*
X122139Y-62943D01*
X122194Y-62925D01*
X122254Y-62902D01*
X122319Y-62878D01*
X122379Y-62846D01*
X122444Y-62805D01*
X122504Y-62763D01*
X122564Y-62712D01*
X122619Y-62652D01*
X122624Y-62647D01*
X122633Y-62638D01*
X122647Y-62615D01*
X122666Y-62592D01*
X122689Y-62555D01*
X122712Y-62509D01*
X122740Y-62458D01*
X122767Y-62398D01*
X122795Y-62333D01*
X122823Y-62255D01*
X122846Y-62167D01*
X122869Y-62074D01*
X122888Y-61972D01*
X122901Y-61862D01*
X122911Y-61741D01*
X122915Y-61612D01*
Y-59592D01*
D02*
G37*
G36*
X54221Y-63748D02*
X52109D01*
Y-65662D01*
X52113Y-65708D01*
Y-65768D01*
X52118Y-65828D01*
X52123Y-65897D01*
X52136Y-66041D01*
X52160Y-66193D01*
X52187Y-66341D01*
X52206Y-66406D01*
X52224Y-66470D01*
Y-66475D01*
X52229Y-66484D01*
X52238Y-66503D01*
X52247Y-66526D01*
X52261Y-66554D01*
X52275Y-66581D01*
X52317Y-66655D01*
X52372Y-66739D01*
X52437Y-66822D01*
X52516Y-66900D01*
X52608Y-66970D01*
X52613D01*
X52622Y-66979D01*
X52636Y-66984D01*
X52654Y-66997D01*
X52677Y-67011D01*
X52710Y-67025D01*
X52779Y-67057D01*
X52862Y-67085D01*
X52959Y-67113D01*
X53066Y-67132D01*
X53181Y-67141D01*
X53186D01*
X53200D01*
X53223D01*
X53255Y-67136D01*
X53297Y-67132D01*
X53338Y-67122D01*
X53389Y-67113D01*
X53445Y-67099D01*
X53500Y-67081D01*
X53560Y-67057D01*
X53625Y-67034D01*
X53685Y-67002D01*
X53750Y-66961D01*
X53810Y-66919D01*
X53870Y-66868D01*
X53925Y-66808D01*
X53930Y-66803D01*
X53939Y-66794D01*
X53953Y-66771D01*
X53972Y-66748D01*
X53995Y-66711D01*
X54018Y-66665D01*
X54046Y-66614D01*
X54073Y-66554D01*
X54101Y-66489D01*
X54129Y-66410D01*
X54152Y-66322D01*
X54175Y-66230D01*
X54194Y-66128D01*
X54208Y-66017D01*
X54217Y-65897D01*
X54221Y-65768D01*
Y-63748D01*
D02*
G37*
%LPD*%
D12*
X-195578Y-78653D02*
X-113578D01*
Y-107353D02*
Y-78653D01*
X-195578Y-107353D02*
X-113578D01*
X-195578D02*
Y-78653D01*
X-8742Y-5862D02*
X3258D01*
Y19138D01*
X-8742D02*
X3258D01*
X-8742Y-5862D02*
Y19138D01*
X-11163Y45396D02*
Y56396D01*
X-33284D02*
X-11163D01*
X-33284Y45396D02*
Y56396D01*
Y45396D02*
X-11163D01*
X111359Y-47246D02*
X122859D01*
X111359Y-70246D02*
Y-47246D01*
Y-70246D02*
X122859D01*
Y-47246D01*
X31582Y-47025D02*
Y64975D01*
Y-47025D02*
X134613D01*
Y64975D01*
X31582D02*
X134613D01*
X54281Y-74402D02*
Y-51402D01*
X42781Y-74402D02*
X54281D01*
X42781D02*
Y-51402D01*
X54281D01*
M02*
