G04*
G04 #@! TF.GenerationSoftware,Altium Limited,Altium Designer,25.8.1 (18)*
G04*
G04 Layer_Color=128*
%FSLAX44Y44*%
%MOMM*%
G71*
G04*
G04 #@! TF.SameCoordinates,DC2A109C-38F9-4662-A5C9-921089D2BF11*
G04*
G04*
G04 #@! TF.FilePolarity,Positive*
G04*
G01*
G75*
%ADD17C,0.1270*%
D17*
X-185078Y-93003D02*
X-174878D01*
X-179978Y-98103D02*
Y-87903D01*
X-159678Y-93003D02*
X-149478D01*
X-154578Y-98103D02*
Y-87903D01*
X-134278Y-93003D02*
X-124078D01*
X-129178Y-98103D02*
Y-87903D01*
X-130596Y49376D02*
X-126786D01*
X-128691Y47471D02*
Y51281D01*
X-158660Y44010D02*
X-153580D01*
X-156120Y41470D02*
Y46550D01*
X140867Y-40462D02*
X147979D01*
X144423Y-44018D02*
Y-36906D01*
X135254Y-1824D02*
X142366D01*
X138810Y-5380D02*
Y1732D01*
X30250Y-58709D02*
X35330D01*
X32790Y-61249D02*
Y-56169D01*
X-150667Y105032D02*
X-145588D01*
X-148127Y102492D02*
Y107572D01*
X-140562Y65775D02*
X-135482D01*
X-138022Y63235D02*
Y68315D01*
X14776Y33010D02*
X19856D01*
X17316Y30470D02*
Y35550D01*
X-41422Y67276D02*
X-36342D01*
X-38882Y64736D02*
Y69816D01*
X-143617Y-131197D02*
X-138537D01*
X-141077Y-133737D02*
Y-128657D01*
X-156406Y116615D02*
X-149294D01*
X-152850Y113059D02*
Y120171D01*
X-181739Y145002D02*
X-174627D01*
X-178183Y141447D02*
Y148559D01*
X-153445Y72D02*
X-148365D01*
X-150905Y-2468D02*
Y2612D01*
X-24256Y33524D02*
X-19176D01*
X-21716Y30984D02*
Y36064D01*
X88048Y-52371D02*
X93128D01*
X90588Y-54911D02*
Y-49831D01*
X-235526Y-97764D02*
X-230446D01*
X-232986Y-100304D02*
Y-95224D01*
X-213427Y-15575D02*
X-208347D01*
X-210887Y-18115D02*
Y-13035D01*
X-110466Y-45348D02*
X-105386D01*
X-107926Y-47888D02*
Y-42808D01*
X-272962Y6127D02*
X-267882D01*
X-270422Y3587D02*
Y8667D01*
X-4074Y-35255D02*
X1006D01*
X-1534Y-37795D02*
Y-32715D01*
X-211519Y-3624D02*
X-206439D01*
X-208979Y-6164D02*
Y-1084D01*
X-12486Y-13682D02*
X-7406D01*
X-9946Y-16222D02*
Y-11142D01*
X-15150Y20239D02*
X-11340D01*
X-13245Y18334D02*
Y22144D01*
X-62075Y92355D02*
X-58265D01*
X-60170Y90450D02*
Y94261D01*
X-283156Y67634D02*
X-276044D01*
X-279600Y64078D02*
Y71190D01*
X-216932Y-91653D02*
X-209820D01*
X-213376Y-95209D02*
Y-88097D01*
X-262549Y-83112D02*
X-255436D01*
X-258993Y-86668D02*
Y-79556D01*
X180914Y-20681D02*
X184724D01*
X182819Y-22586D02*
Y-18776D01*
M02*
