G04*
G04 #@! TF.GenerationSoftware,Altium Limited,Altium Designer,25.8.1 (18)*
G04*
G04 Layer_Physical_Order=2*
G04 Layer_Color=16711680*
%FSLAX44Y44*%
%MOMM*%
G71*
G04*
G04 #@! TF.SameCoordinates,DC2A109C-38F9-4662-A5C9-921089D2BF11*
G04*
G04*
G04 #@! TF.FilePolarity,Positive*
G04*
G01*
G75*
%ADD15C,0.2540*%
G04:AMPARAMS|DCode=18|XSize=1mm|YSize=1mm|CornerRadius=0.5mm|HoleSize=0mm|Usage=FLASHONLY|Rotation=90.000|XOffset=0mm|YOffset=0mm|HoleType=Round|Shape=RoundedRectangle|*
%AMROUNDEDRECTD18*
21,1,1.0000,0.0000,0,0,90.0*
21,1,0.0000,1.0000,0,0,90.0*
1,1,1.0000,0.0000,0.0000*
1,1,1.0000,0.0000,0.0000*
1,1,1.0000,0.0000,0.0000*
1,1,1.0000,0.0000,0.0000*
%
%ADD18ROUNDEDRECTD18*%
G04:AMPARAMS|DCode=20|XSize=1mm|YSize=1mm|CornerRadius=0.5mm|HoleSize=0mm|Usage=FLASHONLY|Rotation=210.000|XOffset=0mm|YOffset=0mm|HoleType=Round|Shape=RoundedRectangle|*
%AMROUNDEDRECTD20*
21,1,1.0000,0.0000,0,0,210.0*
21,1,0.0000,1.0000,0,0,210.0*
1,1,1.0000,0.0000,0.0000*
1,1,1.0000,0.0000,0.0000*
1,1,1.0000,0.0000,0.0000*
1,1,1.0000,0.0000,0.0000*
%
%ADD20ROUNDEDRECTD20*%
G04:AMPARAMS|DCode=21|XSize=1mm|YSize=1mm|CornerRadius=0.5mm|HoleSize=0mm|Usage=FLASHONLY|Rotation=150.000|XOffset=0mm|YOffset=0mm|HoleType=Round|Shape=RoundedRectangle|*
%AMROUNDEDRECTD21*
21,1,1.0000,0.0000,0,0,150.0*
21,1,0.0000,1.0000,0,0,150.0*
1,1,1.0000,0.0000,0.0000*
1,1,1.0000,0.0000,0.0000*
1,1,1.0000,0.0000,0.0000*
1,1,1.0000,0.0000,0.0000*
%
%ADD21ROUNDEDRECTD21*%
%ADD27R,0.8900X0.6400*%
%ADD36R,1.5700X1.5700*%
%ADD37C,1.5700*%
%ADD38C,0.5080*%
%ADD39C,0.3810*%
%ADD40C,0.6350*%
%ADD41C,0.5080*%
%ADD42C,1.2700*%
%ADD43C,0.7620*%
%ADD44C,0.3810*%
%ADD45C,9.9060*%
%ADD46R,1.3970X1.0922*%
%ADD47R,0.5000X0.9000*%
%ADD48R,0.6000X0.8000*%
%ADD49R,0.8000X0.9500*%
%ADD50R,0.3000X0.8500*%
%ADD51R,0.8500X0.3000*%
%ADD52R,5.7000X5.7000*%
%ADD53R,0.4001X1.9000*%
G36*
X164770Y163820D02*
X163932Y162284D01*
X161738Y159559D01*
X159094Y157268D01*
X156085Y155483D01*
X152806Y154263D01*
X149363Y153644D01*
X145864Y153648D01*
X142422Y154275D01*
X139146Y155503D01*
X136141Y157294D01*
X133503Y159592D01*
X131315Y162322D01*
X130481Y163860D01*
X130481Y163860D01*
X147613Y173750D01*
X164770Y163820D01*
D02*
G37*
G36*
X-135230D02*
X-136067Y162284D01*
X-138261Y159559D01*
X-140905Y157268D01*
X-143914Y155483D01*
X-147193Y154263D01*
X-150637Y153644D01*
X-154135Y153648D01*
X-157577Y154275D01*
X-160853Y155503D01*
X-163858Y157294D01*
X-166497Y159592D01*
X-168685Y162322D01*
X-169518Y163860D01*
X-169518Y163860D01*
X-152387Y173750D01*
X-135230Y163820D01*
D02*
G37*
G36*
X225418Y113554D02*
X224821Y111085D01*
X221927Y110943D01*
X212146Y109492D01*
X202554Y107089D01*
X193244Y103758D01*
X184305Y99530D01*
X175824Y94447D01*
X167881Y88557D01*
X160555Y81916D01*
X153914Y74590D01*
X148024Y66647D01*
X142940Y58166D01*
X138713Y49227D01*
X135381Y39917D01*
X132979Y30325D01*
X131528Y20544D01*
X131043Y10668D01*
X131412Y3144D01*
X130526Y1608D01*
X129920Y-653D01*
Y-2994D01*
X130526Y-5255D01*
X131696Y-7282D01*
X132905Y-8491D01*
X132979Y-8989D01*
X135381Y-18581D01*
X138713Y-27891D01*
X140794Y-32292D01*
X138964Y-33348D01*
X137309Y-35004D01*
X136139Y-37031D01*
X135533Y-39292D01*
Y-41632D01*
X136139Y-43894D01*
X137309Y-45921D01*
X138964Y-47576D01*
X140991Y-48746D01*
X143252Y-49352D01*
X145593D01*
X147854Y-48746D01*
X149757Y-47648D01*
X153914Y-53254D01*
X160555Y-60580D01*
X167881Y-67221D01*
X175824Y-73111D01*
X184305Y-78195D01*
X193244Y-82422D01*
X202554Y-85754D01*
X212146Y-88156D01*
X221927Y-89607D01*
X231803Y-90092D01*
X241679Y-89607D01*
X251460Y-88156D01*
X261052Y-85754D01*
X270362Y-82422D01*
X273423Y-80975D01*
X275361Y-82408D01*
X275096Y-84880D01*
X156950Y-153074D01*
X153686Y-151850D01*
X153456Y-151812D01*
X153240Y-151727D01*
X149798Y-151100D01*
X149565Y-151104D01*
X149338Y-151059D01*
X145839Y-151054D01*
X145611Y-151100D01*
X145378Y-151095D01*
X141935Y-151713D01*
X141718Y-151798D01*
X141489Y-151835D01*
X138345Y-153006D01*
X19459Y-83178D01*
X19127Y-81211D01*
X19044Y-80994D01*
X19009Y-80764D01*
X17823Y-77473D01*
X17703Y-77273D01*
X17628Y-77053D01*
X15875Y-74025D01*
X15722Y-73851D01*
X15609Y-73647D01*
X13346Y-70980D01*
X13163Y-70835D01*
X13016Y-70655D01*
X10314Y-68432D01*
X10109Y-68322D01*
X9932Y-68172D01*
X6878Y-66465D01*
X6657Y-66393D01*
X6456Y-66276D01*
X3147Y-65140D01*
X3365Y-62606D01*
X29502D01*
X29912Y-63016D01*
X31779Y-63789D01*
X33800D01*
X35668Y-63016D01*
X37097Y-61587D01*
X37870Y-59720D01*
Y-57699D01*
X38834Y-56256D01*
X87288D01*
X87710Y-56678D01*
X89577Y-57451D01*
X91598D01*
X93465Y-56678D01*
X94894Y-55249D01*
X95668Y-53382D01*
Y-51361D01*
X94894Y-49494D01*
X93465Y-48065D01*
X91598Y-47291D01*
X89577D01*
X87710Y-48065D01*
X87288Y-48487D01*
X-100978D01*
X-102846Y-46358D01*
Y-44337D01*
X-103619Y-42470D01*
X-105048Y-41041D01*
X-106915Y-40268D01*
X-108936D01*
X-110803Y-41041D01*
X-111226Y-41463D01*
X-116927D01*
X-119365Y-41218D01*
Y-31468D01*
X-109615D01*
Y-21393D01*
X-48366D01*
X-31757Y-38002D01*
X-30497Y-38844D01*
X-29010Y-39139D01*
X-6630D01*
X-5131Y-40638D01*
X-2797Y-41605D01*
X-271D01*
X2063Y-40638D01*
X3849Y-38852D01*
X4816Y-36518D01*
Y-33992D01*
X3849Y-31658D01*
X2063Y-29872D01*
X-271Y-28905D01*
X-2797D01*
X-5131Y-29872D01*
X-6630Y-31370D01*
X-27401D01*
X-39830Y-18941D01*
X-38858Y-16594D01*
X-15612D01*
X-15329Y-17279D01*
X-13543Y-19065D01*
X-11209Y-20032D01*
X-8683D01*
X-6349Y-19065D01*
X-4562Y-17279D01*
X-3596Y-14945D01*
Y-12419D01*
X-4562Y-10085D01*
X-6349Y-8298D01*
X-8683Y-7332D01*
X-11209D01*
X-13543Y-8298D01*
X-14069Y-8825D01*
X-35232D01*
X-35482Y-6285D01*
X-34497Y-6089D01*
X-33237Y-5247D01*
X-12080Y15910D01*
X-10727Y16470D01*
X-9477Y17721D01*
X-8800Y19354D01*
Y21123D01*
X-9477Y22757D01*
X-10727Y24007D01*
X-12361Y24684D01*
X-14129D01*
X-15763Y24007D01*
X-17013Y22757D01*
X-17573Y21404D01*
X-37592Y1385D01*
X-109615D01*
Y8687D01*
X-42668D01*
X-41182Y8983D01*
X-39922Y9825D01*
X-22573Y27174D01*
X-20453D01*
X-18119Y28141D01*
X-16333Y29927D01*
X-15366Y32261D01*
Y34787D01*
X-16333Y37121D01*
X-18119Y38907D01*
X-20453Y39874D01*
X-22979D01*
X-25313Y38907D01*
X-27099Y37121D01*
X-28066Y34787D01*
Y32668D01*
X-44278Y16457D01*
X-100852D01*
X-102066Y18809D01*
X-102037Y18997D01*
X-100921Y19742D01*
X-47527Y73136D01*
X-46684Y74397D01*
X-46389Y75883D01*
Y93276D01*
X-46684Y94762D01*
X-47527Y96023D01*
X-56922Y105418D01*
X-56874Y107957D01*
X-55385Y109337D01*
X-55264Y109504D01*
X-55107Y109639D01*
X-53051Y112262D01*
X-22928Y94871D01*
X-23668Y92960D01*
X-23708Y92731D01*
X-23796Y92516D01*
X-24458Y89080D01*
X-24457Y88848D01*
X-24505Y88620D01*
X-24545Y85122D01*
X-26297Y83348D01*
X-28637D01*
X-30867Y82904D01*
X-32757Y81641D01*
X-43003Y71396D01*
X-44266Y69506D01*
X-44709Y67276D01*
X-44266Y65046D01*
X-43003Y63155D01*
X-41112Y61892D01*
X-38882Y61449D01*
X-36652Y61892D01*
X-34762Y63155D01*
X-26223Y71694D01*
X-18752D01*
X-18146Y70980D01*
X-17964Y70835D01*
X-17817Y70655D01*
X-15115Y68432D01*
X-14910Y68322D01*
X-14733Y68172D01*
X-11679Y66465D01*
X-11458Y66393D01*
X-11257Y66276D01*
X-7948Y65140D01*
X-7717Y65109D01*
X-7499Y65029D01*
X-4041Y64499D01*
X-3808Y64510D01*
X-3579Y64471D01*
X-2400Y64502D01*
X-1221Y64471D01*
X-992Y64510D01*
X-760Y64499D01*
X2698Y65029D01*
X2917Y65109D01*
X3147Y65140D01*
X4681Y65667D01*
X13432Y56916D01*
Y36309D01*
X13010Y35887D01*
X12344Y34280D01*
X22289D01*
X21623Y35887D01*
X21201Y36309D01*
Y58526D01*
X20905Y60012D01*
X20063Y61272D01*
X12990Y68345D01*
X13346Y70980D01*
X15609Y73647D01*
X15722Y73851D01*
X15875Y74025D01*
X17628Y77053D01*
X17703Y77273D01*
X17823Y77472D01*
X19009Y80764D01*
X19044Y80994D01*
X19127Y81211D01*
X19459Y83178D01*
X138378Y153025D01*
X141513Y151850D01*
X141742Y151812D01*
X141959Y151727D01*
X145401Y151100D01*
X145633Y151104D01*
X145861Y151059D01*
X149360Y151054D01*
X149588Y151100D01*
X149820Y151095D01*
X153264Y151713D01*
X153480Y151798D01*
X153710Y151835D01*
X156984Y153055D01*
X225418Y113554D01*
D02*
G37*
G36*
X-104955Y142228D02*
X-106193Y139155D01*
X-106232Y138952D01*
X-106316Y138763D01*
X-107291Y134491D01*
X-107297Y134284D01*
X-107350Y134085D01*
X-107636Y129713D01*
X-107610Y129507D01*
X-107631Y129302D01*
X-107222Y124939D01*
X-107163Y124741D01*
X-107151Y124534D01*
X-106057Y120292D01*
X-105967Y120105D01*
X-105923Y119903D01*
X-105166Y118167D01*
X-107302Y116711D01*
X-122286Y131696D01*
X-123547Y132538D01*
X-125033Y132833D01*
X-197422D01*
X-197500Y134036D01*
X-197553Y134235D01*
X-197559Y134442D01*
X-198531Y138715D01*
X-198615Y138904D01*
X-198654Y139107D01*
X-199897Y142198D01*
X-189097Y148434D01*
X-186916Y146760D01*
X-187046Y146272D01*
X-168672D01*
X-161827Y153118D01*
X-161762Y153078D01*
X-158486Y151850D01*
X-158257Y151812D01*
X-158041Y151727D01*
X-154599Y151100D01*
X-154366Y151104D01*
X-154138Y151059D01*
X-150640Y151054D01*
X-150411Y151100D01*
X-150179Y151095D01*
X-146735Y151713D01*
X-146519Y151798D01*
X-146289Y151835D01*
X-143011Y153056D01*
X-142813Y153178D01*
X-142593Y153256D01*
X-139584Y155040D01*
X-139411Y155196D01*
X-139209Y155311D01*
X-136565Y157602D01*
X-136423Y157786D01*
X-136244Y157935D01*
X-134948Y159545D01*
X-104955Y142228D01*
D02*
G37*
G36*
X-102375Y100797D02*
Y95863D01*
X-104915Y94811D01*
X-117883Y107779D01*
X-119143Y108621D01*
X-120630Y108917D01*
X-143207D01*
X-145223Y111109D01*
X-145208Y112071D01*
X-144566Y113184D01*
X-143987Y115345D01*
X-162361D01*
X-166776Y110930D01*
X-200786D01*
X-202181Y113458D01*
X-200884Y115478D01*
X-200808Y115670D01*
X-200690Y115840D01*
X-198936Y119855D01*
X-198892Y120057D01*
X-198802Y120244D01*
X-197705Y124486D01*
X-197693Y124692D01*
X-197634Y124890D01*
X-197618Y125064D01*
X-160566D01*
X-159514Y122524D01*
X-159964Y122074D01*
X-161134Y120047D01*
X-161713Y117885D01*
X-143987D01*
X-144566Y120047D01*
X-145736Y122074D01*
X-146187Y122524D01*
X-145134Y125064D01*
X-126642D01*
X-102375Y100797D01*
D02*
G37*
G36*
X-53382Y116601D02*
X-54443Y114685D01*
X-57145Y111236D01*
X-60359Y108258D01*
X-64004Y105827D01*
X-67987Y104003D01*
X-72209Y102831D01*
X-76563Y102343D01*
X-80940Y102550D01*
X-85228Y103447D01*
X-89321Y105010D01*
X-93115Y107202D01*
X-96514Y109967D01*
X-99432Y113234D01*
X-101798Y116923D01*
X-103549Y120939D01*
X-104643Y125181D01*
X-105052Y129543D01*
X-104766Y133915D01*
X-103791Y138187D01*
X-102153Y142250D01*
X-101023Y144127D01*
X-101023D01*
X-53382Y116601D01*
D02*
G37*
G36*
X-202692Y142205D02*
X-201056Y138140D01*
X-200084Y133868D01*
X-199801Y129496D01*
X-200212Y125134D01*
X-201309Y120892D01*
X-203063Y116877D01*
X-205431Y113190D01*
X-208351Y109925D01*
X-211752Y107162D01*
X-215547Y104973D01*
X-219641Y103411D01*
X-223930Y102517D01*
X-228307Y102313D01*
X-232660Y102804D01*
X-236882Y103978D01*
X-240864Y105805D01*
X-244507Y108239D01*
X-247719Y111219D01*
X-250419Y114669D01*
X-251479Y116586D01*
X-251479Y116586D01*
X-203821Y144082D01*
X-202692Y142205D01*
D02*
G37*
G36*
X-2400Y87176D02*
X14278Y96781D01*
X15189Y95288D01*
X16452Y92025D01*
X17114Y88590D01*
X17155Y85092D01*
X16573Y81642D01*
X15387Y78351D01*
X13634Y75323D01*
X11371Y72655D01*
X8669Y70432D01*
X5615Y68726D01*
X2306Y67589D01*
X-1152Y67059D01*
X-2400Y67093D01*
X-3649Y67059D01*
X-7107Y67589D01*
X-10416Y68726D01*
X-13470Y70432D01*
X-16171Y72655D01*
X-18435Y75323D01*
X-20187Y78351D01*
X-21374Y81642D01*
X-21956Y85092D01*
X-21915Y88590D01*
X-21253Y92025D01*
X-19990Y95288D01*
X-19079Y96781D01*
Y96781D01*
X-2400Y87176D01*
D02*
G37*
G36*
X-284777Y95288D02*
X-283514Y92025D01*
X-282852Y88590D01*
X-282811Y85092D01*
X-283393Y81642D01*
X-284580Y78351D01*
X-286332Y75323D01*
X-288596Y72655D01*
X-291297Y70432D01*
X-294351Y68726D01*
X-297660Y67589D01*
X-301118Y67059D01*
X-302867Y67106D01*
X-302867Y67106D01*
Y86888D01*
X-285688Y96781D01*
X-284777Y95288D01*
D02*
G37*
G36*
X298113Y86865D02*
X298091Y67041D01*
X296342Y66999D01*
X292885Y67536D01*
X289579Y68680D01*
X286529Y70394D01*
X283833Y72623D01*
X281575Y75296D01*
X279830Y78328D01*
X278651Y81622D01*
X278077Y85073D01*
X278126Y88571D01*
X278796Y92005D01*
X280066Y95265D01*
X280981Y96756D01*
X280981D01*
X298113Y86865D01*
D02*
G37*
G36*
X-110349Y89258D02*
Y66681D01*
X-118898Y58131D01*
X-119740Y56871D01*
X-120036Y55385D01*
Y53928D01*
X-121657Y52307D01*
X-124384Y52253D01*
X-125813Y53682D01*
X-126079Y55019D01*
X-125442Y56278D01*
X-124665Y57442D01*
X-124369Y58929D01*
Y64453D01*
X-123870D01*
Y88533D01*
X-132950D01*
Y73825D01*
X-134329Y72626D01*
X-135491Y72385D01*
X-135869Y72802D01*
Y75223D01*
X-140409D01*
Y77763D01*
X-135869D01*
Y88533D01*
X-138677D01*
X-147556Y97412D01*
X-147365Y98517D01*
X-146684Y100132D01*
X-145250Y100726D01*
X-144828Y101148D01*
X-122239D01*
X-110349Y89258D01*
D02*
G37*
G36*
X-260658Y64913D02*
X-256888D01*
Y67421D01*
X-253836D01*
Y63830D01*
X-248566D01*
Y71120D01*
X-246026D01*
Y63830D01*
X-228256D01*
X-227711Y62230D01*
X-208661D01*
Y65699D01*
X-206121D01*
Y62230D01*
X-195766D01*
X-197124Y59690D01*
X-206121D01*
Y56869D01*
X-208661D01*
Y59690D01*
X-227711D01*
Y59690D01*
X-228506Y58610D01*
X-239586D01*
Y45530D01*
X-228506D01*
X-227711Y43688D01*
X-208661D01*
Y46509D01*
X-206121D01*
Y43688D01*
X-187071D01*
Y44316D01*
X-167937D01*
Y41362D01*
X-182445D01*
Y31612D01*
X-186124D01*
X-186901Y31767D01*
X-267619D01*
X-269106Y31471D01*
X-270366Y30629D01*
X-280441Y20554D01*
X-282909Y22978D01*
X-283082Y23092D01*
X-283224Y23242D01*
X-286796Y25780D01*
X-286985Y25865D01*
X-287149Y25991D01*
X-291077Y27931D01*
X-291277Y27985D01*
X-291459Y28084D01*
X-295645Y29378D01*
X-295851Y29399D01*
X-296046Y29468D01*
X-299300Y29930D01*
Y64718D01*
X-297268Y65029D01*
X-297049Y65109D01*
X-296819Y65140D01*
X-293510Y66276D01*
X-293309Y66393D01*
X-293088Y66465D01*
X-291030Y67615D01*
X-288703Y66560D01*
X-288428Y66227D01*
X-288426Y66225D01*
X-287885Y64203D01*
X-286714Y62175D01*
X-285059Y60520D01*
X-283032Y59350D01*
X-280771Y58744D01*
X-278430D01*
X-276615Y59230D01*
X-266968Y49584D01*
Y41913D01*
X-256888D01*
Y44421D01*
X-254057D01*
X-252322Y44766D01*
X-251179Y45530D01*
X-242506D01*
Y58610D01*
X-253586D01*
Y57263D01*
X-256046Y55599D01*
X-256889Y55993D01*
Y55993D01*
X-256889Y55993D01*
X-260559D01*
X-266939Y62373D01*
X-265887Y64913D01*
X-263198D01*
Y71953D01*
X-260658D01*
Y64913D01*
D02*
G37*
G36*
X-192195Y13532D02*
Y1456D01*
X-207096D01*
X-207685Y1339D01*
X-207968Y1456D01*
X-209989D01*
X-211856Y683D01*
X-213285Y-746D01*
X-214059Y-2613D01*
Y-4634D01*
X-213285Y-6501D01*
X-211856Y-7930D01*
X-211804Y-8171D01*
X-211872Y-9863D01*
X-212099Y-10579D01*
X-213765Y-11269D01*
X-215194Y-12698D01*
X-215967Y-14565D01*
Y-16586D01*
X-215194Y-18453D01*
X-213765Y-19882D01*
X-211898Y-20655D01*
X-209877D01*
X-208010Y-19882D01*
X-206581Y-18453D01*
X-205807Y-16586D01*
Y-15989D01*
X-201211Y-11393D01*
X-192195D01*
Y-21468D01*
Y-31468D01*
X-182445D01*
Y-41218D01*
X-183876Y-43166D01*
X-184220Y-43510D01*
X-196496D01*
Y-50800D01*
X-199036D01*
Y-43510D01*
X-204306D01*
Y-45723D01*
X-264417D01*
X-266647Y-46167D01*
X-268538Y-47430D01*
X-289570Y-68462D01*
X-289647Y-68398D01*
X-289851Y-68288D01*
X-290028Y-68137D01*
X-293078Y-66423D01*
X-293299Y-66350D01*
X-293500Y-66233D01*
X-296806Y-65089D01*
X-297036Y-65057D01*
X-297255Y-64977D01*
X-299300Y-64659D01*
Y-29990D01*
X-296064Y-29533D01*
X-295869Y-29464D01*
X-295663Y-29443D01*
X-291476Y-28151D01*
X-291294Y-28053D01*
X-291094Y-27999D01*
X-287165Y-26061D01*
X-287001Y-25935D01*
X-286812Y-25851D01*
X-283239Y-23315D01*
X-283097Y-23165D01*
X-282924Y-23052D01*
X-279796Y-19983D01*
X-279680Y-19812D01*
X-279527Y-19672D01*
X-276925Y-16147D01*
X-276837Y-15960D01*
X-276707Y-15798D01*
X-274696Y-11906D01*
X-274639Y-11707D01*
X-274537Y-11527D01*
X-273167Y-7366D01*
X-273141Y-7160D01*
X-273069Y-6966D01*
X-272375Y-2640D01*
X-272382Y-2433D01*
X-272342Y-2230D01*
X-272341Y440D01*
X-271432Y1047D01*
X-269411D01*
X-267544Y1821D01*
X-266115Y3250D01*
X-265342Y5117D01*
Y7138D01*
X-266058Y8868D01*
Y10868D01*
X-258239Y18687D01*
X-192195D01*
Y13532D01*
D02*
G37*
G36*
X-296410Y26904D02*
X-292224Y25609D01*
X-288296Y23669D01*
X-284724Y21131D01*
X-281599Y18060D01*
X-278999Y14534D01*
X-276990Y10640D01*
X-275622Y6478D01*
X-274930Y2152D01*
X-274932Y-2230D01*
X-275626Y-6556D01*
X-276997Y-10717D01*
X-279008Y-14609D01*
X-281610Y-18134D01*
X-284737Y-21203D01*
X-288311Y-23738D01*
X-292240Y-25676D01*
X-296427Y-26968D01*
X-300765Y-27581D01*
X-302955Y-27541D01*
Y-27541D01*
X-302938Y27480D01*
X-300748Y27520D01*
X-296410Y26904D01*
D02*
G37*
G36*
X2306Y-67589D02*
X5615Y-68726D01*
X8669Y-70432D01*
X11371Y-72655D01*
X13634Y-75323D01*
X15387Y-78351D01*
X16573Y-81642D01*
X17155Y-85092D01*
X17114Y-88590D01*
X16452Y-92025D01*
X15189Y-95288D01*
X14278Y-96781D01*
X-2400Y-87176D01*
X-19079Y-96781D01*
X-19990Y-95288D01*
X-21253Y-92025D01*
X-21915Y-88590D01*
X-21956Y-85092D01*
X-21374Y-81642D01*
X-20187Y-78351D01*
X-18435Y-75323D01*
X-16171Y-72655D01*
X-13470Y-70432D01*
X-10416Y-68726D01*
X-7107Y-67589D01*
X-3649Y-67059D01*
X-2400Y-67093D01*
X-1152Y-67059D01*
X2306Y-67589D01*
D02*
G37*
G36*
X-297653Y-67536D02*
X-294347Y-68680D01*
X-291297Y-70394D01*
X-288600Y-72623D01*
X-286343Y-75296D01*
X-284597Y-78328D01*
X-283419Y-81622D01*
X-282845Y-85073D01*
X-282893Y-88571D01*
X-283564Y-92005D01*
X-284834Y-95265D01*
X-285749Y-96756D01*
Y-96756D01*
X-302880Y-86865D01*
X-302859Y-67041D01*
X-301110Y-66999D01*
X-297653Y-67536D01*
D02*
G37*
G36*
X298099Y-67106D02*
X298099D01*
Y-86888D01*
X280921Y-96781D01*
X280009Y-95288D01*
X278747Y-92025D01*
X278084Y-88590D01*
X278044Y-85092D01*
X278626Y-81642D01*
X279812Y-78351D01*
X281565Y-75323D01*
X283828Y-72655D01*
X286530Y-70432D01*
X289584Y-68726D01*
X292893Y-67589D01*
X296351Y-67059D01*
X298099Y-67106D01*
D02*
G37*
G36*
X14278Y-96781D02*
X14278D01*
D01*
X14278D01*
D02*
G37*
G36*
X-72140Y-102804D02*
X-67918Y-103978D01*
X-63936Y-105805D01*
X-60293Y-108239D01*
X-57081Y-111219D01*
X-54381Y-114669D01*
X-53321Y-116586D01*
X-100979Y-144082D01*
X-102108Y-142205D01*
X-103744Y-138140D01*
X-104716Y-133868D01*
X-105000Y-129496D01*
X-104588Y-125134D01*
X-103491Y-120892D01*
X-101737Y-116877D01*
X-99369Y-113190D01*
X-96449Y-109925D01*
X-93048Y-107162D01*
X-89253Y-104973D01*
X-85159Y-103411D01*
X-80870Y-102517D01*
X-76493Y-102313D01*
X-72140Y-102804D01*
D02*
G37*
G36*
X-223860Y-102550D02*
X-219572Y-103447D01*
X-215479Y-105011D01*
X-211685Y-107202D01*
X-208286Y-109967D01*
X-205368Y-113234D01*
X-203002Y-116923D01*
X-201251Y-120939D01*
X-200157Y-125181D01*
X-199748Y-129543D01*
X-200034Y-133915D01*
X-201009Y-138187D01*
X-202647Y-142250D01*
X-203777Y-144127D01*
Y-144127D01*
X-251418Y-116601D01*
X-250357Y-114685D01*
X-247655Y-111236D01*
X-244441Y-108259D01*
X-240796Y-105827D01*
X-236813Y-104003D01*
X-232591Y-102831D01*
X-228237Y-102343D01*
X-223860Y-102550D01*
D02*
G37*
G36*
X149334Y-153648D02*
X152776Y-154275D01*
X156052Y-155503D01*
X159057Y-157294D01*
X161696Y-159592D01*
X163884Y-162322D01*
X164718Y-163860D01*
X164718D01*
X147586Y-173750D01*
X130429Y-163820D01*
X131266Y-162284D01*
X133461Y-159559D01*
X136105Y-157268D01*
X139114Y-155483D01*
X142392Y-154263D01*
X145836Y-153644D01*
X149334Y-153648D01*
D02*
G37*
G36*
X-150665D02*
X-147223Y-154275D01*
X-143947Y-155503D01*
X-140942Y-157294D01*
X-138303Y-159592D01*
X-136116Y-162322D01*
X-135282Y-163860D01*
X-135282D01*
X-152413Y-173750D01*
X-169570Y-163820D01*
X-168733Y-162284D01*
X-166539Y-159559D01*
X-163895Y-157268D01*
X-160886Y-155483D01*
X-157607Y-154263D01*
X-154164Y-153644D01*
X-150665Y-153648D01*
D02*
G37*
%LPC*%
G36*
X22289Y31740D02*
X18586D01*
Y28037D01*
X20194Y28703D01*
X21623Y30132D01*
X22289Y31740D01*
D02*
G37*
G36*
X16046D02*
X12344D01*
X13010Y30132D01*
X14439Y28703D01*
X16046Y28037D01*
Y31740D01*
D02*
G37*
G36*
X-169320Y143733D02*
X-176913D01*
Y136139D01*
X-174751Y136718D01*
X-172724Y137889D01*
X-171069Y139544D01*
X-169899Y141571D01*
X-169320Y143733D01*
D02*
G37*
G36*
X-179453D02*
X-187046D01*
X-186467Y141571D01*
X-185297Y139544D01*
X-183641Y137889D01*
X-181614Y136718D01*
X-179453Y136139D01*
Y143733D01*
D02*
G37*
%LPD*%
D15*
X-133296Y34572D02*
Y44771D01*
X-128691Y49376D01*
X-173282Y-74300D02*
Y-34428D01*
Y-74300D02*
X-154578Y-93003D01*
X-80899Y-123901D02*
Y-103768D01*
X-118807Y-65860D02*
X-80899Y-103768D01*
X-148036Y-65860D02*
X-118807D01*
X-158647Y-55249D02*
X-148036Y-65860D01*
X-158405Y-34428D02*
X-157793Y-35040D01*
X-158405Y-34428D02*
X-158405Y-34428D01*
X-158647Y-55249D02*
Y-34428D01*
X-166287Y50056D02*
X-163405Y47174D01*
X-196596Y51689D02*
X-194963Y50056D01*
X-234046Y52070D02*
X-233665Y51689D01*
X-154151Y34572D02*
X-153715Y34136D01*
X-158405Y34572D02*
X-154151D01*
X-163405D02*
X-158405D01*
X-152252Y62238D02*
Y76476D01*
Y62238D02*
X-143456Y53442D01*
Y34572D02*
Y53442D01*
X-143793Y-58721D02*
X32856D01*
X-153485Y-49029D02*
X-143793Y-58721D01*
X-153485Y-49029D02*
Y-34428D01*
X-106464Y65072D02*
Y90867D01*
X-120630Y105032D02*
X-106464Y90867D01*
X-116152Y55385D02*
X-106464Y65072D01*
X-116152Y52319D02*
Y55385D01*
X-125222Y43893D02*
X-124578D01*
X-116152Y52319D01*
X-128405Y40710D02*
X-125222Y43893D01*
X-128405Y34572D02*
Y40710D01*
X-148127Y105032D02*
X-120630D01*
X-138508Y66261D02*
Y67092D01*
X-140253Y68837D02*
X-138508Y67092D01*
Y66261D02*
X-138022Y65775D01*
X-140253Y68837D02*
Y76476D01*
X-141139Y77363D02*
X-140253Y76476D01*
X17316Y33010D02*
Y58526D01*
X-1679Y77521D02*
X17316Y58526D01*
X-141139Y77363D02*
Y85502D01*
X-160741Y105103D02*
X-141139Y85502D01*
X-165722Y105103D02*
X-164362D01*
X-261928Y71953D02*
Y73953D01*
X-248129Y71953D02*
X-247296Y71120D01*
X-263158Y75183D02*
X-261928Y73953D01*
X-198516Y-51550D02*
X-197766Y-50800D01*
X-152400Y-165199D02*
Y-163180D01*
X-295501Y0D02*
X-267619Y27882D01*
X-186901D01*
X-42668Y12572D02*
X-21716Y33524D01*
X-116405Y12572D02*
X-42668D01*
X-141628Y-52371D02*
X90588D01*
X-148405Y-45594D02*
X-141628Y-52371D01*
X-148405Y-45594D02*
Y-34428D01*
X-223901Y-123901D02*
Y-113996D01*
X-232986Y-104911D02*
Y-97764D01*
Y-104911D02*
X-223901Y-113996D01*
X-202820Y-7508D02*
X-185405D01*
X-210887Y-15575D02*
X-202820Y-7508D01*
X-143405Y-40588D02*
Y-34428D01*
X-138646Y-45348D02*
X-107926D01*
X-143405Y-40588D02*
X-138646Y-45348D01*
X-138376Y48806D02*
X-128254Y58929D01*
Y76476D01*
X-138376Y34500D02*
Y48806D01*
X-269943Y12477D02*
X-259848Y22572D01*
X-270422Y6127D02*
X-269943Y6606D01*
Y12477D01*
X-259848Y22572D02*
X-185405D01*
X-167537Y64056D02*
X-166287D01*
X-196596Y70231D02*
X-195072D01*
X-234796Y71120D02*
X-233907Y70231D01*
X-185266Y-87716D02*
X-179978Y-93003D01*
X-185266Y-87716D02*
Y-50800D01*
Y-50050D02*
X-178376Y-43160D01*
Y-34500D01*
X-116405Y-17508D02*
X-46757D01*
X-29010Y-35255D01*
X-1534D01*
X-110184Y22489D02*
X-103667D01*
X-50273Y75883D01*
Y93276D01*
X-80899Y123901D02*
X-50273Y93276D01*
X-116376Y22500D02*
X-110238D01*
X-208979Y-3624D02*
X-208291D01*
X-207096Y-2428D01*
X-185405D01*
X-10918Y-12710D02*
X-9946Y-13682D01*
X-116405Y-12428D02*
X-44653D01*
X-44371Y-12710D02*
X-10918D01*
X-44653Y-12428D02*
X-44371Y-12710D01*
X-35984Y-2500D02*
X-13245Y20239D01*
X-116376Y-2500D02*
X-35984D01*
X-116376Y36150D02*
X-60170Y92355D01*
X-116376Y27500D02*
Y36150D01*
X-119038Y41070D02*
X-118949D01*
X-98490Y61529D01*
X-123376Y34500D02*
Y36731D01*
X-119038Y41070D01*
X-218683Y128949D02*
X-125033D01*
X-98490Y102406D01*
X-223901Y123901D02*
X-223731D01*
X-218683Y128949D01*
X-98490Y61529D02*
Y102406D01*
X-248969Y51147D02*
X-248046Y52070D01*
X183162Y-20681D02*
X214511Y10668D01*
X231803D01*
X182819Y-20681D02*
X183162D01*
D18*
X-1679Y77521D02*
D03*
Y-77521D02*
D03*
X-80899Y-123901D02*
D03*
X290700Y-82601D02*
D03*
X-295468Y82601D02*
D03*
X-223901Y123901D02*
D03*
D20*
X147599Y165199D02*
D03*
Y-165199D02*
D03*
X-152400Y165199D02*
D03*
Y-165199D02*
D03*
X-223901Y-123901D02*
D03*
X-80899Y123901D02*
D03*
D21*
X-295501Y0D02*
D03*
X-295468Y-82601D02*
D03*
X290700Y82601D02*
D03*
D27*
X-180237Y64056D02*
D03*
Y50056D02*
D03*
X-167537D02*
D03*
Y64056D02*
D03*
D36*
X-179978Y-93003D02*
D03*
D37*
X-154578D02*
D03*
X-129178D02*
D03*
D38*
X-161505Y49396D02*
X-156120Y44010D01*
X-166877Y49396D02*
X-161505D01*
X146363Y-36460D02*
Y-9377D01*
X144423Y-40462D02*
Y-38400D01*
X138810Y-1824D02*
X146363Y-9377D01*
X144423Y-38400D02*
X146363Y-36460D01*
X-167537Y50056D02*
X-166877Y49396D01*
X-180237Y50056D02*
X-167537D01*
X-233665Y51689D02*
X-218186D01*
X-196596D01*
X-194963Y50056D02*
X-180237D01*
D39*
X-163405Y34572D02*
Y47174D01*
X-265158Y75183D02*
X-263158D01*
X-261928Y71953D02*
X-248129D01*
X-272576Y82601D02*
X-265158Y75183D01*
X-148536Y34572D02*
Y46305D01*
X-166287Y64056D02*
X-148536Y46305D01*
X-180237Y64056D02*
X-167537D01*
X-188897D02*
X-180237D01*
X-195072Y70231D02*
X-188897Y64056D01*
X-218186Y70231D02*
X-196596D01*
X-233907D02*
X-218186D01*
X-251863Y51147D02*
X-248969D01*
X-254057Y48953D02*
X-251863Y51147D01*
X-261928Y48953D02*
X-254057D01*
X-278609Y67634D02*
X-261928Y50953D01*
X-279600Y67634D02*
X-278609D01*
D40*
X-295468Y-82601D02*
X-264417Y-51550D01*
X147599Y165199D02*
X290700Y82601D01*
X-1679Y77521D02*
X147599Y165199D01*
X-28637Y77521D02*
X-1679D01*
X-38882Y67276D02*
X-28637Y77521D01*
X290700Y-82601D02*
Y82601D01*
X147599Y-165199D02*
X290700Y-82601D01*
X-1679Y-77521D02*
X147599Y-165199D01*
X-159989Y161642D02*
X-152400Y165199D01*
X-163667Y159518D02*
X-159989Y161642D01*
X-178183Y145002D02*
X-163667Y159518D01*
X-164362Y105103D02*
X-160741D01*
X-202152D02*
X-165722D01*
X-164362D02*
X-152850Y116615D01*
X-224654Y82601D02*
X-202152Y105103D01*
X-272576Y82601D02*
X-224654D01*
X-295468D02*
X-272576D01*
X-152400Y-142520D02*
X-141077Y-131197D01*
X-152400Y-152718D02*
Y-142520D01*
Y-163180D02*
Y-152718D01*
X-197766Y-107352D02*
X-152400Y-152718D01*
X-197766Y-107352D02*
Y-50800D01*
X-264417Y-51550D02*
X-198516D01*
X-221917Y-83112D02*
X-213376Y-91653D01*
X-258993Y-83112D02*
X-221917D01*
D41*
X-128691Y49376D02*
D03*
X-156120Y44010D02*
D03*
X32790Y-58709D02*
D03*
X-148127Y105032D02*
D03*
X-138022Y65775D02*
D03*
X17316Y33010D02*
D03*
X-38882Y67276D02*
D03*
X-141077Y-131197D02*
D03*
X-150905Y72D02*
D03*
X90588Y-52371D02*
D03*
X-232986Y-97764D02*
D03*
X-210887Y-15575D02*
D03*
X-107926Y-45348D02*
D03*
X-270422Y6127D02*
D03*
X-208979Y-3624D02*
D03*
D42*
X144423Y-40462D02*
D03*
X138810Y-1824D02*
D03*
X-152850Y116615D02*
D03*
X-178183Y145002D02*
D03*
X-279600Y67634D02*
D03*
X-213376Y-91653D02*
D03*
X-258993Y-83112D02*
D03*
D43*
X-21716Y33524D02*
D03*
X-1534Y-35255D02*
D03*
X-9946Y-13682D02*
D03*
D44*
X-13245Y20239D02*
D03*
X-60170Y92355D02*
D03*
X182819Y-20681D02*
D03*
D45*
X231803Y10668D02*
D03*
D46*
X-218186Y51689D02*
D03*
Y70231D02*
D03*
X-196596Y51689D02*
D03*
Y70231D02*
D03*
D47*
X-261928Y48953D02*
D03*
Y71953D02*
D03*
D48*
X-234046Y52070D02*
D03*
X-248046D02*
D03*
D49*
X-234796Y71120D02*
D03*
X-247296D02*
D03*
X-197766Y-50800D02*
D03*
X-185266D02*
D03*
D50*
X-178405Y34572D02*
D03*
X-173405D02*
D03*
X-168405D02*
D03*
X-163405D02*
D03*
X-158405D02*
D03*
X-153405D02*
D03*
X-133405D02*
D03*
X-128405D02*
D03*
X-123405D02*
D03*
Y-34428D02*
D03*
X-128405D02*
D03*
X-133405D02*
D03*
X-138405D02*
D03*
X-143405D02*
D03*
X-153405D02*
D03*
X-158405D02*
D03*
X-163405D02*
D03*
X-168405D02*
D03*
X-173405D02*
D03*
X-178405D02*
D03*
X-148405Y34572D02*
D03*
X-138405D02*
D03*
X-143405D02*
D03*
X-148405Y-34428D02*
D03*
D51*
X-116405Y27572D02*
D03*
Y22572D02*
D03*
Y17572D02*
D03*
Y12572D02*
D03*
Y7572D02*
D03*
Y2572D02*
D03*
Y-2428D02*
D03*
Y-7428D02*
D03*
Y-12428D02*
D03*
Y-17428D02*
D03*
Y-22428D02*
D03*
Y-27428D02*
D03*
X-185405D02*
D03*
Y-22428D02*
D03*
Y-17428D02*
D03*
Y-12428D02*
D03*
Y-7428D02*
D03*
Y-2428D02*
D03*
Y2572D02*
D03*
Y7572D02*
D03*
Y12572D02*
D03*
Y17572D02*
D03*
Y22572D02*
D03*
Y27572D02*
D03*
D52*
X-150905Y72D02*
D03*
D53*
X-128410Y76493D02*
D03*
X-140409D02*
D03*
X-152408D02*
D03*
M02*
