G04*
G04 #@! TF.GenerationSoftware,Altium Limited,Altium Designer,25.8.1 (18)*
G04*
G04 Layer_Color=255*
%FSLAX44Y44*%
%MOMM*%
G71*
G04*
G04 #@! TF.SameCoordinates,DC2A109C-38F9-4662-A5C9-921089D2BF11*
G04*
G04*
G04 #@! TF.FilePolarity,Positive*
G04*
G01*
G75*
G04:AMPARAMS|DCode=18|XSize=1mm|YSize=1mm|CornerRadius=0.5mm|HoleSize=0mm|Usage=FLASHONLY|Rotation=90.000|XOffset=0mm|YOffset=0mm|HoleType=Round|Shape=RoundedRectangle|*
%AMROUNDEDRECTD18*
21,1,1.0000,0.0000,0,0,90.0*
21,1,0.0000,1.0000,0,0,90.0*
1,1,1.0000,0.0000,0.0000*
1,1,1.0000,0.0000,0.0000*
1,1,1.0000,0.0000,0.0000*
1,1,1.0000,0.0000,0.0000*
%
%ADD18ROUNDEDRECTD18*%
%ADD19R,0.8000X0.8000*%
G04:AMPARAMS|DCode=20|XSize=1mm|YSize=1mm|CornerRadius=0.5mm|HoleSize=0mm|Usage=FLASHONLY|Rotation=210.000|XOffset=0mm|YOffset=0mm|HoleType=Round|Shape=RoundedRectangle|*
%AMROUNDEDRECTD20*
21,1,1.0000,0.0000,0,0,210.0*
21,1,0.0000,1.0000,0,0,210.0*
1,1,1.0000,0.0000,0.0000*
1,1,1.0000,0.0000,0.0000*
1,1,1.0000,0.0000,0.0000*
1,1,1.0000,0.0000,0.0000*
%
%ADD20ROUNDEDRECTD20*%
G04:AMPARAMS|DCode=21|XSize=1mm|YSize=1mm|CornerRadius=0.5mm|HoleSize=0mm|Usage=FLASHONLY|Rotation=150.000|XOffset=0mm|YOffset=0mm|HoleType=Round|Shape=RoundedRectangle|*
%AMROUNDEDRECTD21*
21,1,1.0000,0.0000,0,0,150.0*
21,1,0.0000,1.0000,0,0,150.0*
1,1,1.0000,0.0000,0.0000*
1,1,1.0000,0.0000,0.0000*
1,1,1.0000,0.0000,0.0000*
1,1,1.0000,0.0000,0.0000*
%
%ADD21ROUNDEDRECTD21*%
%ADD22R,0.6587X0.8121*%
%ADD23R,0.9000X0.6500*%
%ADD24R,0.8000X1.0000*%
G04:AMPARAMS|DCode=25|XSize=2.3528mm|YSize=0.4949mm|CornerRadius=0.2475mm|HoleSize=0mm|Usage=FLASHONLY|Rotation=0.000|XOffset=0mm|YOffset=0mm|HoleType=Round|Shape=RoundedRectangle|*
%AMROUNDEDRECTD25*
21,1,2.3528,0.0000,0,0,0.0*
21,1,1.8579,0.4949,0,0,0.0*
1,1,0.4949,0.9290,0.0000*
1,1,0.4949,-0.9290,0.0000*
1,1,0.4949,-0.9290,0.0000*
1,1,0.4949,0.9290,0.0000*
%
%ADD25ROUNDEDRECTD25*%
%ADD26R,2.3528X0.4949*%
%ADD27R,0.8900X0.6400*%
%ADD28R,0.9500X0.8000*%
%ADD29C,8.8900*%
%ADD36R,1.5700X1.5700*%
%ADD37C,1.5700*%
D18*
X-1679Y77521D02*
D03*
Y-77521D02*
D03*
X-223901Y123901D02*
D03*
X-80899Y-123901D02*
D03*
X-152400Y-165199D02*
D03*
X147599Y165199D02*
D03*
Y-165199D02*
D03*
X-152400Y165199D02*
D03*
D19*
X-2742Y14138D02*
D03*
Y-862D02*
D03*
D20*
X-295468Y-82601D02*
D03*
X-223901Y-123901D02*
D03*
X-80899Y123901D02*
D03*
X290700Y82601D02*
D03*
D21*
X-295501Y0D02*
D03*
X290700Y-82601D02*
D03*
X-295468Y82601D02*
D03*
D22*
X-28991Y50896D02*
D03*
X-15457D02*
D03*
D23*
X117109Y-65996D02*
D03*
Y-51496D02*
D03*
X48531Y-70152D02*
D03*
Y-55652D02*
D03*
D24*
X-20201Y-36442D02*
D03*
X-35201D02*
D03*
X-34801Y-23043D02*
D03*
X-19801D02*
D03*
D25*
X117849Y51225D02*
D03*
Y44725D02*
D03*
Y38225D02*
D03*
Y31725D02*
D03*
Y25225D02*
D03*
Y18725D02*
D03*
Y12225D02*
D03*
Y5725D02*
D03*
Y-775D02*
D03*
Y-7275D02*
D03*
Y-13775D02*
D03*
Y-20275D02*
D03*
Y-26775D02*
D03*
Y-33275D02*
D03*
X48346D02*
D03*
Y-26775D02*
D03*
Y-20275D02*
D03*
Y-13775D02*
D03*
Y-7275D02*
D03*
Y-775D02*
D03*
Y5725D02*
D03*
Y12225D02*
D03*
Y18725D02*
D03*
Y25225D02*
D03*
Y31725D02*
D03*
Y38225D02*
D03*
Y44725D02*
D03*
D26*
Y51225D02*
D03*
D27*
X-136248Y22280D02*
D03*
Y8280D02*
D03*
D28*
X17551Y8292D02*
D03*
Y-4208D02*
D03*
D29*
X231803Y10668D02*
D03*
D36*
X-179978Y-93003D02*
D03*
D37*
X-154578D02*
D03*
X-129178D02*
D03*
M02*
