M48
;Layer_Color=9474304
;FILE_FORMAT=4:3
METRIC,LZ
;TYPE=PLATED
T01F00S00C0.381
T02F00S00C0.508
T03F00S00C0.711
T04F00S00C1.020
%
T01
X0018282Y-0002068
X-0001324Y0002024
X-0012869Y0004938
X-0006017Y0009236
T02
X-0014108Y-001312
X-0010793Y-0004535
X-0015091Y0000007
X-0015612Y0004401
X-0013802Y0006577
X-0003888Y0006728
X-0002172Y0003352
X0001732Y0003301
X-0000995Y-0001368
X-0000153Y-0003525
X0003279Y-0005871
X0009059Y-0005237
X-0021089Y-0001558
X-0020898Y-0000362
X-0027042Y0000613
X-0023299Y-0009776
X-0014813Y0010503
T03
X-0021338Y-0009165
X0014442Y-0004046
X0013881Y-0000182
X-0025899Y-0008311
X-002796Y0006763
X-0015285Y0011662
X-0017818Y00145
T04
X-0017998Y-00093
X-0015458
X-0012918
M30
